<?xml version="1.0" encoding="UTF-8" standalone="no"?>
<svg
   xmlns:dc="http://purl.org/dc/elements/1.1/"
   xmlns:cc="http://creativecommons.org/ns#"
   xmlns:rdf="http://www.w3.org/1999/02/22-rdf-syntax-ns#"
   xmlns:svg="http://www.w3.org/2000/svg"
   xmlns="http://www.w3.org/2000/svg"
   version="1.1"
   id="svg3594"
   height="380px"
   width="300px">
  <metadata
     id="metadata20">
    <rdf:RDF>
      <cc:Work
         rdf:about="">
        <dc:format>image/svg+xml</dc:format>
        <dc:type
           rdf:resource="http://purl.org/dc/dcmitype/StillImage" />
      </cc:Work>
    </rdf:RDF>
  </metadata>
  <defs
     id="defs18" />
  <g
     id="background">
    <path
       id="rect3597"
       d="m 0,0 300,0 0,380 -300,0 z"
       style="fill:#f0f0f0;fill-opacity:1;fill-rule:nonzero;stroke:none" />
    <path
       id="rect5"
       d="m 0,30 300,0 0,300 -300,0 z"
       style="fill:#000000;stroke:none" />
  </g>
  <g
     style="font-size:15px;font-family:'Impact Label';fill:#000000;stroke:none"
     font-size="15"
     id="gridlayer">
    <g
       id="text8"
       style="text-anchor:middle;fill:#c02800">
      <path
         id="path25"
         style="text-anchor:middle;fill:#c02800"
         d="m 96.118125,27.86 -9.495,0 0,-18.33 9.495,0 0,18.33 z m -2.85,-10.605 q 0.165,-0.06 0.27,-0.315 0.12,-0.27 0.015,-0.555 -0.03,-0.12 -0.195,-0.345 -0.15,-0.225 -0.375,-0.45 -0.225,-0.225 -0.495,-0.42 -0.27,-0.195 -0.63,-0.255 -0.315,-0.06 -0.855,0 -0.525,0.06 -1.02,0.285 -0.48,0.21 -0.84,0.615 -0.345,0.39 -0.345,0.96 0,0.615 0.165,0.975 0.165,0.36 0.39,0.585 0.225,0.21 0.495,0.285 0.27,0.075 0.48,0.135 0.225,0.045 0.555,0.105 0.345,0.045 0.69,0.12 0.36,0.06 0.645,0.15 0.285,0.075 0.42,0.18 0.24,0.21 0.345,0.645 0.105,0.42 -0.03,0.675 -0.105,0.255 -0.525,0.6 -0.42,0.345 -1.155,0.345 -0.36,0 -0.585,-0.03 -0.225,-0.045 -0.36,-0.105 -0.135,-0.075 -0.225,-0.18 -0.09,-0.12 -0.21,-0.24 -0.21,-0.255 -0.3,-0.345 -0.075,-0.105 -0.075,-0.24 0,-0.12 0.075,-0.195 0.09,-0.09 0.03,-0.21 -0.06,-0.15 -0.135,-0.15 -0.075,-0.015 -0.105,-0.075 -0.075,-0.045 -0.12,-0.12 -0.045,-0.075 -0.03,-0.195 0,-0.105 0.06,-0.195 0.015,-0.06 0.015,-0.09 -0.06,0.03 -0.135,0.045 -0.15,0.06 -0.15,0.165 -0.03,0.075 0.03,0.135 0.015,0.03 0.015,0.045 -0.135,-0.045 -0.27,0 -0.09,0.06 -0.195,0.165 -0.09,0.105 -0.09,0.345 0,0.225 0.105,0.54 0.105,0.3 0.315,0.615 0.225,0.3 0.495,0.54 0.27,0.24 0.615,0.39 0.33,0.165 0.75,0.21 0.42,0.03 0.81,0 0.405,-0.045 0.75,-0.165 0.345,-0.135 0.555,-0.3 0.39,-0.345 0.675,-0.855 0.3,-0.51 0.24,-1.05 -0.045,-0.555 -0.33,-0.945 -0.285,-0.39 -0.465,-0.6 -0.21,-0.21 -0.36,-0.3 -0.135,-0.105 -0.195,-0.075 -0.015,0.045 -0.015,0.135 0,0.015 0.015,0.03 -0.165,0.03 -0.285,0 -0.255,0 -0.525,-0.09 -0.21,-0.075 -0.615,-0.135 -0.39,-0.06 -0.645,-0.195 -0.27,-0.12 -0.24,-0.12 0.03,0 -0.12,-0.03 -0.09,-0.03 -0.345,-0.255 -0.255,-0.225 -0.255,-0.54 0,-0.165 0.15,-0.3 0.15,-0.15 0.345,-0.27 0.195,-0.135 0.405,-0.225 0.21,-0.105 0.345,-0.12 0.255,-0.06 0.69,-0.09 0.45,-0.03 0.63,0.105 0.21,0.105 0.405,0.33 0.21,0.225 0.285,0.375 0.06,0.12 0.045,0.24 -0.015,0.12 0.135,0.24 0.105,0.105 0.27,0.105 0.06,0 0.12,-0.045 z m -1.245,0.33 -0.195,-0.105 q -0.165,-0.075 -0.33,-0.12 -0.045,0 -0.225,-0.03 -0.18,-0.045 -0.405,-0.09 -0.21,-0.045 -0.39,-0.12 -0.165,-0.09 -0.21,-0.165 -0.135,-0.21 0.06,-0.345 0.195,-0.15 0.42,-0.15 l 0.6,0 q -0.15,-0.015 -0.315,-0.06 -0.12,-0.015 -0.285,-0.015 -0.165,-0.015 -0.27,-0.015 -0.24,0.015 -0.48,0.24 -0.24,0.225 -0.135,0.51 0.06,0.165 0.21,0.255 0.165,0.075 0.345,0.12 0.18,0.03 0.345,0.045 0.18,0 0.27,0 0.06,0.03 0.225,0.03 0.165,0 0.345,0 0.225,0 0.42,0.015 z m 1.35,-0.12 q 0,0.105 0.09,0.18 0.09,0.06 0.15,0 0.045,-0.06 0.21,-0.24 0.18,-0.18 0.18,-0.39 0,-0.075 -0.015,-0.21 0,-0.15 -0.015,-0.3 -0.045,-0.135 -0.075,-0.3 0.03,0 0.075,-0.03 0.075,-0.075 0.075,-0.075 0,-0.045 -0.12,-0.09 l -0.105,-0.06 q -0.015,-0.015 -0.045,-0.075 -0.06,-0.06 -0.03,-0.12 0.03,-0.06 -0.225,-0.375 -0.255,-0.33 -0.45,-0.45 -0.225,-0.135 -0.675,-0.315 -0.45,-0.195 -0.57,-0.195 l -0.255,0 q -0.075,0 -0.09,-0.015 0.465,0.165 0.87,0.3 0.345,0.15 0.645,0.33 0.3,0.18 0.435,0.345 0.105,0.18 0.15,0.285 0.06,0.105 0.12,0.195 0.045,0.09 0.045,0.135 l 0.03,0.15 0.06,0.12 q 0.06,0.225 0.09,0.405 0.045,0.165 0,0.345 -0.03,0.165 -0.12,0.24 -0.15,0.105 -0.225,0.135 -0.06,0.015 -0.12,0.06 l -0.09,0.015 z m -0.075,0.69 q -0.09,0.03 0.075,0.12 l 0.165,0.105 q 0.24,0.315 0.39,0.645 0.135,0.285 0.21,0.69 0.09,0.39 0.015,0.795 -0.18,0.855 -0.525,1.185 -0.33,0.33 -0.72,0.57 -0.405,0.225 -0.855,0.39 -0.45,0.15 -0.735,0.15 -0.285,0 -0.6,-0.015 -0.3,-0.03 -0.24,0.015 0.015,0 0.315,0.045 0.3,0.03 0.705,0 0.405,-0.03 0.87,-0.15 0.48,-0.12 0.885,-0.405 0.39,-0.285 0.615,-0.69 0.225,-0.405 0.315,-0.81 0.105,-0.405 0.12,-0.75 0.03,-0.345 -0.015,-0.525 -0.03,-0.165 -0.165,-0.42 -0.135,-0.255 -0.3,-0.465 -0.165,-0.21 -0.315,-0.36 -0.135,-0.165 -0.21,-0.12 z m -3.18,1.17 q -0.15,-0.015 -0.45,-0.12 -0.285,-0.105 -0.36,-0.105 -0.06,0 0.03,0.075 0.105,0.075 0.18,0.18 0.105,0.12 0.27,0.57 0.18,0.45 0.36,0.645 0.12,0.105 0.285,0.135 0.165,0.03 0.345,0.03 l 0.45,0 q -0.135,-0.045 -0.255,-0.045 -0.105,0 -0.21,0 -0.105,0 -0.165,-0.015 -0.105,-0.015 -0.24,-0.06 -0.12,-0.06 -0.21,-0.12 -0.075,-0.06 -0.165,-0.315 -0.09,-0.255 -0.135,-0.405 -0.06,-0.12 -0.15,-0.255 -0.03,-0.09 -0.075,-0.105 0.06,0.015 0.165,0.06 0.06,0.015 0.135,0.015 0.09,0 0.12,0 0.075,0 0.165,0.015 0.09,0.015 0.21,0.015 l 0.3,0 q -0.135,-0.03 -0.24,-0.09 -0.105,-0.015 -0.225,-0.045 -0.105,-0.03 -0.135,-0.06 z" />
      <path
         id="path27"
         style="text-anchor:middle;fill:#c02800"
         d="m 105.24516,27.86 -9.495004,0 0,-18.33 9.495004,0 0,18.33 z m -1.905,-12.465 q -0.255,0.15 -0.51,0.255 -0.195,0.09 -0.375,0.195 -0.165,0.105 -0.195,0.18 -0.045,0.045 -0.075,0.255 -0.015,0.21 0,0.435 0.03,0.21 0.045,0.42 0.015,0.21 0.015,0.3 0,0.15 0,0.375 0,0.225 -0.015,0.45 -0.015,0.225 -0.045,0.42 -0.03,0.195 -0.06,0.225 -0.045,0.15 -0.105,0.21 -0.06,0.045 -0.165,-0.03 -0.12,-0.03 -0.225,-0.15 -0.105,-0.12 -0.21,-0.225 -0.105,-0.075 -0.525,0.015 -0.42,0.09 -0.75,0.09 -0.405004,0 -0.585004,-0.045 -0.165,-0.06 -0.225,-0.27 -0.06,-0.105 -0.075,-0.18 -0.015,-0.09 -0.045,-0.18 -0.015,-0.09 -0.015,-0.15 l -0.045,0.225 q -0.015,0.075 -0.06,0.165 -0.045,0.075 -0.105,0.105 -0.21,0.075 -0.255,-0.21 -0.03,-0.285 -0.03,-0.525 0,-0.225 -0.015,-0.42 0,-0.21 0.045,-0.405 0.105,-0.36 0.105,-0.525 0,-0.09 -0.06,-0.315 -0.03,-0.045 -0.045,-0.075 0.045,0 0.12,-0.015 0.18,-0.06 0.195,-0.06 0.015,0 0.045,0.285 0.045,0.27 0.06,0.555 0.015,0.435 0.015,0.87 l 0.03,-1.65 0,-0.135 q 0,-0.135 -0.06,-0.135 -0.075,0 -0.225,0 -0.135,0 -0.345,0.03 -0.195,0.03 -0.375,0.15 -0.165,0.105 -0.27,0.315 -0.09,0.195 -0.09,0.705 0,0.495 0,1.035 0.015,0.54 0.09,1.005 0.075,0.45 0.075,0.54 0,0.12 0,0.54 0,0.42 -0.045,0.945 -0.03,0.51 -0.03,0.93 0,0.42 0,0.45 0,0.03 0.03,0.135 0.045,0.105 0.09,0.195 0.045,0.09 0.105,0.18 0.06,0.075 0.195,0.06 0.21,-0.045 0.42,-0.195 0.225,-0.165 0.225,-0.3 0,-0.06 -0.045,-0.15 -0.045,-0.09 -0.105,-0.165 -0.06,-0.105 -0.105,-0.195 l 0.045,-0.945 q 0.03,-0.345 0.045,-0.645 0.015,-0.315 0.015,-0.375 0,-0.09 -0.15,-0.255 -0.135,-0.165 0.015,-0.285 0.135,-0.075 0.27,-0.045 0.135,0.03 0.195,0.03 0.045,0 0.27,0.015 0.225,0 0.48,0.03 0.270004,0.03 0.585004,0.045 0.315,0 0.51,0 0.39,0 0.48,0 0.09,-0.015 0.165,-0.075 0.075,-0.015 0.135,-0.12 0.075,-0.045 0.09,-0.075 l 0.165,0.075 q 0.045,0.045 0.12,0.09 0.075,0.045 0.09,0.09 0.015,0.06 0.015,0.345 0.015,0.285 0.075,0.66 0.06,0.36 0.06,0.69 0.015,0.33 0.015,0.465 0,0.06 -0.015,0.27 0,0.21 -0.06,0.42 -0.045,0.195 0,0.375 0.06,0.165 0.09,0.18 0.12,0.045 0.33,-0.06 0.225,-0.105 0.375,-0.225 0.015,-0.09 0,-0.225 0,-0.135 -0.075,-0.315 -0.075,-0.195 -0.105,-0.345 -0.015,-0.165 -0.015,-0.285 0,-0.105 0,-0.435 0.015,-0.33 0.015,-0.78 0.015,-0.45 0.015,-0.975 0,-0.54 0,-0.99 0,-0.45 0,-0.75 0,-0.315 0,-0.42 0,-0.195 0.09,-0.48 0.09,-0.285 0.09,-0.39 0,-0.15 -0.165,-0.27 l -0.06,-0.09 q 0.015,-0.03 0.045,-0.075 0.03,-0.03 0.09,-0.045 0.075,-0.015 0.105,-0.015 0.09,0 0.18,-0.09 0.09,-0.105 -0.015,-0.24 z m -2.28,2.49 -1.590004,-0.03 q 0.075,0.12 0.315,0.135 0.240004,0 0.540004,-0.015 l 0.735,-0.09 z m -1.845004,2.22 q -0.045,-0.015 -0.045,0.15 0,0.165 0,0.435 0,0.27 0.015,0.51 0.03,0.24 0.03,0.3 0.03,0.18 0.03,0.48 0,0.285 -0.045,0.45 -0.03,0.075 -0.045,0.12 0,0.03 0,0.075 l 0,0.075 q 0.015,-0.225 0.06,-0.495 0.06,-0.195 0.09,-0.465 0.03,-0.285 0.03,-0.585 0,-0.51 0,-0.75 0,-0.24 -0.12,-0.3 z m 4.230004,-2.325 q 0,0.03 -0.015,0.315 -0.015,0.27 -0.015,0.54 0,0.27 0,0.54 0,0.255 0,0.27 0,0.06 0,0.24 0,0.165 0,0.36 0,0.18 0.015,0.375 0.015,0.195 0.03,0.24 0.015,0.12 0.015,0.33 0,0.21 0,0.51 l 0,0.645 q 0.015,-0.12 0.015,-0.255 0,-0.21 0.015,-0.255 l 0,-0.795 q 0,-0.24 -0.015,-0.645 0,-0.105 0.015,-0.225 0,-0.09 0.03,-0.195 0.03,-0.12 0.03,-0.195 0,-0.09 -0.03,-0.555 -0.03,-0.465 -0.045,-1.035 -0.015,-0.645 -0.015,-1.44 -0.015,0.285 -0.015,0.57 0,0.225 -0.015,0.42 0,0.18 0,0.24 z" />
      <path
         id="path29"
         style="text-anchor:middle;fill:#c02800"
         d="m 114.20719,27.86 -9.48,0 0,-18.33 9.48,0 0,18.33 z m -7.05,-12.765 q -0.12,0.075 -0.165,0.39 -0.045,0.315 -0.045,0.54 0,0.105 0,0.705 0,0.585 0.015,1.26 0.015,0.675 0.015,1.26 0,0.57 0,0.66 0,0.075 -0.015,0.39 -0.015,0.315 -0.015,0.675 0,0.36 0.015,0.69 0.015,0.33 0.075,0.45 0.105,0.195 0.105,0.21 0,0.015 0.18,0.075 0.18,0.045 0.345,-0.09 0.18,-0.15 0.21,-0.345 0.015,-0.18 -0.105,-0.435 -0.105,-0.255 -0.105,-0.375 0,-0.09 0.015,-0.27 0.03,-0.18 0.045,-0.375 0.015,-0.21 0.03,-0.375 0.015,-0.165 0.015,-0.24 -0.03,-0.15 -0.045,-0.375 -0.015,-0.225 0.075,-0.3 0.09,-0.045 0.48,-0.045 0.405,0 0.585,-0.06 0.225,-0.03 0.405,-0.12 0.195,-0.09 0.42,0.015 0.105,0.06 0.24,0.33 0.135,0.255 0.27,0.585 0.15,0.33 0.285,0.645 0.135,0.315 0.21,0.495 0.075,0.195 0.18,0.465 0.105,0.255 0.24,0.48 0.135,0.225 0.27,0.375 0.15,0.135 0.285,0.06 0.285,-0.135 0.33,-0.27 0.045,-0.15 -0.015,-0.375 -0.03,-0.075 -0.165,-0.255 -0.12,-0.195 -0.285,-0.42 -0.165,-0.24 -0.33,-0.465 -0.15,-0.24 -0.225,-0.465 -0.3,-0.825 -0.3,-0.945 0,-0.09 -0.03,-0.105 -0.015,-0.03 0.045,-0.075 0.015,-0.045 0.225,-0.195 0.225,-0.165 0.45,-0.45 0.24,-0.3 0.42,-0.615 0.195,-0.33 0.165,-0.66 -0.015,-0.63 -0.27,-1.05 -0.24,-0.42 -0.495,-0.615 -0.225,-0.225 -0.405,-0.315 -0.165,-0.105 -0.315,-0.12 -0.12,-0.06 -0.09,-0.075 0.03,-0.03 -0.09,0.015 -0.045,0.045 -0.345,0.06 -0.285,0 -0.615,0 -0.315,0 -0.66,0.015 -0.33,0 -0.45,0 -0.27,0 -0.645,0 -0.36,0 -0.42,0.03 z m 2.955,0.84 q 0.3,0 0.63,0.195 0.18,0.105 0.285,0.345 0.105,0.225 0.135,0.495 0.06,0.27 -0.09,0.555 -0.15,0.285 -0.36,0.465 -0.195,0.18 -0.51,0.24 -0.3,0.045 -0.645,0.03 -0.15,0 -0.375,-0.045 -0.21,-0.045 -0.405,-0.075 -0.195,-0.03 -0.345,-0.06 -0.135,-0.03 -0.18,-0.03 -0.03,0 -0.27,0.105 -0.24,0.105 -0.3,0.015 -0.06,-0.06 0,-0.255 0.06,-0.195 0.105,-0.27 0.06,-0.09 0.03,-0.135 -0.015,-0.045 -0.03,-0.195 0,-0.075 -0.03,-0.225 -0.015,-0.165 -0.03,-0.33 -0.015,-0.18 -0.03,-0.315 -0.015,-0.135 -0.015,-0.15 0,-0.165 0.03,-0.24 0.075,-0.09 0.315,0 0.105,0.06 0.15,0.045 0.06,-0.03 0.21,-0.03 0.12,0 0.255,-0.015 0.15,-0.03 0.285,-0.03 0.12,0 0.435,0.03 0.33,0.015 0.435,-0.03 0.045,-0.06 0.105,-0.06 0.06,-0.015 0.21,-0.03 z m -2.085,0.57 q -0.06,0.06 0.015,0.18 0.09,0.105 0.09,0.18 0,0.06 0.09,0.15 l 0.03,0.03 q -0.06,-0.09 -0.09,-0.195 -0.105,-0.18 0,-0.255 0.09,-0.03 0.3,-0.03 l 0.21,0 -0.33,-0.06 q -0.12,-0.03 -0.225,-0.03 -0.09,0 -0.09,0.03 z m 0.105,0.81 q 0,0.09 -0.06,0.18 -0.015,0.06 -0.015,0.09 l 0.195,0.135 0.795,0.045 q -0.195,-0.015 -0.36,-0.075 -0.12,-0.045 -0.255,-0.09 -0.135,-0.045 -0.18,-0.105 -0.09,-0.135 -0.09,-0.135 l -0.03,-0.045 z m 2.46,-2.7 q 0.39,0.225 0.72,0.45 0.285,0.225 0.525,0.51 0.255,0.27 0.33,0.615 0.135,0.675 0.045,1.395 -0.09,0.705 -0.39,0.96 -0.285,0.225 -0.495,0.42 -0.195,0.195 -0.195,0.255 0,0.06 0.12,0.33 0.12,0.27 0.315,0.6 0.195,0.375 0.45,0.84 -0.195,-0.45 -0.315,-0.81 -0.135,-0.33 -0.21,-0.6 -0.075,-0.285 -0.06,-0.36 0.015,-0.045 0.18,-0.225 0.165,-0.195 0.345,-0.465 0.195,-0.27 0.315,-0.615 0.135,-0.36 0.12,-0.72 -0.045,-0.375 -0.075,-0.69 -0.015,-0.315 -0.18,-0.615 -0.15,-0.315 -0.51,-0.615 -0.36,-0.3 -1.035,-0.66 z m 1.305,8.01 q -0.03,0.075 0.12,0.03 0.15,-0.06 0.285,-0.3 0.105,-0.195 0.105,-0.39 0,-0.105 -0.015,-0.18 l -0.06,0.33 q -0.03,0.12 -0.075,0.225 -0.03,0.105 -0.105,0.165 -0.135,0.075 -0.18,0.075 -0.03,0 -0.075,0.045 z m -3.93,-2.88 q 0,0.045 0.015,0.3 0.03,0.255 0.045,0.585 0.03,0.315 0.06,0.6 0.03,0.285 0.03,0.39 0.015,0.225 0,0.33 0,0.105 -0.105,0.225 -0.12,0.135 -0.12,0.15 0,0.015 -0.09,0.015 -0.09,0 -0.24,-0.045 -0.12,-0.045 -0.165,-0.075 0.12,0.12 0.225,0.225 0.255,0.18 0.345,0.06 0.06,-0.09 0.12,-0.315 0.075,-0.225 0.12,-0.51 0.045,-0.285 0.09,-0.57 0.045,-0.285 0.045,-0.495 -0.03,-0.195 -0.015,-0.345 0.015,-0.165 0.015,-0.285 0,-0.135 0.045,-0.24 l 0.135,0.075 q 0.225,0.105 0.345,0.09 0.15,-0.015 0.03,-0.15 -0.105,-0.135 -0.225,-0.135 -0.165,0 -0.315,-0.075 -0.135,-0.09 -0.285,-0.15 -0.12,-0.045 -0.12,0.12 0.015,0.15 0.015,0.225 z" />
      <path
         id="path31"
         style="text-anchor:middle;fill:#c02800"
         d="m 123.27633,27.86 -9.48,0 0,-18.33 9.48,0 0,18.33 z m -4.755,-11.85 q 0.42,0.045 0.735,0.33 0.33,0.27 0.555,0.675 0.225,0.39 0.345,0.87 0.12,0.48 0.12,0.945 0,0.465 -0.135,0.99 -0.12,0.51 -0.36,0.93 -0.24,0.405 -0.555,0.675 -0.315,0.27 -0.66,0.27 -0.36,0 -0.795,-0.15 -0.42,-0.165 -0.795,-0.525 -0.36,-0.375 -0.6,-0.96 -0.24,-0.6 -0.18,-1.47 0.03,-0.87 0.36,-1.38 0.345,-0.525 0.735,-0.795 0.405,-0.285 0.765,-0.36 0.375,-0.075 0.465,-0.045 z m 1.08,-0.465 q -0.36,-0.345 -0.615,-0.48 -0.255,-0.15 -0.135,0.09 0,0.045 -0.33,0.045 -0.315,0 -0.795,0.09 -0.465,0.09 -0.945,0.33 -0.48,0.225 -0.735,0.735 -0.3,0.51 -0.48,1.275 -0.165,0.75 -0.15,1.545 0.03,0.795 0.285,1.515 0.255,0.72 0.825,1.2 0.6,0.465 1.185,0.63 0.585,0.165 1.08,0.09 0.495,-0.09 0.87,-0.39 0.375,-0.3 0.585,-0.675 0.18,-0.39 0.345,-0.885 0.165,-0.51 0.255,-1.02 0.09,-0.525 0.075,-1.005 -0.015,-0.495 -0.105,-0.885 -0.45,-1.47 -1.215,-2.205 z m 2.385,4.47 q -0.06,0.06 -0.06,0.09 0,0.075 0.015,0.12 0.015,0.045 0.09,0.075 l -0.045,-0.285 z m -1.995,-4.905 q -0.345,-0.195 -0.615,-0.33 -0.255,-0.135 -0.465,-0.195 -0.24,-0.075 -0.45,-0.075 l 0.555,0.18 q 0.045,0.015 0.3,0.18 0.27,0.15 0.57,0.375 0.315,0.225 0.585,0.51 0.285,0.285 0.405,0.6 0.12,0.315 0.21,0.735 0.105,0.405 0.165,0.855 0.075,0.45 0.105,0.885 0.03,0.42 -0.03,0.75 -0.105,0.69 -0.3,1.245 -0.18,0.555 -0.78,1.17 -0.315,0.3 -0.645,0.51 -0.315,0.195 -0.585,0.315 -0.33,0.15 -0.615,0.225 0.51,-0.135 0.975,-0.345 0.39,-0.18 0.795,-0.48 0.42,-0.315 0.675,-0.765 0.255,-0.45 0.375,-0.99 0.135,-0.555 0.195,-1.065 0.06,-0.51 0.045,-0.915 0,-0.405 -0.015,-0.615 -0.045,-0.15 -0.15,-0.51 -0.105,-0.375 -0.285,-0.795 -0.18,-0.435 -0.45,-0.825 -0.255,-0.405 -0.57,-0.63 z m -2.205,1.455 q -0.225,0.12 -0.435,0.3 -0.195,0.165 -0.375,0.42 -0.18,0.255 -0.285,0.585 -0.21,0.69 -0.105,1.47 0.105,0.765 0.315,1.215 0.12,0.225 0.3,0.39 0.18,0.165 0.36,0.255 0.195,0.09 0.345,0.135 0.15,0.045 0.195,0.015 0.045,-0.075 -0.12,-0.21 -0.15,-0.15 -0.33,-0.315 -0.09,-0.075 -0.225,-0.18 -0.12,-0.105 -0.255,-0.3 -0.12,-0.195 -0.225,-0.525 -0.09,-0.345 -0.105,-0.915 -0.075,-0.54 0.06,-0.99 0.15,-0.45 0.36,-0.735 0.24,-0.345 0.525,-0.615 z" />
      <path
         id="path33"
         style="text-anchor:middle;fill:#c02800"
         d="m 132.27047,27.86 -9.48,0 0,-18.33 9.48,0 0,18.33 z m -4.755,-11.85 q 0.42,0.045 0.735,0.33 0.33,0.27 0.555,0.675 0.225,0.39 0.345,0.87 0.12,0.48 0.12,0.945 0,0.465 -0.135,0.99 -0.12,0.51 -0.36,0.93 -0.24,0.405 -0.555,0.675 -0.315,0.27 -0.66,0.27 -0.36,0 -0.795,-0.15 -0.42,-0.165 -0.795,-0.525 -0.36,-0.375 -0.6,-0.96 -0.24,-0.6 -0.18,-1.47 0.03,-0.87 0.36,-1.38 0.345,-0.525 0.735,-0.795 0.405,-0.285 0.765,-0.36 0.375,-0.075 0.465,-0.045 z m 1.08,-0.465 q -0.36,-0.345 -0.615,-0.48 -0.255,-0.15 -0.135,0.09 0,0.045 -0.33,0.045 -0.315,0 -0.795,0.09 -0.465,0.09 -0.945,0.33 -0.48,0.225 -0.735,0.735 -0.3,0.51 -0.48,1.275 -0.165,0.75 -0.15,1.545 0.03,0.795 0.285,1.515 0.255,0.72 0.825,1.2 0.6,0.465 1.185,0.63 0.585,0.165 1.08,0.09 0.495,-0.09 0.87,-0.39 0.375,-0.3 0.585,-0.675 0.18,-0.39 0.345,-0.885 0.165,-0.51 0.255,-1.02 0.09,-0.525 0.075,-1.005 -0.015,-0.495 -0.105,-0.885 -0.45,-1.47 -1.215,-2.205 z m 2.385,4.47 q -0.06,0.06 -0.06,0.09 0,0.075 0.015,0.12 0.015,0.045 0.09,0.075 l -0.045,-0.285 z m -1.995,-4.905 q -0.345,-0.195 -0.615,-0.33 -0.255,-0.135 -0.465,-0.195 -0.24,-0.075 -0.45,-0.075 l 0.555,0.18 q 0.045,0.015 0.3,0.18 0.27,0.15 0.57,0.375 0.315,0.225 0.585,0.51 0.285,0.285 0.405,0.6 0.12,0.315 0.21,0.735 0.105,0.405 0.165,0.855 0.075,0.45 0.105,0.885 0.03,0.42 -0.03,0.75 -0.105,0.69 -0.3,1.245 -0.18,0.555 -0.78,1.17 -0.315,0.3 -0.645,0.51 -0.315,0.195 -0.585,0.315 -0.33,0.15 -0.615,0.225 0.51,-0.135 0.975,-0.345 0.39,-0.18 0.795,-0.48 0.42,-0.315 0.675,-0.765 0.255,-0.45 0.375,-0.99 0.135,-0.555 0.195,-1.065 0.06,-0.51 0.045,-0.915 0,-0.405 -0.015,-0.615 -0.045,-0.15 -0.15,-0.51 -0.105,-0.375 -0.285,-0.795 -0.18,-0.435 -0.45,-0.825 -0.255,-0.405 -0.57,-0.63 z m -2.205,1.455 q -0.225,0.12 -0.435,0.3 -0.195,0.165 -0.375,0.42 -0.18,0.255 -0.285,0.585 -0.21,0.69 -0.105,1.47 0.105,0.765 0.315,1.215 0.12,0.225 0.3,0.39 0.18,0.165 0.36,0.255 0.195,0.09 0.345,0.135 0.15,0.045 0.195,0.015 0.045,-0.075 -0.12,-0.21 -0.15,-0.15 -0.33,-0.315 -0.09,-0.075 -0.225,-0.18 -0.12,-0.105 -0.255,-0.3 -0.12,-0.195 -0.225,-0.525 -0.09,-0.345 -0.105,-0.915 -0.075,-0.54 0.06,-0.99 0.15,-0.45 0.36,-0.735 0.24,-0.345 0.525,-0.615 z" />
      <path
         id="path35"
         style="text-anchor:middle;fill:#c02800"
         d="m 141.27961,27.86 -9.48,0 0,-18.33 9.48,0 0,18.33 z m -2.175,-12.195 q -0.15,0.03 -0.33,0.225 -0.165,0.18 -0.345,0.45 -0.165,0.27 -0.33,0.585 -0.165,0.3 -0.33,0.495 -0.15,0.225 -0.345,0.585 -0.18,0.36 -0.375,0.72 -0.195,0.345 -0.42,0.66 -0.21,0.315 -0.405,0.435 -0.21,0.15 -0.33,0.015 -0.12,-0.135 -0.195,-0.345 -0.075,-0.21 -0.12,-0.42 -0.03,-0.225 -0.045,-0.27 -0.06,-0.09 -0.225,-0.375 -0.165,-0.285 -0.48,-0.57 -0.15,-0.165 -0.405,-0.495 -0.255,-0.345 -0.51,-0.69 -0.255,-0.345 -0.48,-0.585 -0.21,-0.24 -0.285,-0.15 -0.09,0.075 -0.06,0.24 0.03,0.15 0.105,0.33 0.075,0.165 0.15,0.315 0.09,0.15 0.09,0.21 0,0.06 -0.015,0.225 -0.015,0.165 -0.045,0.39 -0.03,0.21 -0.045,0.42 -0.015,0.21 -0.06,0.315 -0.03,0.105 -0.045,0.66 -0.015,0.555 -0.045,1.2 -0.015,0.63 -0.03,1.17 0,0.54 0,0.615 -0.03,0.15 -0.015,0.225 0.03,0.075 0.375,0.18 0.165,0.06 0.3,-0.03 0.15,-0.105 0.24,-0.27 0.09,-0.165 0.165,-0.315 0.075,-0.15 0.09,-0.24 0,-0.06 0,-0.51 0.015,-0.465 0,-0.975 0,-0.525 -0.03,-0.945 -0.03,-0.42 -0.075,-0.42 -0.135,0.015 -0.225,0.285 -0.09,0.27 -0.195,0.465 -0.06,0.12 -0.045,0.51 0.015,0.375 0.015,0.81 0,0.435 0,0.795 0,0.36 -0.06,0.375 -0.03,0.015 -0.06,-0.465 -0.03,-0.495 -0.075,-1.095 -0.03,-0.6 -0.045,-1.14 0,-0.54 -0.015,-0.675 -0.06,-0.225 -0.06,-0.615 0,-0.39 0.03,-0.555 0.045,-0.135 0.18,-0.165 0.135,-0.03 0.27,0.03 0.06,0.015 0.21,0.225 0.165,0.21 0.33,0.495 0.18,0.27 0.36,0.585 0.18,0.3 0.33,0.495 0.3,0.435 0.57,0.96 0.285,0.51 0.465,0.66 0.18,0.105 0.39,-0.03 0.225,-0.15 0.315,-0.135 0.075,0.015 0.03,0.225 -0.03,0.195 0.045,0.195 0.075,0 0.105,-0.075 0.045,-0.075 0.12,-0.21 0.045,-0.06 0.135,-0.18 0.09,-0.135 0.195,-0.255 l 0.255,-0.33 -0.36,0.45 0.63,-1.2 -0.9,1.335 0.855,-1.605 -0.135,-0.09 0,-0.48 q 0,-0.12 0.03,-0.3 0.045,-0.195 0.09,-0.255 0.06,-0.045 0.255,-0.3 0.195,-0.27 0.27,-0.27 0.09,-0.045 0.12,0.075 0.045,0.105 0.135,0.315 0.075,0.225 0.12,0.825 0.06,0.585 0,1.335 0,0.405 -0.03,0.84 -0.015,0.42 -0.015,0.81 0,0.39 0,0.66 0,0.27 0.045,0.375 0.015,0.12 0.12,0.165 0.12,0.03 0.21,0.03 0.09,0 0.18,0 0.105,0 0.12,0.03 0.06,0.09 0.06,0.135 0,0.045 0.075,-0.015 0.03,0 0.195,-0.195 0.03,-0.105 0.12,-0.18 -0.03,0.015 -0.045,0.075 -0.06,0.105 -0.075,0.12 -0.06,0.03 -0.15,0.03 l -0.045,0 0,-0.105 q 0,-0.045 0.045,-0.315 0.06,-0.18 -0.09,-0.525 -0.135,-0.345 -0.135,-0.63 0,-0.15 0.015,-0.855 0.015,-0.72 0.015,-1.545 0.015,-0.825 0.03,-1.53 0.03,-0.72 0.03,-0.855 0,-0.225 0.18,-0.375 0.075,-0.075 0.18,-0.12 0.105,-0.075 0.03,-0.12 -0.075,-0.045 -0.225,-0.045 -0.135,0 -0.315,0.015 -0.18,0.015 -0.3,0.045 z m -2.925,2.925 q 0.045,0.03 -0.015,-0.045 -0.045,-0.09 -0.09,-0.18 -0.075,-0.105 -0.18,-0.27 0,0.12 0.045,0.225 0.06,0.27 0.24,0.27 z m -0.015,-0.54 q -0.33,-0.51 -0.615,-0.96 -0.24,-0.375 -0.435,-0.705 -0.195,-0.345 -0.255,-0.45 -0.03,-0.09 0.12,0.27 0.165,0.36 0.405,0.81 0.24,0.45 0.465,0.81 0.225,0.345 0.315,0.225 z m 3.87,-2.385 q -0.045,1.695 -0.075,3.06 0,0.57 0,1.14 0,0.57 0.015,1.035 0.015,0.45 0.03,0.765 0.015,0.3 0.06,0.375 0.03,0.075 0.045,-0.195 0.015,-0.27 0.015,-0.705 0,-0.435 -0.015,-1.02 -0.015,-0.585 -0.015,-1.185 -0.03,-1.425 -0.06,-3.27 z" />
      <path
         id="path37"
         style="text-anchor:middle;fill:#c02800"
         d="m 150.51094,27.86 -9.525,0 0,-18.33 9.525,0 0,18.33 z m -5.505,-9.51 q -0.195,-0.045 -0.63,-0.045 -0.42,0 -0.54,0.045 -0.135,0.045 -0.12,0.105 0.015,0.06 0.06,0.12 0.06,0.045 0.195,0.15 0.135,0.09 0.09,0.165 0,0.09 -0.105,0.15 l -0.09,0.045 q 0,0.075 0.06,0.135 0.015,0.105 0.135,0.15 0.09,0.06 0.345,0.045 0.27,-0.015 0.45,-0.015 l 1.98,0 q 0.105,0 0.165,0.06 0.075,0.045 0.255,-0.015 0.195,-0.015 0.285,-0.15 0.09,-0.15 0.105,-0.315 0.045,-0.165 -0.045,-0.42 -0.075,-0.255 -0.3,-0.33 -0.21,-0.075 -0.42,0.03 -0.21,0.09 -0.27,0.09 l -0.72,0 q -0.3,0 -0.555,0.03 -0.255,0.015 -0.33,-0.03 z" />
      <path
         id="path39"
         style="text-anchor:middle;fill:#c02800"
         d="m 159.27656,27.86 -9.465,0 0,-18.33 9.465,0 0,18.33 z m -7.17,-5.265 q 0.09,0.03 0.195,0.105 0.12,0.075 0.24,-0.135 0.12,-0.18 0.195,-0.45 0.09,-0.285 0.105,-0.405 0.045,-0.15 0,-0.255 -0.03,-0.12 0.09,-0.15 0.135,-0.03 0.195,0.105 0.075,0.135 0.255,0.135 0.165,0 0.375,-0.075 0.21,-0.09 0.69,-0.09 0.495,0 0.705,0.045 0.225,0.045 0.405,-0.06 0.18,-0.09 0.345,-0.21 0.18,-0.12 0.255,-0.06 0.015,0.015 0.09,0.15 0.09,0.12 0.15,0.255 0.075,0.12 0.135,0.27 0.075,0.15 0.075,0.225 0.045,0.15 0.135,0.39 0.09,0.24 0.375,0.27 0.3,0.06 0.39,-0.03 0.105,-0.09 0.135,-0.33 0.075,-0.195 -0.12,-0.36 -0.195,-0.18 -0.27,-0.375 -0.045,-0.09 -0.195,-0.45 -0.135,-0.36 -0.315,-0.78 -0.18,-0.435 -0.345,-0.855 -0.15,-0.435 -0.24,-0.66 -0.075,-0.255 -0.24,-0.63 -0.15,-0.39 -0.315,-0.75 -0.15,-0.375 -0.285,-0.675 -0.12,-0.315 -0.15,-0.405 -0.045,-0.075 -0.06,-0.255 -0.015,-0.18 -0.06,-0.375 -0.045,-0.195 -0.105,-0.375 -0.045,-0.18 -0.135,-0.27 -0.09,-0.075 -0.195,0 -0.105,0.075 -0.195,0.195 -0.09,0.105 -0.165,0.24 -0.06,0.12 -0.09,0.21 -0.015,0.18 0.045,0.315 0.06,0.135 0.06,0.24 0,0.09 -0.09,0.225 -0.09,0.12 -0.15,0.285 -0.06,0.135 -0.09,0.27 -0.015,0.12 -0.015,0.225 0,0.12 -0.27,0.645 -0.27,0.525 -0.465,1.095 -0.18,0.525 -0.195,0.72 -0.015,0.195 -0.06,0.345 -0.015,0.12 -0.105,0.375 -0.075,0.255 -0.21,0.465 -0.06,0.15 -0.21,0.39 -0.135,0.24 -0.255,0.525 -0.12,0.27 -0.15,0.495 -0.03,0.225 0.105,0.255 z m 3.735,-3.12 q 0.135,0.255 0.165,0.525 0.045,0.255 -0.015,0.465 -0.015,0.09 -0.12,0.105 -0.105,0.015 -0.27,-0.015 -0.15,-0.03 -0.33,-0.075 -0.165,-0.045 -0.27,-0.045 -0.45,0 -0.615,-0.075 -0.06,-0.06 -0.195,0.015 -0.135,0.06 -0.42,0.15 -0.3,0.105 -0.405,0.09 -0.105,-0.03 -0.21,-0.075 -0.06,-0.015 -0.015,-0.12 0.045,-0.12 0.135,-0.255 0.09,-0.135 0.18,-0.285 0.09,-0.165 0.12,-0.3 0.03,-0.135 0.135,-0.435 0.12,-0.315 0.24,-0.63 0.135,-0.33 0.225,-0.57 0.09,-0.255 0.09,-0.27 0,-0.06 -0.09,-0.105 -0.075,-0.06 -0.15,-0.105 -0.045,-0.015 0.06,-0.12 0.105,-0.105 0.195,-0.225 0.105,-0.15 0.135,-0.24 0.03,-0.09 0.165,-0.045 0.06,0.03 0.24,0.39 0.18,0.36 0.39,0.825 0.225,0.465 0.405,0.9 0.18,0.42 0.225,0.525 z m -1.845,0.195 0.105,-0.24 q 0.06,-0.12 0.105,-0.225 0.045,-0.105 0.06,-0.165 0.09,-0.12 0.105,-0.3 0.015,-0.12 0.06,-0.27 -0.075,0.06 -0.165,0.27 -0.075,0.195 -0.12,0.42 -0.09,0.27 -0.15,0.51 z m 0.765,0.54 q -0.03,-0.105 -0.09,-0.225 -0.06,-0.12 -0.165,-0.09 -0.075,0.03 -0.18,0.03 l -0.12,0 0.555,0.285 z m -1.395,1.62 2.085,-0.075 q -0.18,-0.045 -0.51,-0.03 -0.33,0 -0.69,0.03 -0.435,0.015 -0.885,0.075 z m -0.105,0.12 q -0.06,0.15 -0.09,0.255 -0.105,0.255 -0.18,0.345 -0.06,0.045 -0.105,0.09 -0.045,0.03 -0.06,0.09 -0.045,0.045 -0.045,0.09 0.195,-0.165 0.285,-0.285 0.225,-0.315 0.195,-0.585 z m 4.455,-0.84 q 0.045,0.06 -0.03,-0.15 -0.075,-0.21 -0.225,-0.57 -0.135,-0.36 -0.345,-0.87 -0.195,-0.525 -0.405,-1.065 -0.51,-1.275 -1.2,-2.895 0.585,1.53 1.05,2.73 0.225,0.54 0.42,1.035 0.195,0.495 0.345,0.885 0.15,0.375 0.24,0.63 0.09,0.255 0.15,0.27 z" />
      <path
         id="path41"
         style="text-anchor:middle;fill:#c02800"
         d="m 168.29414,27.86 -9.525,0 0,-18.33 9.525,0 0,18.33 z m -5.505,-9.51 q -0.195,-0.045 -0.63,-0.045 -0.42,0 -0.54,0.045 -0.135,0.045 -0.12,0.105 0.015,0.06 0.06,0.12 0.06,0.045 0.195,0.15 0.135,0.09 0.09,0.165 0,0.09 -0.105,0.15 l -0.09,0.045 q 0,0.075 0.06,0.135 0.015,0.105 0.135,0.15 0.09,0.06 0.345,0.045 0.27,-0.015 0.45,-0.015 l 1.98,0 q 0.105,0 0.165,0.06 0.075,0.045 0.255,-0.015 0.195,-0.015 0.285,-0.15 0.09,-0.15 0.105,-0.315 0.045,-0.165 -0.045,-0.42 -0.075,-0.255 -0.3,-0.33 -0.21,-0.075 -0.42,0.03 -0.21,0.09 -0.27,0.09 l -0.72,0 q -0.3,0 -0.555,0.03 -0.255,0.015 -0.33,-0.03 z" />
      <path
         id="path43"
         style="text-anchor:middle;fill:#c02800"
         d="m 177.29977,27.86 -9.495,0 0,-18.33 9.495,0 0,18.33 z m -2.85,-10.605 q 0.165,-0.06 0.27,-0.315 0.12,-0.27 0.015,-0.555 -0.03,-0.12 -0.195,-0.345 -0.15,-0.225 -0.375,-0.45 -0.225,-0.225 -0.495,-0.42 -0.27,-0.195 -0.63,-0.255 -0.315,-0.06 -0.855,0 -0.525,0.06 -1.02,0.285 -0.48,0.21 -0.84,0.615 -0.345,0.39 -0.345,0.96 0,0.615 0.165,0.975 0.165,0.36 0.39,0.585 0.225,0.21 0.495,0.285 0.27,0.075 0.48,0.135 0.225,0.045 0.555,0.105 0.345,0.045 0.69,0.12 0.36,0.06 0.645,0.15 0.285,0.075 0.42,0.18 0.24,0.21 0.345,0.645 0.105,0.42 -0.03,0.675 -0.105,0.255 -0.525,0.6 -0.42,0.345 -1.155,0.345 -0.36,0 -0.585,-0.03 -0.225,-0.045 -0.36,-0.105 -0.135,-0.075 -0.225,-0.18 -0.09,-0.12 -0.21,-0.24 -0.21,-0.255 -0.3,-0.345 -0.075,-0.105 -0.075,-0.24 0,-0.12 0.075,-0.195 0.09,-0.09 0.03,-0.21 -0.06,-0.15 -0.135,-0.15 -0.075,-0.015 -0.105,-0.075 -0.075,-0.045 -0.12,-0.12 -0.045,-0.075 -0.03,-0.195 0,-0.105 0.06,-0.195 0.015,-0.06 0.015,-0.09 -0.06,0.03 -0.135,0.045 -0.15,0.06 -0.15,0.165 -0.03,0.075 0.03,0.135 0.015,0.03 0.015,0.045 -0.135,-0.045 -0.27,0 -0.09,0.06 -0.195,0.165 -0.09,0.105 -0.09,0.345 0,0.225 0.105,0.54 0.105,0.3 0.315,0.615 0.225,0.3 0.495,0.54 0.27,0.24 0.615,0.39 0.33,0.165 0.75,0.21 0.42,0.03 0.81,0 0.405,-0.045 0.75,-0.165 0.345,-0.135 0.555,-0.3 0.39,-0.345 0.675,-0.855 0.3,-0.51 0.24,-1.05 -0.045,-0.555 -0.33,-0.945 -0.285,-0.39 -0.465,-0.6 -0.21,-0.21 -0.36,-0.3 -0.135,-0.105 -0.195,-0.075 -0.015,0.045 -0.015,0.135 0,0.015 0.015,0.03 -0.165,0.03 -0.285,0 -0.255,0 -0.525,-0.09 -0.21,-0.075 -0.615,-0.135 -0.39,-0.06 -0.645,-0.195 -0.27,-0.12 -0.24,-0.12 0.03,0 -0.12,-0.03 -0.09,-0.03 -0.345,-0.255 -0.255,-0.225 -0.255,-0.54 0,-0.165 0.15,-0.3 0.15,-0.15 0.345,-0.27 0.195,-0.135 0.405,-0.225 0.21,-0.105 0.345,-0.12 0.255,-0.06 0.69,-0.09 0.45,-0.03 0.63,0.105 0.21,0.105 0.405,0.33 0.21,0.225 0.285,0.375 0.06,0.12 0.045,0.24 -0.015,0.12 0.135,0.24 0.105,0.105 0.27,0.105 0.06,0 0.12,-0.045 z m -1.245,0.33 -0.195,-0.105 q -0.165,-0.075 -0.33,-0.12 -0.045,0 -0.225,-0.03 -0.18,-0.045 -0.405,-0.09 -0.21,-0.045 -0.39,-0.12 -0.165,-0.09 -0.21,-0.165 -0.135,-0.21 0.06,-0.345 0.195,-0.15 0.42,-0.15 l 0.6,0 q -0.15,-0.015 -0.315,-0.06 -0.12,-0.015 -0.285,-0.015 -0.165,-0.015 -0.27,-0.015 -0.24,0.015 -0.48,0.24 -0.24,0.225 -0.135,0.51 0.06,0.165 0.21,0.255 0.165,0.075 0.345,0.12 0.18,0.03 0.345,0.045 0.18,0 0.27,0 0.06,0.03 0.225,0.03 0.165,0 0.345,0 0.225,0 0.42,0.015 z m 1.35,-0.12 q 0,0.105 0.09,0.18 0.09,0.06 0.15,0 0.045,-0.06 0.21,-0.24 0.18,-0.18 0.18,-0.39 0,-0.075 -0.015,-0.21 0,-0.15 -0.015,-0.3 -0.045,-0.135 -0.075,-0.3 0.03,0 0.075,-0.03 0.075,-0.075 0.075,-0.075 0,-0.045 -0.12,-0.09 l -0.105,-0.06 q -0.015,-0.015 -0.045,-0.075 -0.06,-0.06 -0.03,-0.12 0.03,-0.06 -0.225,-0.375 -0.255,-0.33 -0.45,-0.45 -0.225,-0.135 -0.675,-0.315 -0.45,-0.195 -0.57,-0.195 l -0.255,0 q -0.075,0 -0.09,-0.015 0.465,0.165 0.87,0.3 0.345,0.15 0.645,0.33 0.3,0.18 0.435,0.345 0.105,0.18 0.15,0.285 0.06,0.105 0.12,0.195 0.045,0.09 0.045,0.135 l 0.03,0.15 0.06,0.12 q 0.06,0.225 0.09,0.405 0.045,0.165 0,0.345 -0.03,0.165 -0.12,0.24 -0.15,0.105 -0.225,0.135 -0.06,0.015 -0.12,0.06 l -0.09,0.015 z m -0.075,0.69 q -0.09,0.03 0.075,0.12 l 0.165,0.105 q 0.24,0.315 0.39,0.645 0.135,0.285 0.21,0.69 0.09,0.39 0.015,0.795 -0.18,0.855 -0.525,1.185 -0.33,0.33 -0.72,0.57 -0.405,0.225 -0.855,0.39 -0.45,0.15 -0.735,0.15 -0.285,0 -0.6,-0.015 -0.3,-0.03 -0.24,0.015 0.015,0 0.315,0.045 0.3,0.03 0.705,0 0.405,-0.03 0.87,-0.15 0.48,-0.12 0.885,-0.405 0.39,-0.285 0.615,-0.69 0.225,-0.405 0.315,-0.81 0.105,-0.405 0.12,-0.75 0.03,-0.345 -0.015,-0.525 -0.03,-0.165 -0.165,-0.42 -0.135,-0.255 -0.3,-0.465 -0.165,-0.21 -0.315,-0.36 -0.135,-0.165 -0.21,-0.12 z m -3.18,1.17 q -0.15,-0.015 -0.45,-0.12 -0.285,-0.105 -0.36,-0.105 -0.06,0 0.03,0.075 0.105,0.075 0.18,0.18 0.105,0.12 0.27,0.57 0.18,0.45 0.36,0.645 0.12,0.105 0.285,0.135 0.165,0.03 0.345,0.03 l 0.45,0 q -0.135,-0.045 -0.255,-0.045 -0.105,0 -0.21,0 -0.105,0 -0.165,-0.015 -0.105,-0.015 -0.24,-0.06 -0.12,-0.06 -0.21,-0.12 -0.075,-0.06 -0.165,-0.315 -0.09,-0.255 -0.135,-0.405 -0.06,-0.12 -0.15,-0.255 -0.03,-0.09 -0.075,-0.105 0.06,0.015 0.165,0.06 0.06,0.015 0.135,0.015 0.09,0 0.12,0 0.075,0 0.165,0.015 0.09,0.015 0.21,0.015 l 0.3,0 q -0.135,-0.03 -0.24,-0.09 -0.105,-0.015 -0.225,-0.045 -0.105,-0.03 -0.135,-0.06 z" />
      <path
         id="path45"
         style="text-anchor:middle;fill:#c02800"
         d="m 186.3068,27.86 -9.51,0 0,-18.33 9.51,0 0,18.33 z m -2.94,-10.14 q 0.12,0.195 0.285,0.21 0.165,0 0.195,-0.045 0.06,-0.06 0.165,-0.36 0.105,-0.315 -0.015,-0.615 -0.09,-0.165 -0.33,-0.42 -0.225,-0.27 -0.51,-0.525 -0.285,-0.27 -0.51,-0.465 -0.225,-0.195 -0.27,-0.24 -0.135,-0.045 -0.15,-0.09 0,-0.06 -0.105,-0.015 -0.105,0.06 -0.33,0.105 -0.225,0.045 -0.345,0.045 -0.09,0 -0.33,0.045 -0.24,0.045 -0.555,0.21 -0.315,0.15 -0.66,0.465 -0.33,0.3 -0.525,0.81 -0.36,0.99 -0.39,2.085 -0.03,1.095 0.54,2.085 0.555,1.005 1.38,1.41 0.84,0.39 1.83,0.105 0.465,-0.165 0.75,-0.51 0.3,-0.345 0.45,-0.735 0.165,-0.405 0.21,-0.735 0.045,-0.33 0.09,-0.45 0.015,-0.225 -0.075,-0.45 -0.09,-0.225 -0.195,-0.225 -0.135,0 -0.27,0.06 -0.135,0.045 -0.165,0.195 -0.045,0.03 -0.075,0.195 -0.015,0.165 -0.06,0.36 -0.03,0.18 -0.075,0.36 -0.045,0.165 -0.06,0.24 -0.06,0.09 -0.21,0.285 -0.135,0.18 -0.36,0.36 -0.225,0.165 -0.54,0.3 -0.3,0.12 -0.615,0.06 -0.66,-0.105 -1.305,-0.9 -0.645,-0.795 -0.69,-2.04 -0.015,-0.615 0.165,-1.065 0.18,-0.45 0.42,-0.765 0.255,-0.315 0.51,-0.495 0.255,-0.18 0.375,-0.24 0.12,-0.045 0.39,-0.03 0.27,0 0.57,0.06 0.315,0.045 0.555,0.135 0.24,0.075 0.3,0.09 0.105,0.105 0.195,0.255 0.09,0.15 0.12,0.285 0.06,0.09 0.09,0.315 0.045,0.21 0.135,0.285 z m 0.63,0.345 q 0.075,0.03 0.18,0.03 0.18,0 0.21,-0.12 0.06,-0.15 0.06,-0.6 0,-0.465 -0.285,-0.99 -0.315,-0.54 -0.72,-0.9 -0.405,-0.375 -0.675,-0.51 -0.12,-0.06 -0.255,-0.105 -0.135,-0.06 -0.225,-0.105 -0.12,-0.06 -0.255,-0.06 0.39,0.165 0.78,0.375 0.3,0.18 0.615,0.465 0.315,0.285 0.51,0.615 0.36,0.705 0.42,1.095 0.06,0.375 -0.015,0.51 -0.165,0.21 -0.225,0.24 -0.06,0.06 -0.12,0.06 z m -3.84,-0.06 q -0.165,0.48 -0.12,0.93 0.045,0.45 0.135,0.78 0.105,0.315 0.21,0.54 0.105,0.225 0.105,0.24 0,0.06 -0.195,-0.465 -0.18,-0.525 -0.12,-1.575 0.03,-0.525 0.225,-0.885 0.21,-0.36 0.435,-0.555 0.3,-0.27 0.615,-0.405 -0.03,-0.03 -0.18,0 -0.135,0.03 -0.345,0.195 -0.21,0.15 -0.435,0.45 -0.21,0.285 -0.33,0.75 z m 4.35,1.74 q 0,0.405 -0.09,0.84 -0.06,0.36 -0.21,0.78 -0.15,0.42 -0.465,0.705 -0.285,0.3 -0.585,0.495 -0.285,0.18 -0.51,0.315 -0.285,0.12 -0.525,0.18 0.42,-0.12 0.81,-0.315 0.345,-0.15 0.66,-0.405 0.315,-0.27 0.525,-0.705 0.225,-0.375 0.285,-0.72 0.06,-0.36 0.105,-0.615 0.015,-0.285 0,-0.555 z" />
      <path
         id="path47"
         style="text-anchor:middle;fill:#c02800"
         d="m 195.25875,27.86 -9.48,0 0,-18.33 9.48,0 0,18.33 z m -4.755,-11.85 q 0.42,0.045 0.735,0.33 0.33,0.27 0.555,0.675 0.225,0.39 0.345,0.87 0.12,0.48 0.12,0.945 0,0.465 -0.135,0.99 -0.12,0.51 -0.36,0.93 -0.24,0.405 -0.555,0.675 -0.315,0.27 -0.66,0.27 -0.36,0 -0.795,-0.15 -0.42,-0.165 -0.795,-0.525 -0.36,-0.375 -0.6,-0.96 -0.24,-0.6 -0.18,-1.47 0.03,-0.87 0.36,-1.38 0.345,-0.525 0.735,-0.795 0.405,-0.285 0.765,-0.36 0.375,-0.075 0.465,-0.045 z m 1.08,-0.465 q -0.36,-0.345 -0.615,-0.48 -0.255,-0.15 -0.135,0.09 0,0.045 -0.33,0.045 -0.315,0 -0.795,0.09 -0.465,0.09 -0.945,0.33 -0.48,0.225 -0.735,0.735 -0.3,0.51 -0.48,1.275 -0.165,0.75 -0.15,1.545 0.03,0.795 0.285,1.515 0.255,0.72 0.825,1.2 0.6,0.465 1.185,0.63 0.585,0.165 1.08,0.09 0.495,-0.09 0.87,-0.39 0.375,-0.3 0.585,-0.675 0.18,-0.39 0.345,-0.885 0.165,-0.51 0.255,-1.02 0.09,-0.525 0.075,-1.005 -0.015,-0.495 -0.105,-0.885 -0.45,-1.47 -1.215,-2.205 z m 2.385,4.47 q -0.06,0.06 -0.06,0.09 0,0.075 0.015,0.12 0.015,0.045 0.09,0.075 l -0.045,-0.285 z m -1.995,-4.905 q -0.345,-0.195 -0.615,-0.33 -0.255,-0.135 -0.465,-0.195 -0.24,-0.075 -0.45,-0.075 l 0.555,0.18 q 0.045,0.015 0.3,0.18 0.27,0.15 0.57,0.375 0.315,0.225 0.585,0.51 0.285,0.285 0.405,0.6 0.12,0.315 0.21,0.735 0.105,0.405 0.165,0.855 0.075,0.45 0.105,0.885 0.03,0.42 -0.03,0.75 -0.105,0.69 -0.3,1.245 -0.18,0.555 -0.78,1.17 -0.315,0.3 -0.645,0.51 -0.315,0.195 -0.585,0.315 -0.33,0.15 -0.615,0.225 0.51,-0.135 0.975,-0.345 0.39,-0.18 0.795,-0.48 0.42,-0.315 0.675,-0.765 0.255,-0.45 0.375,-0.99 0.135,-0.555 0.195,-1.065 0.06,-0.51 0.045,-0.915 0,-0.405 -0.015,-0.615 -0.045,-0.15 -0.15,-0.51 -0.105,-0.375 -0.285,-0.795 -0.18,-0.435 -0.45,-0.825 -0.255,-0.405 -0.57,-0.63 z m -2.205,1.455 q -0.225,0.12 -0.435,0.3 -0.195,0.165 -0.375,0.42 -0.18,0.255 -0.285,0.585 -0.21,0.69 -0.105,1.47 0.105,0.765 0.315,1.215 0.12,0.225 0.3,0.39 0.18,0.165 0.36,0.255 0.195,0.09 0.345,0.135 0.15,0.045 0.195,0.015 0.045,-0.075 -0.12,-0.21 -0.15,-0.15 -0.33,-0.315 -0.09,-0.075 -0.225,-0.18 -0.12,-0.105 -0.255,-0.3 -0.12,-0.195 -0.225,-0.525 -0.09,-0.345 -0.105,-0.915 -0.075,-0.54 0.06,-0.99 0.15,-0.45 0.36,-0.735 0.24,-0.345 0.525,-0.615 z" />
      <path
         id="path49"
         style="text-anchor:middle;fill:#c02800"
         d="m 204.11789,27.86 -9.495,0 0,-18.33 9.495,0 0,18.33 z m -5.715,-8.43 q 0.12,0.06 0.195,0.06 0.09,0 0.27,-0.06 0.075,-0.015 0.6,0.015 0.525,0.03 1.08,-0.105 0.555,-0.135 1.02,-0.525 0.48,-0.39 0.48,-1.275 0,-0.885 -0.285,-1.38 -0.285,-0.495 -0.66,-0.72 -0.36,-0.24 -0.705,-0.285 -0.345,-0.06 -0.495,-0.06 -0.135,0 -0.48,0 -0.33,0 -0.72,0 -0.39,0 -0.705,0 -0.3,0 -0.375,0.03 -0.12,0.03 -0.21,0.165 -0.075,0.135 -0.075,0.27 0,0.045 -0.03,0.255 -0.015,0.195 -0.045,0.465 -0.015,0.27 -0.03,0.54 0,0.27 0,0.525 0,0.225 0,0.57 0.015,0.33 0.045,0.63 0.03,0.3 0.06,0.555 0.045,0.255 0.045,0.33 0,0.12 -0.045,0.375 -0.03,0.255 -0.075,0.57 -0.03,0.315 -0.075,0.615 -0.03,0.3 -0.06,0.42 -0.06,0.27 0.03,0.54 0.09,0.27 0.465,0.48 0.345,0.21 0.435,0.03 0.09,-0.195 0.135,-0.33 0,-0.12 -0.06,-0.285 -0.06,-0.165 -0.105,-0.255 -0.06,-0.06 -0.12,-0.3 -0.045,-0.24 -0.045,-0.465 0,-0.15 0,-0.375 0,-0.24 0.03,-0.51 0,-0.285 0.03,-0.63 0.045,0.015 0.15,0.045 0.06,0.03 0.15,0.06 0.09,0.015 0.18,0.015 z m -0.33,-1.905 q 0,-0.075 -0.015,-0.3 -0.015,-0.225 -0.03,-0.45 0,-0.225 -0.015,-0.42 0,-0.21 0.015,-0.255 0.045,-0.105 0.075,-0.075 0.045,0.015 0.105,0.015 0.09,0 0.255,0.045 0.18,0.03 0.3,0.03 l 0.78,0 q 0.06,0 0.225,0 0.165,-0.015 0.33,-0.015 0.18,0 0.36,0.015 0.18,0 0.285,0.06 0.21,0.12 0.375,0.345 0.18,0.225 0.18,0.825 0,0.285 -0.15,0.495 -0.135,0.195 -0.315,0.36 -0.18,0.165 -0.36,0.255 -0.18,0.075 -0.255,0.075 -0.09,0 -0.33,0 -0.225,0 -0.465,-0.045 -0.285,0 -0.6,-0.015 -0.06,0 -0.135,0.015 -0.045,0.045 -0.135,0.06 -0.075,0 -0.135,0.015 -0.285,0.09 -0.405,-0.09 0,-0.21 0.015,-0.39 0.015,-0.165 0.03,-0.3 0.015,-0.15 0.015,-0.255 z m 0.24,-1.155 q -0.045,0.015 0,0.24 0.06,0.225 0.06,0.345 0,0.135 0.015,0.3 0.03,0.15 -0.015,0.27 -0.06,0.15 -0.075,0.21 -0.03,0.06 -0.03,0.09 0.06,-0.015 0.15,-0.12 0.06,-0.06 0.12,-0.18 0.06,-0.12 0.105,-0.24 0.015,-0.285 -0.09,-0.63 -0.09,-0.36 -0.24,-0.285 z m 1.365,0.135 -0.255,0 q -0.105,0 -0.165,0.03 -0.06,0.015 -0.03,0.03 0.15,0.09 0.33,0.015 0.075,-0.015 0.12,-0.075 z m 0.06,1.65 -0.465,-0.12 q 0.075,0.075 0.18,0.12 0.15,0.09 0.285,0 z m -1.44,1.5 0.105,0.27 q 0.06,0.105 0.09,0.21 0.03,0.09 0.03,0.15 0,0.045 0.015,0.27 0.015,0.21 0.015,0.45 l 0,0.63 0.045,-1.605 1.005,-0.15 q -0.285,0.045 -0.555,0 -0.21,-0.015 -0.435,-0.06 -0.21,-0.045 -0.315,-0.165 z m 4.05,-1.41 q 0.195,-0.435 0.18,-1.02 -0.015,-0.6 -0.18,-1.08 -0.09,-0.225 -0.225,-0.405 -0.12,-0.18 -0.24,-0.315 -0.135,-0.12 -0.33,-0.225 0.06,0.015 0.105,0.075 0.06,0.045 0.105,0.12 0.06,0.075 0.165,0.15 0.225,0.21 0.375,0.66 0.15,0.45 0.15,0.87 0.045,0.405 -0.135,0.945 -0.165,0.54 -0.39,0.825 -0.12,0.12 -0.3,0.255 -0.165,0.135 -0.36,0.225 -0.195,0.105 -0.42,0.255 0.45,-0.06 0.885,-0.495 0.45,-0.435 0.615,-0.84 z" />
      <path
         id="path51"
         style="text-anchor:middle;fill:#c02800"
         d="m 213.18844,27.86 -9.51,0 0,-18.33 9.51,0 0,18.33 z m -3.765,-11.595 q 0.18,0 0.465,0.045 0.3,0.045 0.525,0 0.255,-0.015 0.345,-0.165 0.105,-0.165 0.135,-0.315 0.03,-0.165 -0.105,-0.42 -0.12,-0.255 -0.27,-0.315 -0.105,-0.06 -0.315,-0.015 -0.21,0.03 -0.33,0.105 -0.09,0.045 -0.27,0.075 -0.18,0.03 -0.375,0.06 -0.195,0.03 -0.405,0.045 -0.195,0.015 -0.3,0.015 -0.105,0 -0.435,-0.015 -0.315,-0.015 -0.69,-0.03 -0.375,-0.015 -0.69,0 -0.315,0.015 -0.42,0.06 -0.105,0.075 -0.18,0.33 -0.06,0.255 -0.105,0.585 -0.03,0.315 -0.045,0.615 -0.015,0.285 -0.015,0.45 0,0.165 0.03,0.435 0.03,0.255 0.045,0.495 0.03,0.24 0.045,0.45 0.015,0.21 -0.015,0.285 -0.03,0.12 -0.09,0.435 -0.06,0.3 -0.06,0.57 0,0.12 0.015,0.465 0.03,0.345 0.06,0.72 0.045,0.36 0.075,0.675 0.03,0.3 0.03,0.315 0,0.075 0.105,0.27 0.105,0.195 0.27,0.24 0.075,0 0.495,0.015 0.435,0 0.945,0 0.525,0 0.96,0 0.45,0 0.51,0 0.075,0 0.255,0.045 0.195,0.045 0.39,0.09 0.21,0.03 0.36,0.06 0.15,0.015 0.24,0.015 0.135,0 0.36,-0.15 0.24,-0.165 0.27,-0.345 0,-0.18 -0.06,-0.465 -0.045,-0.3 -0.255,-0.345 -0.18,-0.06 -0.615,0.105 -0.435,0.165 -0.69,0.195 -0.12,0.045 -0.45,0.015 -0.315,-0.03 -0.675,-0.075 -0.36,-0.045 -0.66,-0.075 -0.3,-0.03 -0.39,-0.03 -0.12,0 -0.375,0.075 -0.24,0.06 -0.33,-0.015 -0.105,-0.06 -0.045,-0.24 0.06,-0.195 0.06,-0.255 0,-0.045 -0.015,-0.18 0,-0.15 -0.06,-0.3 -0.03,-0.03 -0.045,-0.27 0,-0.255 0.015,-0.495 0.03,-0.255 0.06,-0.465 0.03,-0.21 0.09,-0.225 0.075,-0.075 0.24,-0.03 0.165,0.045 0.285,-0.015 0.045,0 0.27,-0.015 0.225,-0.015 0.48,-0.015 0.255,0 0.465,0 0.225,0 0.315,0.03 0.12,0.06 0.21,0.105 0.09,0.03 0.375,-0.03 0.315,-0.03 0.375,-0.21 0.06,-0.18 0.075,-0.465 0.045,-0.3 -0.15,-0.36 -0.195,-0.075 -0.33,-0.15 -0.165,-0.03 -0.42,0.075 -0.255,0.09 -0.405,0.12 -0.075,0 -0.255,0 -0.165,0 -0.345,-0.015 -0.165,-0.03 -0.33,-0.045 -0.15,-0.03 -0.225,-0.03 -0.09,0.045 -0.225,0.045 -0.12,0 -0.27,0.015 -0.12,0.03 -0.285,0.03 l 0,-0.975 q 0,-0.375 0,-0.69 0,-0.33 0.03,-0.42 0.69,-0.015 1.275,-0.06 0.495,-0.015 0.93,-0.03 0.435,-0.015 0.54,-0.015 z m -0.975,0.39 -1.425,0 q -0.03,0.225 -0.03,0.405 l 0,0.51 q 0,0.21 -0.015,0.27 -0.045,0.075 -0.06,0.135 0.405,0 0.705,-0.015 0.285,-0.045 0.495,-0.045 0.225,0 0.285,-0.015 0.015,0 -0.12,0 -0.12,0 -0.3,-0.03 -0.165,-0.03 -0.345,-0.06 -0.165,-0.03 -0.195,-0.18 -0.075,-0.24 -0.09,-0.465 -0.015,-0.24 0.075,-0.285 0.045,-0.045 0.195,-0.06 0.165,-0.015 0.345,-0.075 0.21,-0.045 0.48,-0.09 z m 0.795,1.23 0.42,0.285 q -0.12,-0.15 -0.24,-0.21 -0.105,-0.06 -0.18,-0.075 z m -1.875,1.995 q 0.015,0 0.18,-0.015 0.18,-0.015 0.375,-0.045 0.21,-0.03 0.345,-0.03 0.15,-0.015 0.135,-0.015 -0.075,-0.06 -0.27,-0.03 -0.18,0.015 -0.375,0.045 -0.195,0.03 -0.315,0.075 -0.105,0.03 -0.075,0.015 z m -0.375,-0.18 q 0,0.075 0.015,0.315 0.015,0.225 0.045,0.51 0.03,0.33 0.045,0.69 l 0.33,-0.06 q -0.06,0.09 -0.09,0.09 -0.06,0 -0.075,-0.075 0,-0.075 -0.015,-0.33 -0.045,-0.27 -0.075,-0.465 -0.015,-0.21 -0.075,-0.375 -0.045,-0.15 -0.105,-0.3 z" />
    </g>
    <g
       id="text10"
       style="">
      <path
         id="path54"
         style=""
         d="m 34.27,374.86 -9.51,0 0,-18.33 9.51,0 0,18.33 z m -2.115,-12.465 q 0.06,-0.225 -0.105,-0.39 -0.15,-0.18 -0.195,-0.27 -0.075,-0.075 -0.075,-0.12 l 0,-0.075 -0.105,0.03 q -0.105,0.06 -0.105,0.135 -0.06,0.03 -0.24,0.225 -0.165,0.18 -0.255,0.315 -0.045,0.09 -0.195,0.33 -0.135,0.24 -0.315,0.555 -0.18,0.3 -0.36,0.585 -0.165,0.285 -0.255,0.435 -0.18,0.285 -0.345,0.51 -0.165,0.225 -0.195,0.345 l -0.09,0.165 q 0,-0.015 -0.015,-0.06 -0.045,-0.015 -0.09,-0.12 -0.075,-0.06 -0.21,-0.195 -0.12,-0.15 -0.045,-0.195 0.06,-0.06 0.105,-0.03 0.045,0.03 0.075,-0.09 0.015,-0.105 -0.06,-0.21 -0.06,-0.12 -0.195,-0.24 -0.075,-0.105 -0.285,-0.3 -0.195,-0.195 -0.36,-0.48 -0.12,-0.27 -0.3,-0.63 -0.165,-0.375 -0.24,-0.54 -0.03,-0.15 -0.075,-0.195 -0.045,-0.045 -0.12,-0.12 -0.09,-0.06 -0.09,-0.03 l 0,0.06 q -0.195,0.09 -0.345,0.195 -0.285,0.225 -0.225,0.525 0.03,0.15 0.195,0.42 0.18,0.255 0.405,0.54 0.225,0.27 0.42,0.54 0.195,0.255 0.315,0.42 0.24,0.3 0.54,0.645 0.315,0.33 0.36,0.405 l 0.075,0.12 q -0.015,0.06 -0.075,0.165 -0.06,0.135 -0.15,0.225 -0.06,0.06 -0.21,0.255 -0.15,0.195 -0.24,0.27 -0.06,0.03 -0.21,0.21 -0.135,0.18 -0.315,0.405 -0.18,0.225 -0.345,0.45 -0.165,0.225 -0.255,0.345 -0.135,0.225 -0.3,0.45 -0.165,0.21 -0.12,0.42 0.015,0.195 0.255,0.36 0.255,0.15 0.48,-0.075 0.195,-0.225 0.27,-0.525 0.09,-0.3 0.405,-0.705 0.345,-0.435 0.57,-0.72 0.225,-0.285 0.285,-0.405 0.015,-0.12 0.03,-0.135 0.015,-0.015 -0.12,-0.075 -0.24,-0.03 -0.15,-0.165 0.06,-0.03 0.12,-0.15 0.06,-0.135 0.135,-0.15 0.045,0 0.075,-0.03 0.045,-0.045 0.12,-0.12 0.03,-0.03 0.12,-0.09 l 0,0.225 q 0,0.24 0.06,0.315 0.015,0.075 0.15,0.285 0.135,0.21 0.3,0.465 0.165,0.24 0.315,0.48 0.15,0.225 0.24,0.345 0.18,0.225 0.33,0.48 0.15,0.255 0.24,0.39 0.075,0.135 0.15,0.255 0.09,0.12 0.195,0.18 0.105,0.075 0.255,0.075 0.165,0 0.3,-0.135 0.285,-0.18 0.24,-0.48 -0.06,-0.15 -0.39,-0.42 -0.33,-0.285 -0.525,-0.57 -0.105,-0.12 -0.315,-0.39 -0.195,-0.285 -0.42,-0.555 -0.21,-0.27 -0.375,-0.51 -0.165,-0.255 -0.21,-0.3 l -0.09,-0.135 q 0.03,-0.03 0.06,-0.09 0.015,-0.015 0.015,-0.03 0.015,-0.03 0.09,-0.06 0.015,-0.015 0.045,-0.015 0.03,-0.015 0.045,-0.06 0.03,-0.015 0.06,-0.015 -0.03,-0.03 -0.075,-0.06 -0.105,-0.045 -0.165,0 -0.045,0.06 -0.165,0.12 -0.045,0.015 -0.06,0.015 l -0.12,-0.135 q 0.06,-0.03 0.135,-0.105 0.045,-0.045 0.12,-0.12 0.09,-0.075 0.18,-0.15 0.075,-0.06 0.21,-0.255 0.135,-0.195 0.255,-0.42 0.135,-0.225 0.24,-0.42 0.12,-0.195 0.21,-0.3 0.135,-0.195 0.45,-0.495 0.33,-0.315 0.42,-0.42 0.195,-0.225 0.225,-0.405 z m 0.06,0.495 q -0.465,0.63 -0.81,1.11 -0.33,0.45 -0.57,0.855 -0.24,0.405 -0.315,0.435 -0.075,0.15 -0.015,0.285 0.06,0.12 0.105,0.21 0.045,0.06 0.225,0.315 0.195,0.255 0.405,0.555 0.225,0.3 0.375,0.525 0.165,0.225 0.135,0.135 -0.06,-0.075 -0.195,-0.27 -0.135,-0.195 -0.285,-0.405 -0.135,-0.21 -0.255,-0.39 -0.12,-0.195 -0.12,-0.255 -0.045,-0.105 -0.075,-0.21 -0.03,-0.12 -0.075,-0.165 l -0.09,-0.105 q -0.045,-0.03 -0.06,-0.03 l 1.62,-2.595 z m -3.06,0.93 q 0,0.06 0.045,-0.105 0.06,-0.18 0.015,-0.24 -0.015,-0.015 -0.15,-0.24 -0.135,-0.225 -0.3,-0.495 -0.18,-0.285 -0.45,-0.66 0.27,0.375 0.45,0.675 0.165,0.315 0.3,0.6 0.135,0.285 0.09,0.465 z m 0,3.525 q -0.285,0.51 -0.555,0.9 -0.195,0.345 -0.42,0.645 -0.225,0.285 -0.285,0.345 -0.12,0.105 -0.225,0.105 -0.06,0 -0.105,-0.015 l -0.21,0.3 q 0.09,-0.015 0.21,-0.03 0.18,-0.06 0.24,-0.15 0.045,-0.015 0.27,-0.315 0.225,-0.315 0.465,-0.66 0.255,-0.345 0.45,-0.675 0.21,-0.345 0.165,-0.45 z m 3,2.1 q 0,-0.015 -0.015,-0.015 -0.015,0 -0.045,0.06 l -0.06,0.105 q 0.03,0.015 0.06,0.015 0.03,0 0.06,-0.165 z" />
      <path
         id="path56"
         style=""
         d="m 43.292031,374.86 -9.51,0 0,-18.33 9.51,0 0,18.33 z" />
      <path
         id="path58"
         style=""
         d="m 52.299766,374.86 -9.495,0 0,-18.33 9.495,0 0,18.33 z m -2.85,-10.605 q 0.165,-0.06 0.27,-0.315 0.12,-0.27 0.015,-0.555 -0.03,-0.12 -0.195,-0.345 -0.15,-0.225 -0.375,-0.45 -0.225,-0.225 -0.495,-0.42 -0.27,-0.195 -0.63,-0.255 -0.315,-0.06 -0.855,0 -0.525,0.06 -1.02,0.285 -0.48,0.21 -0.84,0.615 -0.345,0.39 -0.345,0.96 0,0.615 0.165,0.975 0.165,0.36 0.39,0.585 0.225,0.21 0.495,0.285 0.27,0.075 0.48,0.135 0.225,0.045 0.555,0.105 0.345,0.045 0.69,0.12 0.36,0.06 0.645,0.15 0.285,0.075 0.42,0.18 0.24,0.21 0.345,0.645 0.105,0.42 -0.03,0.675 -0.105,0.255 -0.525,0.6 -0.42,0.345 -1.155,0.345 -0.36,0 -0.585,-0.03 -0.225,-0.045 -0.36,-0.105 -0.135,-0.075 -0.225,-0.18 -0.09,-0.12 -0.21,-0.24 -0.21,-0.255 -0.3,-0.345 -0.075,-0.105 -0.075,-0.24 0,-0.12 0.075,-0.195 0.09,-0.09 0.03,-0.21 -0.06,-0.15 -0.135,-0.15 -0.075,-0.015 -0.105,-0.075 -0.075,-0.045 -0.12,-0.12 -0.045,-0.075 -0.03,-0.195 0,-0.105 0.06,-0.195 0.015,-0.06 0.015,-0.09 -0.06,0.03 -0.135,0.045 -0.15,0.06 -0.15,0.165 -0.03,0.075 0.03,0.135 0.015,0.03 0.015,0.045 -0.135,-0.045 -0.27,0 -0.09,0.06 -0.195,0.165 -0.09,0.105 -0.09,0.345 0,0.225 0.105,0.54 0.105,0.3 0.315,0.615 0.225,0.3 0.495,0.54 0.27,0.24 0.615,0.39 0.33,0.165 0.75,0.21 0.42,0.03 0.81,0 0.405,-0.045 0.75,-0.165 0.345,-0.135 0.555,-0.3 0.39,-0.345 0.675,-0.855 0.3,-0.51 0.24,-1.05 -0.045,-0.555 -0.33,-0.945 -0.285,-0.39 -0.465,-0.6 -0.21,-0.21 -0.36,-0.3 -0.135,-0.105 -0.195,-0.075 -0.015,0.045 -0.015,0.135 0,0.015 0.015,0.03 -0.165,0.03 -0.285,0 -0.255,0 -0.525,-0.09 -0.21,-0.075 -0.615,-0.135 -0.39,-0.06 -0.645,-0.195 -0.27,-0.12 -0.24,-0.12 0.03,0 -0.12,-0.03 -0.09,-0.03 -0.345,-0.255 -0.255,-0.225 -0.255,-0.54 0,-0.165 0.15,-0.3 0.15,-0.15 0.345,-0.27 0.195,-0.135 0.405,-0.225 0.21,-0.105 0.345,-0.12 0.255,-0.06 0.69,-0.09 0.45,-0.03 0.63,0.105 0.21,0.105 0.405,0.33 0.21,0.225 0.285,0.375 0.06,0.12 0.045,0.24 -0.015,0.12 0.135,0.24 0.105,0.105 0.27,0.105 0.06,0 0.12,-0.045 z m -1.245,0.33 -0.195,-0.105 q -0.165,-0.075 -0.33,-0.12 -0.045,0 -0.225,-0.03 -0.18,-0.045 -0.405,-0.09 -0.21,-0.045 -0.39,-0.12 -0.165,-0.09 -0.21,-0.165 -0.135,-0.21 0.06,-0.345 0.195,-0.15 0.42,-0.15 l 0.6,0 q -0.15,-0.015 -0.315,-0.06 -0.12,-0.015 -0.285,-0.015 -0.165,-0.015 -0.27,-0.015 -0.24,0.015 -0.48,0.24 -0.24,0.225 -0.135,0.51 0.06,0.165 0.21,0.255 0.165,0.075 0.345,0.12 0.18,0.03 0.345,0.045 0.18,0 0.27,0 0.06,0.03 0.225,0.03 0.165,0 0.345,0 0.225,0 0.42,0.015 z m 1.35,-0.12 q 0,0.105 0.09,0.18 0.09,0.06 0.15,0 0.045,-0.06 0.21,-0.24 0.18,-0.18 0.18,-0.39 0,-0.075 -0.015,-0.21 0,-0.15 -0.015,-0.3 -0.045,-0.135 -0.075,-0.3 0.03,0 0.075,-0.03 0.075,-0.075 0.075,-0.075 0,-0.045 -0.12,-0.09 l -0.105,-0.06 q -0.015,-0.015 -0.045,-0.075 -0.06,-0.06 -0.03,-0.12 0.03,-0.06 -0.225,-0.375 -0.255,-0.33 -0.45,-0.45 -0.225,-0.135 -0.675,-0.315 -0.45,-0.195 -0.57,-0.195 l -0.255,0 q -0.075,0 -0.09,-0.015 0.465,0.165 0.87,0.3 0.345,0.15 0.645,0.33 0.3,0.18 0.435,0.345 0.105,0.18 0.15,0.285 0.06,0.105 0.12,0.195 0.045,0.09 0.045,0.135 l 0.03,0.15 0.06,0.12 q 0.06,0.225 0.09,0.405 0.045,0.165 0,0.345 -0.03,0.165 -0.12,0.24 -0.15,0.105 -0.225,0.135 -0.06,0.015 -0.12,0.06 l -0.09,0.015 z m -0.075,0.69 q -0.09,0.03 0.075,0.12 l 0.165,0.105 q 0.24,0.315 0.39,0.645 0.135,0.285 0.21,0.69 0.09,0.39 0.015,0.795 -0.18,0.855 -0.525,1.185 -0.33,0.33 -0.72,0.57 -0.405,0.225 -0.855,0.39 -0.45,0.15 -0.735,0.15 -0.285,0 -0.6,-0.015 -0.3,-0.03 -0.24,0.015 0.015,0 0.315,0.045 0.3,0.03 0.705,0 0.405,-0.03 0.87,-0.15 0.48,-0.12 0.885,-0.405 0.39,-0.285 0.615,-0.69 0.225,-0.405 0.315,-0.81 0.105,-0.405 0.12,-0.75 0.03,-0.345 -0.015,-0.525 -0.03,-0.165 -0.165,-0.42 -0.135,-0.255 -0.3,-0.465 -0.165,-0.21 -0.315,-0.36 -0.135,-0.165 -0.21,-0.12 z m -3.18,1.17 q -0.15,-0.015 -0.45,-0.12 -0.285,-0.105 -0.36,-0.105 -0.06,0 0.03,0.075 0.105,0.075 0.18,0.18 0.105,0.12 0.27,0.57 0.18,0.45 0.36,0.645 0.12,0.105 0.285,0.135 0.165,0.03 0.345,0.03 l 0.45,0 q -0.135,-0.045 -0.255,-0.045 -0.105,0 -0.21,0 -0.105,0 -0.165,-0.015 -0.105,-0.015 -0.24,-0.06 -0.12,-0.06 -0.21,-0.12 -0.075,-0.06 -0.165,-0.315 -0.09,-0.255 -0.135,-0.405 -0.06,-0.12 -0.15,-0.255 -0.03,-0.09 -0.075,-0.105 0.06,0.015 0.165,0.06 0.06,0.015 0.135,0.015 0.09,0 0.12,0 0.075,0 0.165,0.015 0.09,0.015 0.21,0.015 l 0.3,0 q -0.135,-0.03 -0.24,-0.09 -0.105,-0.015 -0.225,-0.045 -0.105,-0.03 -0.135,-0.06 z" />
      <path
         id="path60"
         style=""
         d="m 61.306797,374.86 -9.51,0 0,-18.33 9.51,0 0,18.33 z m -2.94,-10.14 q 0.12,0.195 0.285,0.21 0.165,0 0.195,-0.045 0.06,-0.06 0.165,-0.36 0.105,-0.315 -0.015,-0.615 -0.09,-0.165 -0.33,-0.42 -0.225,-0.27 -0.51,-0.525 -0.285,-0.27 -0.51,-0.465 -0.225,-0.195 -0.27,-0.24 -0.135,-0.045 -0.15,-0.09 0,-0.06 -0.105,-0.015 -0.105,0.06 -0.33,0.105 -0.225,0.045 -0.345,0.045 -0.09,0 -0.33,0.045 -0.24,0.045 -0.555,0.21 -0.315,0.15 -0.66,0.465 -0.33,0.3 -0.525,0.81 -0.36,0.99 -0.39,2.085 -0.03,1.095 0.54,2.085 0.555,1.005 1.38,1.41 0.84,0.39 1.83,0.105 0.465,-0.165 0.75,-0.51 0.3,-0.345 0.45,-0.735 0.165,-0.405 0.21,-0.735 0.045,-0.33 0.09,-0.45 0.015,-0.225 -0.075,-0.45 -0.09,-0.225 -0.195,-0.225 -0.135,0 -0.27,0.06 -0.135,0.045 -0.165,0.195 -0.045,0.03 -0.075,0.195 -0.015,0.165 -0.06,0.36 -0.03,0.18 -0.075,0.36 -0.045,0.165 -0.06,0.24 -0.06,0.09 -0.21,0.285 -0.135,0.18 -0.36,0.36 -0.225,0.165 -0.54,0.3 -0.3,0.12 -0.615,0.06 -0.66,-0.105 -1.305,-0.9 -0.645,-0.795 -0.69,-2.04 -0.015,-0.615 0.165,-1.065 0.18,-0.45 0.42,-0.765 0.255,-0.315 0.51,-0.495 0.255,-0.18 0.375,-0.24 0.12,-0.045 0.39,-0.03 0.27,0 0.57,0.06 0.315,0.045 0.555,0.135 0.24,0.075 0.3,0.09 0.105,0.105 0.195,0.255 0.09,0.15 0.12,0.285 0.06,0.09 0.09,0.315 0.045,0.21 0.135,0.285 z m 0.63,0.345 q 0.075,0.03 0.18,0.03 0.18,0 0.21,-0.12 0.06,-0.15 0.06,-0.6 0,-0.465 -0.285,-0.99 -0.315,-0.54 -0.72,-0.9 -0.405,-0.375 -0.675,-0.51 -0.12,-0.06 -0.255,-0.105 -0.135,-0.06 -0.225,-0.105 -0.12,-0.06 -0.255,-0.06 0.39,0.165 0.78,0.375 0.3,0.18 0.615,0.465 0.315,0.285 0.51,0.615 0.36,0.705 0.42,1.095 0.06,0.375 -0.015,0.51 -0.165,0.21 -0.225,0.24 -0.06,0.06 -0.12,0.06 z m -3.84,-0.06 q -0.165,0.48 -0.12,0.93 0.045,0.45 0.135,0.78 0.105,0.315 0.21,0.54 0.105,0.225 0.105,0.24 0,0.06 -0.195,-0.465 -0.18,-0.525 -0.12,-1.575 0.03,-0.525 0.225,-0.885 0.21,-0.36 0.435,-0.555 0.3,-0.27 0.615,-0.405 -0.03,-0.03 -0.18,0 -0.135,0.03 -0.345,0.195 -0.21,0.15 -0.435,0.45 -0.21,0.285 -0.33,0.75 z m 4.35,1.74 q 0,0.405 -0.09,0.84 -0.06,0.36 -0.21,0.78 -0.15,0.42 -0.465,0.705 -0.285,0.3 -0.585,0.495 -0.285,0.18 -0.51,0.315 -0.285,0.12 -0.525,0.18 0.42,-0.12 0.81,-0.315 0.345,-0.15 0.66,-0.405 0.315,-0.27 0.525,-0.705 0.225,-0.375 0.285,-0.72 0.06,-0.36 0.105,-0.615 0.015,-0.285 0,-0.555 z" />
      <path
         id="path62"
         style=""
         d="m 70.01875,374.86 -9.465,0 0,-18.33 9.465,0 0,18.33 z m -7.17,-5.265 q 0.09,0.03 0.195,0.105 0.12,0.075 0.24,-0.135 0.12,-0.18 0.195,-0.45 0.09,-0.285 0.105,-0.405 0.045,-0.15 0,-0.255 -0.03,-0.12 0.09,-0.15 0.135,-0.03 0.195,0.105 0.075,0.135 0.255,0.135 0.165,0 0.375,-0.075 0.21,-0.09 0.69,-0.09 0.495,0 0.705,0.045 0.225,0.045 0.405,-0.06 0.18,-0.09 0.345,-0.21 0.18,-0.12 0.255,-0.06 0.015,0.015 0.09,0.15 0.09,0.12 0.15,0.255 0.075,0.12 0.135,0.27 0.075,0.15 0.075,0.225 0.045,0.15 0.135,0.39 0.09,0.24 0.375,0.27 0.3,0.06 0.39,-0.03 0.105,-0.09 0.135,-0.33 0.075,-0.195 -0.12,-0.36 -0.195,-0.18 -0.27,-0.375 -0.045,-0.09 -0.195,-0.45 -0.135,-0.36 -0.315,-0.78 -0.18,-0.435 -0.345,-0.855 -0.15,-0.435 -0.24,-0.66 -0.075,-0.255 -0.24,-0.63 -0.15,-0.39 -0.315,-0.75 -0.15,-0.375 -0.285,-0.675 -0.12,-0.315 -0.15,-0.405 -0.045,-0.075 -0.06,-0.255 -0.015,-0.18 -0.06,-0.375 -0.045,-0.195 -0.105,-0.375 -0.045,-0.18 -0.135,-0.27 -0.09,-0.075 -0.195,0 -0.105,0.075 -0.195,0.195 -0.09,0.105 -0.165,0.24 -0.06,0.12 -0.09,0.21 -0.015,0.18 0.045,0.315 0.06,0.135 0.06,0.24 0,0.09 -0.09,0.225 -0.09,0.12 -0.15,0.285 -0.06,0.135 -0.09,0.27 -0.015,0.12 -0.015,0.225 0,0.12 -0.27,0.645 -0.27,0.525 -0.465,1.095 -0.18,0.525 -0.195,0.72 -0.015,0.195 -0.06,0.345 -0.015,0.12 -0.105,0.375 -0.075,0.255 -0.21,0.465 -0.06,0.15 -0.21,0.39 -0.135,0.24 -0.255,0.525 -0.12,0.27 -0.15,0.495 -0.03,0.225 0.105,0.255 z m 3.735,-3.12 q 0.135,0.255 0.165,0.525 0.045,0.255 -0.015,0.465 -0.015,0.09 -0.12,0.105 -0.105,0.015 -0.27,-0.015 -0.15,-0.03 -0.33,-0.075 -0.165,-0.045 -0.27,-0.045 -0.45,0 -0.615,-0.075 -0.06,-0.06 -0.195,0.015 -0.135,0.06 -0.42,0.15 -0.3,0.105 -0.405,0.09 -0.105,-0.03 -0.21,-0.075 -0.06,-0.015 -0.015,-0.12 0.045,-0.12 0.135,-0.255 0.09,-0.135 0.18,-0.285 0.09,-0.165 0.12,-0.3 0.03,-0.135 0.135,-0.435 0.12,-0.315 0.24,-0.63 0.135,-0.33 0.225,-0.57 0.09,-0.255 0.09,-0.27 0,-0.06 -0.09,-0.105 -0.075,-0.06 -0.15,-0.105 -0.045,-0.015 0.06,-0.12 0.105,-0.105 0.195,-0.225 0.105,-0.15 0.135,-0.24 0.03,-0.09 0.165,-0.045 0.06,0.03 0.24,0.39 0.18,0.36 0.39,0.825 0.225,0.465 0.405,0.9 0.18,0.42 0.225,0.525 z m -1.845,0.195 0.105,-0.24 q 0.06,-0.12 0.105,-0.225 0.045,-0.105 0.06,-0.165 0.09,-0.12 0.105,-0.3 0.015,-0.12 0.06,-0.27 -0.075,0.06 -0.165,0.27 -0.075,0.195 -0.12,0.42 -0.09,0.27 -0.15,0.51 z m 0.765,0.54 q -0.03,-0.105 -0.09,-0.225 -0.06,-0.12 -0.165,-0.09 -0.075,0.03 -0.18,0.03 l -0.12,0 0.555,0.285 z m -1.395,1.62 2.085,-0.075 q -0.18,-0.045 -0.51,-0.03 -0.33,0 -0.69,0.03 -0.435,0.015 -0.885,0.075 z m -0.105,0.12 q -0.06,0.15 -0.09,0.255 -0.105,0.255 -0.18,0.345 -0.06,0.045 -0.105,0.09 -0.045,0.03 -0.06,0.09 -0.045,0.045 -0.045,0.09 0.195,-0.165 0.285,-0.285 0.225,-0.315 0.195,-0.585 z m 4.455,-0.84 q 0.045,0.06 -0.03,-0.15 -0.075,-0.21 -0.225,-0.57 -0.135,-0.36 -0.345,-0.87 -0.195,-0.525 -0.405,-1.065 -0.51,-1.275 -1.2,-2.895 0.585,1.53 1.05,2.73 0.225,0.54 0.42,1.035 0.195,0.495 0.345,0.885 0.15,0.375 0.24,0.63 0.09,0.255 0.15,0.27 z" />
      <path
         id="path64"
         style=""
         d="m 78.721328,374.86 -9.48,0 0,-18.33 9.48,0 0,18.33 z m -6.375,-12.855 q -0.21,-0.075 -0.39,0.075 -0.165,0.135 -0.21,0.24 -0.06,0.135 0.015,0.3 0.09,0.165 0.09,0.225 0,0.015 -0.015,0.435 0,0.405 -0.03,0.915 -0.015,0.495 -0.015,0.975 0,0.465 0,0.63 0,0.15 0.03,0.69 0.03,0.54 0.075,1.125 0.045,0.585 0.075,1.065 0.045,0.48 0.06,0.555 0.045,0.12 0.27,0.21 0.225,0.075 0.285,0.075 0.03,0 0.525,0.015 0.495,0.015 1.095,0.03 0.6,0 1.095,0.03 0.495,0.015 0.54,0.015 0.105,0 0.195,0.045 0.09,0.045 0.24,0.045 0.12,0 0.315,-0.09 0.21,-0.105 0.255,-0.36 0.06,-0.255 -0.075,-0.495 -0.135,-0.24 -0.33,-0.24 -0.195,0 -0.6,0.105 -0.405,0.105 -0.57,0.105 l -2.25,0 q -0.09,0 -0.27,0.015 -0.165,0 -0.165,-0.075 0,-0.06 -0.045,-0.45 -0.03,-0.405 -0.03,-0.57 0,-0.015 0,-0.24 0,-0.225 -0.015,-0.57 -0.015,-0.36 -0.015,-0.765 0,-0.405 0,-0.81 l 0,-2.295 q 0.165,-0.105 0.12,-0.48 -0.03,-0.375 -0.255,-0.48 z m 0.63,0.45 q -0.015,1.53 -0.015,2.745 0,0.525 0,1.02 0,0.48 0,0.87 0.015,0.39 0.03,0.645 0.03,0.24 0.045,0.24 l 0.09,0.03 -0.15,-5.55 z m 2.97,7.56 -2.145,-0.03 q 0.105,0.075 0.45,0.075 0.345,0 0.735,0 0.45,0 0.96,-0.045 z m 1.185,-0.825 q -0.045,0.165 -0.12,0.27 -0.06,0.105 -0.135,0.195 -0.06,0.09 -0.135,0.135 -0.105,0.045 -0.285,0.045 -0.09,0 -0.15,-0.03 0.225,0.105 0.39,0.09 0.12,-0.03 0.255,-0.15 0.135,-0.135 0.18,-0.555 z" />
      <path
         id="path66"
         style=""
         d="m 87.573203,374.86 -9.51,0 0,-18.33 9.51,0 0,18.33 z m -3.765,-11.595 q 0.18,0 0.465,0.045 0.3,0.045 0.525,0 0.255,-0.015 0.345,-0.165 0.105,-0.165 0.135,-0.315 0.03,-0.165 -0.105,-0.42 -0.12,-0.255 -0.27,-0.315 -0.105,-0.06 -0.315,-0.015 -0.21,0.03 -0.33,0.105 -0.09,0.045 -0.27,0.075 -0.18,0.03 -0.375,0.06 -0.195,0.03 -0.405,0.045 -0.195,0.015 -0.3,0.015 -0.105,0 -0.435,-0.015 -0.315,-0.015 -0.69,-0.03 -0.375,-0.015 -0.69,0 -0.315,0.015 -0.42,0.06 -0.105,0.075 -0.18,0.33 -0.06,0.255 -0.105,0.585 -0.03,0.315 -0.045,0.615 -0.015,0.285 -0.015,0.45 0,0.165 0.03,0.435 0.03,0.255 0.045,0.495 0.03,0.24 0.045,0.45 0.015,0.21 -0.015,0.285 -0.03,0.12 -0.09,0.435 -0.06,0.3 -0.06,0.57 0,0.12 0.015,0.465 0.03,0.345 0.06,0.72 0.045,0.36 0.075,0.675 0.03,0.3 0.03,0.315 0,0.075 0.105,0.27 0.105,0.195 0.27,0.24 0.075,0 0.495,0.015 0.435,0 0.945,0 0.525,0 0.96,0 0.45,0 0.51,0 0.075,0 0.255,0.045 0.195,0.045 0.39,0.09 0.21,0.03 0.36,0.06 0.15,0.015 0.24,0.015 0.135,0 0.36,-0.15 0.24,-0.165 0.27,-0.345 0,-0.18 -0.06,-0.465 -0.045,-0.3 -0.255,-0.345 -0.18,-0.06 -0.615,0.105 -0.435,0.165 -0.69,0.195 -0.12,0.045 -0.45,0.015 -0.315,-0.03 -0.675,-0.075 -0.36,-0.045 -0.66,-0.075 -0.3,-0.03 -0.39,-0.03 -0.12,0 -0.375,0.075 -0.24,0.06 -0.33,-0.015 -0.105,-0.06 -0.045,-0.24 0.06,-0.195 0.06,-0.255 0,-0.045 -0.015,-0.18 0,-0.15 -0.06,-0.3 -0.03,-0.03 -0.045,-0.27 0,-0.255 0.015,-0.495 0.03,-0.255 0.06,-0.465 0.03,-0.21 0.09,-0.225 0.075,-0.075 0.24,-0.03 0.165,0.045 0.285,-0.015 0.045,0 0.27,-0.015 0.225,-0.015 0.48,-0.015 0.255,0 0.465,0 0.225,0 0.315,0.03 0.12,0.06 0.21,0.105 0.09,0.03 0.375,-0.03 0.315,-0.03 0.375,-0.21 0.06,-0.18 0.075,-0.465 0.045,-0.3 -0.15,-0.36 -0.195,-0.075 -0.33,-0.15 -0.165,-0.03 -0.42,0.075 -0.255,0.09 -0.405,0.12 -0.075,0 -0.255,0 -0.165,0 -0.345,-0.015 -0.165,-0.03 -0.33,-0.045 -0.15,-0.03 -0.225,-0.03 -0.09,0.045 -0.225,0.045 -0.12,0 -0.27,0.015 -0.12,0.03 -0.285,0.03 l 0,-0.975 q 0,-0.375 0,-0.69 0,-0.33 0.03,-0.42 0.69,-0.015 1.275,-0.06 0.495,-0.015 0.93,-0.03 0.435,-0.015 0.54,-0.015 z m -0.975,0.39 -1.425,0 q -0.03,0.225 -0.03,0.405 l 0,0.51 q 0,0.21 -0.015,0.27 -0.045,0.075 -0.06,0.135 0.405,0 0.705,-0.015 0.285,-0.045 0.495,-0.045 0.225,0 0.285,-0.015 0.015,0 -0.12,0 -0.12,0 -0.3,-0.03 -0.165,-0.03 -0.345,-0.06 -0.165,-0.03 -0.195,-0.18 -0.075,-0.24 -0.09,-0.465 -0.015,-0.24 0.075,-0.285 0.045,-0.045 0.195,-0.06 0.165,-0.015 0.345,-0.075 0.21,-0.045 0.48,-0.09 z m 0.795,1.23 0.42,0.285 q -0.12,-0.15 -0.24,-0.21 -0.105,-0.06 -0.18,-0.075 z m -1.875,1.995 q 0.015,0 0.18,-0.015 0.18,-0.015 0.375,-0.045 0.21,-0.03 0.345,-0.03 0.15,-0.015 0.135,-0.015 -0.075,-0.06 -0.27,-0.03 -0.18,0.015 -0.375,0.045 -0.195,0.03 -0.315,0.075 -0.105,0.03 -0.075,0.015 z m -0.375,-0.18 q 0,0.075 0.015,0.315 0.015,0.225 0.045,0.51 0.03,0.33 0.045,0.69 l 0.33,-0.06 q -0.06,0.09 -0.09,0.09 -0.06,0 -0.075,-0.075 0,-0.075 -0.015,-0.33 -0.045,-0.27 -0.075,-0.465 -0.015,-0.21 -0.075,-0.375 -0.045,-0.15 -0.105,-0.3 z" />
    </g>
    <g
       id="text12"
       style="">
      <path
         id="path69"
         style=""
         d="m 134.225,374.86 -9.465,0 0,-18.33 9.465,0 0,18.33 z m -4.74,-9.78 q -0.105,0.03 -0.15,0.03 -0.045,0 -0.06,-0.15 -0.06,-0.105 -0.06,-0.18 0,-0.075 -0.045,-0.225 -0.045,-0.075 -0.195,-0.255 -0.135,-0.18 -0.315,-0.36 -0.165,-0.195 -0.315,-0.375 -0.135,-0.18 -0.18,-0.255 -0.06,-0.075 -0.12,-0.255 -0.06,-0.195 -0.135,-0.42 -0.06,-0.225 -0.165,-0.405 -0.09,-0.18 -0.165,-0.24 -0.165,-0.135 -0.42,-0.105 -0.24,0.03 -0.3,0.285 -0.015,0.135 0.12,0.45 0.15,0.3 0.375,0.645 0.225,0.345 0.45,0.705 0.24,0.345 0.405,0.54 0.33,0.435 0.6,0.795 0.285,0.36 0.3,0.405 0,0.045 0,0.39 0.015,0.345 0.03,0.765 0.03,0.42 0.03,0.81 0,0.39 0,0.48 0,0.105 -0.03,0.33 -0.03,0.21 -0.03,0.405 0.015,0.195 0.12,0.36 0.12,0.15 0.39,0.15 0.27,0 0.33,-0.15 0.075,-0.165 0.06,-0.36 0,-0.195 -0.06,-0.405 -0.045,-0.225 -0.06,-0.33 -0.045,-0.09 -0.075,-0.39 -0.015,-0.315 -0.03,-0.675 -0.015,-0.375 0,-0.705 0.015,-0.33 0.06,-0.495 0.06,-0.135 0.285,-0.48 0.24,-0.36 0.54,-0.78 0.315,-0.42 0.585,-0.78 0.285,-0.36 0.39,-0.48 0.195,-0.24 0.465,-0.555 0.27,-0.315 0.27,-0.48 0,-0.165 -0.18,-0.3 -0.165,-0.15 -0.225,-0.24 -0.09,-0.075 -0.27,0.045 -0.165,0.12 -0.33,0.375 -0.075,0.12 -0.24,0.39 -0.15,0.255 -0.315,0.54 -0.165,0.27 -0.3,0.51 -0.12,0.225 -0.165,0.345 -0.06,0.06 -0.195,0.255 -0.135,0.18 -0.285,0.36 -0.135,0.165 -0.255,0.315 -0.12,0.15 -0.135,0.15 z m -1.125,-2.73 1.02,1.59 q -0.03,-0.06 -0.18,-0.3 -0.135,-0.255 -0.36,-0.54 -0.225,-0.315 -0.48,-0.75 z m 4.125,0.495 q -0.57,0.81 -1.05,1.485 -0.405,0.6 -0.735,1.05 -0.33,0.45 -0.33,0.51 0,0.045 0,0.525 0,0.48 0.03,1.05 0,0.69 0.045,1.515 -0.075,0.105 -0.105,0.18 -0.09,0.165 -0.15,0.21 l -0.165,0.165 q 0.105,-0.045 0.225,-0.165 0.09,-0.105 0.15,-0.255 0.075,-0.15 0.075,-0.465 0,-0.24 0.015,-0.705 0.03,-0.48 0.03,-0.945 l 0,-1.17 q 0.51,-0.75 0.96,-1.41 0.36,-0.555 0.675,-1.05 0.33,-0.495 0.33,-0.525 z" />
      <path
         id="path71"
         style=""
         d="m 143.32133,374.86 -9.51,0 0,-18.33 9.51,0 0,18.33 z" />
      <path
         id="path73"
         style=""
         d="m 152.32906,374.86 -9.495,0 0,-18.33 9.495,0 0,18.33 z m -2.85,-10.605 q 0.165,-0.06 0.27,-0.315 0.12,-0.27 0.015,-0.555 -0.03,-0.12 -0.195,-0.345 -0.15,-0.225 -0.375,-0.45 -0.225,-0.225 -0.495,-0.42 -0.27,-0.195 -0.63,-0.255 -0.315,-0.06 -0.855,0 -0.525,0.06 -1.02,0.285 -0.48,0.21 -0.84,0.615 -0.345,0.39 -0.345,0.96 0,0.615 0.165,0.975 0.165,0.36 0.39,0.585 0.225,0.21 0.495,0.285 0.27,0.075 0.48,0.135 0.225,0.045 0.555,0.105 0.345,0.045 0.69,0.12 0.36,0.06 0.645,0.15 0.285,0.075 0.42,0.18 0.24,0.21 0.345,0.645 0.105,0.42 -0.03,0.675 -0.105,0.255 -0.525,0.6 -0.42,0.345 -1.155,0.345 -0.36,0 -0.585,-0.03 -0.225,-0.045 -0.36,-0.105 -0.135,-0.075 -0.225,-0.18 -0.09,-0.12 -0.21,-0.24 -0.21,-0.255 -0.3,-0.345 -0.075,-0.105 -0.075,-0.24 0,-0.12 0.075,-0.195 0.09,-0.09 0.03,-0.21 -0.06,-0.15 -0.135,-0.15 -0.075,-0.015 -0.105,-0.075 -0.075,-0.045 -0.12,-0.12 -0.045,-0.075 -0.03,-0.195 0,-0.105 0.06,-0.195 0.015,-0.06 0.015,-0.09 -0.06,0.03 -0.135,0.045 -0.15,0.06 -0.15,0.165 -0.03,0.075 0.03,0.135 0.015,0.03 0.015,0.045 -0.135,-0.045 -0.27,0 -0.09,0.06 -0.195,0.165 -0.09,0.105 -0.09,0.345 0,0.225 0.105,0.54 0.105,0.3 0.315,0.615 0.225,0.3 0.495,0.54 0.27,0.24 0.615,0.39 0.33,0.165 0.75,0.21 0.42,0.03 0.81,0 0.405,-0.045 0.75,-0.165 0.345,-0.135 0.555,-0.3 0.39,-0.345 0.675,-0.855 0.3,-0.51 0.24,-1.05 -0.045,-0.555 -0.33,-0.945 -0.285,-0.39 -0.465,-0.6 -0.21,-0.21 -0.36,-0.3 -0.135,-0.105 -0.195,-0.075 -0.015,0.045 -0.015,0.135 0,0.015 0.015,0.03 -0.165,0.03 -0.285,0 -0.255,0 -0.525,-0.09 -0.21,-0.075 -0.615,-0.135 -0.39,-0.06 -0.645,-0.195 -0.27,-0.12 -0.24,-0.12 0.03,0 -0.12,-0.03 -0.09,-0.03 -0.345,-0.255 -0.255,-0.225 -0.255,-0.54 0,-0.165 0.15,-0.3 0.15,-0.15 0.345,-0.27 0.195,-0.135 0.405,-0.225 0.21,-0.105 0.345,-0.12 0.255,-0.06 0.69,-0.09 0.45,-0.03 0.63,0.105 0.21,0.105 0.405,0.33 0.21,0.225 0.285,0.375 0.06,0.12 0.045,0.24 -0.015,0.12 0.135,0.24 0.105,0.105 0.27,0.105 0.06,0 0.12,-0.045 z m -1.245,0.33 -0.195,-0.105 q -0.165,-0.075 -0.33,-0.12 -0.045,0 -0.225,-0.03 -0.18,-0.045 -0.405,-0.09 -0.21,-0.045 -0.39,-0.12 -0.165,-0.09 -0.21,-0.165 -0.135,-0.21 0.06,-0.345 0.195,-0.15 0.42,-0.15 l 0.6,0 q -0.15,-0.015 -0.315,-0.06 -0.12,-0.015 -0.285,-0.015 -0.165,-0.015 -0.27,-0.015 -0.24,0.015 -0.48,0.24 -0.24,0.225 -0.135,0.51 0.06,0.165 0.21,0.255 0.165,0.075 0.345,0.12 0.18,0.03 0.345,0.045 0.18,0 0.27,0 0.06,0.03 0.225,0.03 0.165,0 0.345,0 0.225,0 0.42,0.015 z m 1.35,-0.12 q 0,0.105 0.09,0.18 0.09,0.06 0.15,0 0.045,-0.06 0.21,-0.24 0.18,-0.18 0.18,-0.39 0,-0.075 -0.015,-0.21 0,-0.15 -0.015,-0.3 -0.045,-0.135 -0.075,-0.3 0.03,0 0.075,-0.03 0.075,-0.075 0.075,-0.075 0,-0.045 -0.12,-0.09 l -0.105,-0.06 q -0.015,-0.015 -0.045,-0.075 -0.06,-0.06 -0.03,-0.12 0.03,-0.06 -0.225,-0.375 -0.255,-0.33 -0.45,-0.45 -0.225,-0.135 -0.675,-0.315 -0.45,-0.195 -0.57,-0.195 l -0.255,0 q -0.075,0 -0.09,-0.015 0.465,0.165 0.87,0.3 0.345,0.15 0.645,0.33 0.3,0.18 0.435,0.345 0.105,0.18 0.15,0.285 0.06,0.105 0.12,0.195 0.045,0.09 0.045,0.135 l 0.03,0.15 0.06,0.12 q 0.06,0.225 0.09,0.405 0.045,0.165 0,0.345 -0.03,0.165 -0.12,0.24 -0.15,0.105 -0.225,0.135 -0.06,0.015 -0.12,0.06 l -0.09,0.015 z m -0.075,0.69 q -0.09,0.03 0.075,0.12 l 0.165,0.105 q 0.24,0.315 0.39,0.645 0.135,0.285 0.21,0.69 0.09,0.39 0.015,0.795 -0.18,0.855 -0.525,1.185 -0.33,0.33 -0.72,0.57 -0.405,0.225 -0.855,0.39 -0.45,0.15 -0.735,0.15 -0.285,0 -0.6,-0.015 -0.3,-0.03 -0.24,0.015 0.015,0 0.315,0.045 0.3,0.03 0.705,0 0.405,-0.03 0.87,-0.15 0.48,-0.12 0.885,-0.405 0.39,-0.285 0.615,-0.69 0.225,-0.405 0.315,-0.81 0.105,-0.405 0.12,-0.75 0.03,-0.345 -0.015,-0.525 -0.03,-0.165 -0.165,-0.42 -0.135,-0.255 -0.3,-0.465 -0.165,-0.21 -0.315,-0.36 -0.135,-0.165 -0.21,-0.12 z m -3.18,1.17 q -0.15,-0.015 -0.45,-0.12 -0.285,-0.105 -0.36,-0.105 -0.06,0 0.03,0.075 0.105,0.075 0.18,0.18 0.105,0.12 0.27,0.57 0.18,0.45 0.36,0.645 0.12,0.105 0.285,0.135 0.165,0.03 0.345,0.03 l 0.45,0 q -0.135,-0.045 -0.255,-0.045 -0.105,0 -0.21,0 -0.105,0 -0.165,-0.015 -0.105,-0.015 -0.24,-0.06 -0.12,-0.06 -0.21,-0.12 -0.075,-0.06 -0.165,-0.315 -0.09,-0.255 -0.135,-0.405 -0.06,-0.12 -0.15,-0.255 -0.03,-0.09 -0.075,-0.105 0.06,0.015 0.165,0.06 0.06,0.015 0.135,0.015 0.09,0 0.12,0 0.075,0 0.165,0.015 0.09,0.015 0.21,0.015 l 0.3,0 q -0.135,-0.03 -0.24,-0.09 -0.105,-0.015 -0.225,-0.045 -0.105,-0.03 -0.135,-0.06 z" />
      <path
         id="path75"
         style=""
         d="m 161.33609,374.86 -9.51,0 0,-18.33 9.51,0 0,18.33 z m -2.94,-10.14 q 0.12,0.195 0.285,0.21 0.165,0 0.195,-0.045 0.06,-0.06 0.165,-0.36 0.105,-0.315 -0.015,-0.615 -0.09,-0.165 -0.33,-0.42 -0.225,-0.27 -0.51,-0.525 -0.285,-0.27 -0.51,-0.465 -0.225,-0.195 -0.27,-0.24 -0.135,-0.045 -0.15,-0.09 0,-0.06 -0.105,-0.015 -0.105,0.06 -0.33,0.105 -0.225,0.045 -0.345,0.045 -0.09,0 -0.33,0.045 -0.24,0.045 -0.555,0.21 -0.315,0.15 -0.66,0.465 -0.33,0.3 -0.525,0.81 -0.36,0.99 -0.39,2.085 -0.03,1.095 0.54,2.085 0.555,1.005 1.38,1.41 0.84,0.39 1.83,0.105 0.465,-0.165 0.75,-0.51 0.3,-0.345 0.45,-0.735 0.165,-0.405 0.21,-0.735 0.045,-0.33 0.09,-0.45 0.015,-0.225 -0.075,-0.45 -0.09,-0.225 -0.195,-0.225 -0.135,0 -0.27,0.06 -0.135,0.045 -0.165,0.195 -0.045,0.03 -0.075,0.195 -0.015,0.165 -0.06,0.36 -0.03,0.18 -0.075,0.36 -0.045,0.165 -0.06,0.24 -0.06,0.09 -0.21,0.285 -0.135,0.18 -0.36,0.36 -0.225,0.165 -0.54,0.3 -0.3,0.12 -0.615,0.06 -0.66,-0.105 -1.305,-0.9 -0.645,-0.795 -0.69,-2.04 -0.015,-0.615 0.165,-1.065 0.18,-0.45 0.42,-0.765 0.255,-0.315 0.51,-0.495 0.255,-0.18 0.375,-0.24 0.12,-0.045 0.39,-0.03 0.27,0 0.57,0.06 0.315,0.045 0.555,0.135 0.24,0.075 0.3,0.09 0.105,0.105 0.195,0.255 0.09,0.15 0.12,0.285 0.06,0.09 0.09,0.315 0.045,0.21 0.135,0.285 z m 0.63,0.345 q 0.075,0.03 0.18,0.03 0.18,0 0.21,-0.12 0.06,-0.15 0.06,-0.6 0,-0.465 -0.285,-0.99 -0.315,-0.54 -0.72,-0.9 -0.405,-0.375 -0.675,-0.51 -0.12,-0.06 -0.255,-0.105 -0.135,-0.06 -0.225,-0.105 -0.12,-0.06 -0.255,-0.06 0.39,0.165 0.78,0.375 0.3,0.18 0.615,0.465 0.315,0.285 0.51,0.615 0.36,0.705 0.42,1.095 0.06,0.375 -0.015,0.51 -0.165,0.21 -0.225,0.24 -0.06,0.06 -0.12,0.06 z m -3.84,-0.06 q -0.165,0.48 -0.12,0.93 0.045,0.45 0.135,0.78 0.105,0.315 0.21,0.54 0.105,0.225 0.105,0.24 0,0.06 -0.195,-0.465 -0.18,-0.525 -0.12,-1.575 0.03,-0.525 0.225,-0.885 0.21,-0.36 0.435,-0.555 0.3,-0.27 0.615,-0.405 -0.03,-0.03 -0.18,0 -0.135,0.03 -0.345,0.195 -0.21,0.15 -0.435,0.45 -0.21,0.285 -0.33,0.75 z m 4.35,1.74 q 0,0.405 -0.09,0.84 -0.06,0.36 -0.21,0.78 -0.15,0.42 -0.465,0.705 -0.285,0.3 -0.585,0.495 -0.285,0.18 -0.51,0.315 -0.285,0.12 -0.525,0.18 0.42,-0.12 0.81,-0.315 0.345,-0.15 0.66,-0.405 0.315,-0.27 0.525,-0.705 0.225,-0.375 0.285,-0.72 0.06,-0.36 0.105,-0.615 0.015,-0.285 0,-0.555 z" />
      <path
         id="path77"
         style=""
         d="m 170.04805,374.86 -9.465,0 0,-18.33 9.465,0 0,18.33 z m -7.17,-5.265 q 0.09,0.03 0.195,0.105 0.12,0.075 0.24,-0.135 0.12,-0.18 0.195,-0.45 0.09,-0.285 0.105,-0.405 0.045,-0.15 0,-0.255 -0.03,-0.12 0.09,-0.15 0.135,-0.03 0.195,0.105 0.075,0.135 0.255,0.135 0.165,0 0.375,-0.075 0.21,-0.09 0.69,-0.09 0.495,0 0.705,0.045 0.225,0.045 0.405,-0.06 0.18,-0.09 0.345,-0.21 0.18,-0.12 0.255,-0.06 0.015,0.015 0.09,0.15 0.09,0.12 0.15,0.255 0.075,0.12 0.135,0.27 0.075,0.15 0.075,0.225 0.045,0.15 0.135,0.39 0.09,0.24 0.375,0.27 0.3,0.06 0.39,-0.03 0.105,-0.09 0.135,-0.33 0.075,-0.195 -0.12,-0.36 -0.195,-0.18 -0.27,-0.375 -0.045,-0.09 -0.195,-0.45 -0.135,-0.36 -0.315,-0.78 -0.18,-0.435 -0.345,-0.855 -0.15,-0.435 -0.24,-0.66 -0.075,-0.255 -0.24,-0.63 -0.15,-0.39 -0.315,-0.75 -0.15,-0.375 -0.285,-0.675 -0.12,-0.315 -0.15,-0.405 -0.045,-0.075 -0.06,-0.255 -0.015,-0.18 -0.06,-0.375 -0.045,-0.195 -0.105,-0.375 -0.045,-0.18 -0.135,-0.27 -0.09,-0.075 -0.195,0 -0.105,0.075 -0.195,0.195 -0.09,0.105 -0.165,0.24 -0.06,0.12 -0.09,0.21 -0.015,0.18 0.045,0.315 0.06,0.135 0.06,0.24 0,0.09 -0.09,0.225 -0.09,0.12 -0.15,0.285 -0.06,0.135 -0.09,0.27 -0.015,0.12 -0.015,0.225 0,0.12 -0.27,0.645 -0.27,0.525 -0.465,1.095 -0.18,0.525 -0.195,0.72 -0.015,0.195 -0.06,0.345 -0.015,0.12 -0.105,0.375 -0.075,0.255 -0.21,0.465 -0.06,0.15 -0.21,0.39 -0.135,0.24 -0.255,0.525 -0.12,0.27 -0.15,0.495 -0.03,0.225 0.105,0.255 z m 3.735,-3.12 q 0.135,0.255 0.165,0.525 0.045,0.255 -0.015,0.465 -0.015,0.09 -0.12,0.105 -0.105,0.015 -0.27,-0.015 -0.15,-0.03 -0.33,-0.075 -0.165,-0.045 -0.27,-0.045 -0.45,0 -0.615,-0.075 -0.06,-0.06 -0.195,0.015 -0.135,0.06 -0.42,0.15 -0.3,0.105 -0.405,0.09 -0.105,-0.03 -0.21,-0.075 -0.06,-0.015 -0.015,-0.12 0.045,-0.12 0.135,-0.255 0.09,-0.135 0.18,-0.285 0.09,-0.165 0.12,-0.3 0.03,-0.135 0.135,-0.435 0.12,-0.315 0.24,-0.63 0.135,-0.33 0.225,-0.57 0.09,-0.255 0.09,-0.27 0,-0.06 -0.09,-0.105 -0.075,-0.06 -0.15,-0.105 -0.045,-0.015 0.06,-0.12 0.105,-0.105 0.195,-0.225 0.105,-0.15 0.135,-0.24 0.03,-0.09 0.165,-0.045 0.06,0.03 0.24,0.39 0.18,0.36 0.39,0.825 0.225,0.465 0.405,0.9 0.18,0.42 0.225,0.525 z m -1.845,0.195 0.105,-0.24 q 0.06,-0.12 0.105,-0.225 0.045,-0.105 0.06,-0.165 0.09,-0.12 0.105,-0.3 0.015,-0.12 0.06,-0.27 -0.075,0.06 -0.165,0.27 -0.075,0.195 -0.12,0.42 -0.09,0.27 -0.15,0.51 z m 0.765,0.54 q -0.03,-0.105 -0.09,-0.225 -0.06,-0.12 -0.165,-0.09 -0.075,0.03 -0.18,0.03 l -0.12,0 0.555,0.285 z m -1.395,1.62 2.085,-0.075 q -0.18,-0.045 -0.51,-0.03 -0.33,0 -0.69,0.03 -0.435,0.015 -0.885,0.075 z m -0.105,0.12 q -0.06,0.15 -0.09,0.255 -0.105,0.255 -0.18,0.345 -0.06,0.045 -0.105,0.09 -0.045,0.03 -0.06,0.09 -0.045,0.045 -0.045,0.09 0.195,-0.165 0.285,-0.285 0.225,-0.315 0.195,-0.585 z m 4.455,-0.84 q 0.045,0.06 -0.03,-0.15 -0.075,-0.21 -0.225,-0.57 -0.135,-0.36 -0.345,-0.87 -0.195,-0.525 -0.405,-1.065 -0.51,-1.275 -1.2,-2.895 0.585,1.53 1.05,2.73 0.225,0.54 0.42,1.035 0.195,0.495 0.345,0.885 0.15,0.375 0.24,0.63 0.09,0.255 0.15,0.27 z" />
      <path
         id="path79"
         style=""
         d="m 178.75063,374.86 -9.48001,0 0,-18.33 9.48001,0 0,18.33 z m -6.375,-12.855 q -0.21001,-0.075 -0.39001,0.075 -0.165,0.135 -0.21,0.24 -0.06,0.135 0.015,0.3 0.09,0.165 0.09,0.225 0,0.015 -0.015,0.435 0,0.405 -0.03,0.915 -0.015,0.495 -0.015,0.975 0,0.465 0,0.63 0,0.15 0.03,0.69 0.03,0.54 0.075,1.125 0.045,0.585 0.075,1.065 0.045,0.48 0.06,0.555 0.045,0.12 0.27,0.21 0.225,0.075 0.285,0.075 0.03,0 0.525,0.015 0.495,0.015 1.095,0.03 0.6,0 1.095,0.03 0.495,0.015 0.54,0.015 0.105,0 0.195,0.045 0.09,0.045 0.24,0.045 0.12,0 0.315,-0.09 0.21,-0.105 0.25501,-0.36 0.06,-0.255 -0.075,-0.495 -0.135,-0.24 -0.33,-0.24 -0.195,0 -0.6,0.105 -0.405,0.105 -0.57,0.105 l -2.25,0 q -0.09,0 -0.27,0.015 -0.165,0 -0.165,-0.075 0,-0.06 -0.045,-0.45 -0.03,-0.405 -0.03,-0.57 0,-0.015 0,-0.24 0,-0.225 -0.015,-0.57 -0.015,-0.36 -0.015,-0.765 0,-0.405 0,-0.81 l 0,-2.295 q 0.165,-0.105 0.12,-0.48 -0.03,-0.375 -0.25499,-0.48 z m 0.62999,0.45 q -0.015,1.53 -0.015,2.745 0,0.525 0,1.02 0,0.48 0,0.87 0.015,0.39 0.03,0.645 0.03,0.24 0.045,0.24 l 0.09,0.03 -0.15,-5.55 z m 2.97,7.56 -2.145,-0.03 q 0.105,0.075 0.45,0.075 0.34501,0 0.735,0 0.45,0 0.96,-0.045 z m 1.185,-0.825 q -0.045,0.165 -0.12,0.27 -0.06,0.105 -0.135,0.195 -0.06,0.09 -0.135,0.135 -0.105,0.045 -0.285,0.045 -0.09,0 -0.15,-0.03 0.225,0.105 0.39,0.09 0.12,-0.03 0.255,-0.15 0.135,-0.135 0.18,-0.555 z" />
      <path
         id="path81"
         style=""
         d="m 187.6025,374.86 -9.51,0 0,-18.33 9.51,0 0,18.33 z m -3.765,-11.595 q 0.18,0 0.465,0.045 0.3,0.045 0.525,0 0.255,-0.015 0.345,-0.165 0.105,-0.165 0.135,-0.315 0.03,-0.165 -0.105,-0.42 -0.12,-0.255 -0.27,-0.315 -0.105,-0.06 -0.315,-0.015 -0.21,0.03 -0.33,0.105 -0.09,0.045 -0.27,0.075 -0.18,0.03 -0.375,0.06 -0.195,0.03 -0.405,0.045 -0.195,0.015 -0.3,0.015 -0.105,0 -0.435,-0.015 -0.315,-0.015 -0.69,-0.03 -0.375,-0.015 -0.69,0 -0.315,0.015 -0.42,0.06 -0.105,0.075 -0.18,0.33 -0.06,0.255 -0.105,0.585 -0.03,0.315 -0.045,0.615 -0.015,0.285 -0.015,0.45 0,0.165 0.03,0.435 0.03,0.255 0.045,0.495 0.03,0.24 0.045,0.45 0.015,0.21 -0.015,0.285 -0.03,0.12 -0.09,0.435 -0.06,0.3 -0.06,0.57 0,0.12 0.015,0.465 0.03,0.345 0.06,0.72 0.045,0.36 0.075,0.675 0.03,0.3 0.03,0.315 0,0.075 0.105,0.27 0.105,0.195 0.27,0.24 0.075,0 0.495,0.015 0.435,0 0.945,0 0.525,0 0.96,0 0.45,0 0.51,0 0.075,0 0.255,0.045 0.195,0.045 0.39,0.09 0.21,0.03 0.36,0.06 0.15,0.015 0.24,0.015 0.135,0 0.36,-0.15 0.24,-0.165 0.27,-0.345 0,-0.18 -0.06,-0.465 -0.045,-0.3 -0.255,-0.345 -0.18,-0.06 -0.615,0.105 -0.435,0.165 -0.69,0.195 -0.12,0.045 -0.45,0.015 -0.315,-0.03 -0.675,-0.075 -0.36,-0.045 -0.66,-0.075 -0.3,-0.03 -0.39,-0.03 -0.12,0 -0.375,0.075 -0.24,0.06 -0.33,-0.015 -0.105,-0.06 -0.045,-0.24 0.06,-0.195 0.06,-0.255 0,-0.045 -0.015,-0.18 0,-0.15 -0.06,-0.3 -0.03,-0.03 -0.045,-0.27 0,-0.255 0.015,-0.495 0.03,-0.255 0.06,-0.465 0.03,-0.21 0.09,-0.225 0.075,-0.075 0.24,-0.03 0.165,0.045 0.285,-0.015 0.045,0 0.27,-0.015 0.225,-0.015 0.48,-0.015 0.255,0 0.465,0 0.225,0 0.315,0.03 0.12,0.06 0.21,0.105 0.09,0.03 0.375,-0.03 0.315,-0.03 0.375,-0.21 0.06,-0.18 0.075,-0.465 0.045,-0.3 -0.15,-0.36 -0.195,-0.075 -0.33,-0.15 -0.165,-0.03 -0.42,0.075 -0.255,0.09 -0.405,0.12 -0.075,0 -0.255,0 -0.165,0 -0.345,-0.015 -0.165,-0.03 -0.33,-0.045 -0.15,-0.03 -0.225,-0.03 -0.09,0.045 -0.225,0.045 -0.12,0 -0.27,0.015 -0.12,0.03 -0.285,0.03 l 0,-0.975 q 0,-0.375 0,-0.69 0,-0.33 0.03,-0.42 0.69,-0.015 1.275,-0.06 0.495,-0.015 0.93,-0.03 0.435,-0.015 0.54,-0.015 z m -0.975,0.39 -1.425,0 q -0.03,0.225 -0.03,0.405 l 0,0.51 q 0,0.21 -0.015,0.27 -0.045,0.075 -0.06,0.135 0.405,0 0.705,-0.015 0.285,-0.045 0.495,-0.045 0.225,0 0.285,-0.015 0.015,0 -0.12,0 -0.12,0 -0.3,-0.03 -0.165,-0.03 -0.345,-0.06 -0.165,-0.03 -0.195,-0.18 -0.075,-0.24 -0.09,-0.465 -0.015,-0.24 0.075,-0.285 0.045,-0.045 0.195,-0.06 0.165,-0.015 0.345,-0.075 0.21,-0.045 0.48,-0.09 z m 0.795,1.23 0.42,0.285 q -0.12,-0.15 -0.24,-0.21 -0.105,-0.06 -0.18,-0.075 z m -1.875,1.995 q 0.015,0 0.18,-0.015 0.18,-0.015 0.375,-0.045 0.21,-0.03 0.345,-0.03 0.15,-0.015 0.135,-0.015 -0.075,-0.06 -0.27,-0.03 -0.18,0.015 -0.375,0.045 -0.195,0.03 -0.315,0.075 -0.105,0.03 -0.075,0.015 z m -0.375,-0.18 q 0,0.075 0.015,0.315 0.015,0.225 0.045,0.51 0.03,0.33 0.045,0.69 l 0.33,-0.06 q -0.06,0.09 -0.09,0.09 -0.06,0 -0.075,-0.075 0,-0.075 -0.015,-0.33 -0.045,-0.27 -0.075,-0.465 -0.015,-0.21 -0.075,-0.375 -0.045,-0.15 -0.105,-0.3 z" />
    </g>
    <g
       id="text14"
       style="">
      <path
         id="path84"
         style=""
         d="m 234.075,374.86 -9.51,0 0,-18.33 9.51,0 0,18.33 z m -6.57,-11.205 q 0,-0.075 -0.09,-0.12 -0.075,-0.045 -0.105,0.045 -0.06,0.075 -0.075,0.18 0,0.105 -0.015,0.225 -0.09,0.195 -0.09,0.45 0,0.105 0.075,0.255 0.09,0.15 0.135,0.21 0.06,0.06 0.09,0.165 0.045,0.105 0.105,0.045 0.135,-0.045 0.105,-0.165 -0.03,-0.12 -0.105,-0.315 -0.015,-0.165 -0.105,-0.405 -0.09,-0.24 -0.03,-0.3 0.015,-0.03 0.03,-0.06 0.015,-0.045 0.045,-0.105 0.03,-0.045 0.03,-0.105 z m 0.24,0.18 q 0,0.03 0,0.195 0,0.15 0,0.315 0.015,0.165 0.03,0.255 0.015,0.09 0.015,0.015 0,-0.165 0.03,-0.51 0.045,-0.36 0.105,-0.36 0.03,0 0.15,-0.015 0.135,-0.015 0.33,-0.06 0.18,-0.015 0.435,-0.03 -0.285,-0.045 -0.525,0 -0.195,0.015 -0.375,0.06 -0.18,0.045 -0.195,0.135 z m 2.97,1.905 q 0.18,-0.225 0.24,-0.375 0.03,-0.03 0.045,-0.21 0.015,-0.195 0.06,-0.255 0.075,-0.06 0.15,-0.39 0.09,-0.345 0.075,-0.615 -0.06,-0.3 -0.18,-0.54 -0.12,-0.255 -0.165,-0.345 -0.06,-0.135 -0.15,-0.33 -0.075,-0.21 -0.105,-0.105 -0.015,0.105 0.03,0.195 0.06,0.09 -0.105,0.075 -0.12,-0.03 -0.315,-0.09 -0.18,-0.075 -0.33,-0.165 -0.09,-0.015 -0.345,-0.015 -0.255,-0.015 -0.495,-0.06 -0.3,-0.015 -0.66,-0.015 -0.255,0 -0.435,0.015 -0.405,0.06 -0.615,0.135 -0.195,0.105 -0.465,0.21 -0.27,0.09 -0.33,0.165 -0.03,0.075 0,0.135 0.03,0.045 0.06,0.135 0.03,0.075 0.03,0.39 0,0.315 0,0.525 0,0.105 -0.015,0.69 -0.015,0.57 -0.015,1.275 0,0.705 0.015,1.305 0.015,0.6 0.075,0.72 0.105,0.27 0.12,0.375 0.015,0.09 0.015,0.225 0,0.09 0.075,0.375 0.075,0.285 0.465,0.375 0.405,0.075 0.975,0.105 0.585,0.03 0.93,-0.03 0.39,-0.06 0.675,-0.06 0.285,0 0.42,-0.015 0.165,-0.045 0.21,-0.015 0.06,0.015 0.105,-0.03 0.015,-0.045 0.15,-0.18 0.135,-0.15 0.27,-0.33 0.15,-0.195 0.27,-0.435 0.135,-0.255 0.135,-0.48 0,-0.465 -0.06,-0.765 -0.06,-0.3 -0.18,-0.54 -0.12,-0.21 -0.18,-0.42 -0.045,-0.225 -0.12,-0.3 -0.09,-0.06 -0.15,0 l -0.045,0.075 q -0.06,-0.09 -0.075,-0.165 -0.09,-0.15 -0.06,-0.225 z m -1.365,0.345 q 0.33,0 0.78,0.345 0.465,0.33 0.75,0.69 0.135,0.18 0.105,0.435 -0.03,0.255 -0.15,0.51 -0.12,0.24 -0.285,0.465 -0.165,0.21 -0.375,0.3 -0.18,0.105 -0.51,0.135 -0.315,0.03 -0.63,0.03 -0.315,-0.015 -0.57,-0.06 -0.255,-0.045 -0.27,-0.075 -0.06,-0.03 -0.33,0.075 -0.12,0.06 -0.27,0.03 -0.15,-0.045 -0.285,-0.135 -0.075,-0.03 -0.105,-0.18 -0.03,-0.165 -0.03,-0.345 l 0,-0.45 q -0.015,0.09 0,0.18 0,0.165 0.12,0.33 0.06,0.12 0.12,0.12 0.06,0 0.12,0 0.09,-0.015 0.06,-0.27 -0.015,-0.255 -0.075,-0.375 -0.045,-0.15 -0.06,-0.405 -0.015,-0.27 -0.015,-0.39 0,-0.09 0.06,-0.285 l 0.03,-0.165 -0.09,0.06 q -0.135,0.06 -0.135,0.12 -0.015,0.06 -0.045,0.255 -0.03,0.18 -0.09,0.375 -0.045,0.27 -0.105,0.555 l 0.06,-1.395 0.03,0 q 0.015,0 0.075,-0.075 0.06,-0.06 0.21,-0.27 l 0.165,-0.225 q 0.06,0.045 0.135,0.06 0.045,0.03 0.105,0.06 0.075,0.03 0.165,0.045 0.24,0 0.51,-0.015 0.225,-0.015 0.45,-0.03 0.225,-0.03 0.375,-0.03 z m -0.195,-2.85 q 0.21,-0.03 0.465,0.03 0.255,0.045 0.6,0.27 0.345,0.21 0.345,0.57 0,0.345 -0.06,0.735 -0.06,0.225 -0.135,0.375 -0.06,0.135 -0.12,0.24 -0.105,0.09 -0.165,0.18 l 0.36,-0.165 q -0.06,0.165 -0.12,0.27 -0.06,0.12 -0.105,0.195 -0.045,0.06 -0.075,0.06 -0.09,0 -0.165,-0.135 -0.06,-0.15 -0.105,-0.18 -0.075,-0.06 -0.24,-0.135 -0.165,-0.09 -0.36,-0.09 -0.09,0 -0.36,0 -0.255,0 -0.555,0 -0.285,0 -0.525,0.015 -0.225,0 -0.3,0 -0.12,0.06 -0.09,0.225 0.03,0.165 0.075,0.3 0.06,0.165 -0.165,0.225 -0.105,0.045 -0.195,0.045 l 0,-0.36 q 0,-0.165 -0.015,-0.3 -0.015,-0.15 -0.015,-0.24 0,-0.075 0,-0.405 0,-0.33 0,-0.675 0,-0.36 0.015,-0.66 0.015,-0.3 0.03,-0.315 0.06,-0.045 0.315,-0.075 0.255,-0.045 0.315,-0.03 0.09,0.03 0.15,0.15 0.06,0.12 0.09,0.015 0,0 0.135,-0.03 0.135,-0.03 0.315,-0.045 0.195,-0.03 0.375,-0.045 0.18,-0.015 0.285,-0.015 z m 0.84,-1.38 q 0.45,0.27 0.795,0.555 0.315,0.27 0.54,0.585 0.24,0.315 0.255,0.645 0,0.645 -0.06,1.245 -0.06,0.585 -0.135,0.705 -0.225,0.15 -0.195,0.21 0,0.015 0.135,0.18 0.135,0.165 0.27,0.405 0.15,0.225 0.255,0.51 0.105,0.27 0.075,0.54 -0.06,0.525 -0.21,1.02 -0.135,0.48 -0.42,0.885 -0.285,0.375 -0.54,0.57 -0.15,0.105 -0.255,0.195 0.375,-0.21 0.66,-0.54 0.255,-0.285 0.51,-0.72 0.255,-0.435 0.345,-1.035 0.075,-0.6 -0.045,-0.975 -0.105,-0.39 -0.255,-0.585 -0.135,-0.195 -0.27,-0.285 -0.12,-0.105 -0.105,-0.225 0.045,-0.105 0.12,-0.33 0.09,-0.225 0.15,-0.525 0.075,-0.315 0.12,-0.63 0.045,-0.33 -0.045,-0.66 -0.075,-0.285 -0.3,-0.6 -0.225,-0.315 -0.48,-0.57 -0.24,-0.255 -0.495,-0.405 -0.255,-0.165 -0.42,-0.165 z m -1.8,2.865 1.23,0.075 q -0.075,-0.06 -0.285,-0.06 -0.195,-0.015 -0.39,-0.015 l -0.555,0 z m -0.345,3.42 0.735,0.18 -0.63,-0.18 0,-0.18 q 0,-0.09 0,-0.15 0.015,-0.075 0.015,-0.135 0,-0.06 -0.015,-0.195 0,-0.15 0,-0.315 l 0,-0.39 q -0.06,0.015 -0.06,0.24 0,0.21 -0.03,0.48 -0.015,0.285 -0.015,0.645 z" />
      <path
         id="path86"
         style=""
         d="m 242.90836,374.86 -9.48,0 0,-18.33 9.48,0 0,18.33 z m -7.05,-12.765 q -0.12,0.075 -0.165,0.39 -0.045,0.315 -0.045,0.54 0,0.105 0,0.705 0,0.585 0.015,1.26 0.015,0.675 0.015,1.26 0,0.57 0,0.66 0,0.075 -0.015,0.39 -0.015,0.315 -0.015,0.675 0,0.36 0.015,0.69 0.015,0.33 0.075,0.45 0.105,0.195 0.105,0.21 0,0.015 0.18,0.075 0.18,0.045 0.345,-0.09 0.18,-0.15 0.21,-0.345 0.015,-0.18 -0.105,-0.435 -0.105,-0.255 -0.105,-0.375 0,-0.09 0.015,-0.27 0.03,-0.18 0.045,-0.375 0.015,-0.21 0.03,-0.375 0.015,-0.165 0.015,-0.24 -0.03,-0.15 -0.045,-0.375 -0.015,-0.225 0.075,-0.3 0.09,-0.045 0.48,-0.045 0.405,0 0.585,-0.06 0.225,-0.03 0.405,-0.12 0.195,-0.09 0.42,0.015 0.105,0.06 0.24,0.33 0.135,0.255 0.27,0.585 0.15,0.33 0.285,0.645 0.135,0.315 0.21,0.495 0.075,0.195 0.18,0.465 0.105,0.255 0.24,0.48 0.135,0.225 0.27,0.375 0.15,0.135 0.285,0.06 0.285,-0.135 0.33,-0.27 0.045,-0.15 -0.015,-0.375 -0.03,-0.075 -0.165,-0.255 -0.12,-0.195 -0.285,-0.42 -0.165,-0.24 -0.33,-0.465 -0.15,-0.24 -0.225,-0.465 -0.3,-0.825 -0.3,-0.945 0,-0.09 -0.03,-0.105 -0.015,-0.03 0.045,-0.075 0.015,-0.045 0.225,-0.195 0.225,-0.165 0.45,-0.45 0.24,-0.3 0.42,-0.615 0.195,-0.33 0.165,-0.66 -0.015,-0.63 -0.27,-1.05 -0.24,-0.42 -0.495,-0.615 -0.225,-0.225 -0.405,-0.315 -0.165,-0.105 -0.315,-0.12 -0.12,-0.06 -0.09,-0.075 0.03,-0.03 -0.09,0.015 -0.045,0.045 -0.345,0.06 -0.285,0 -0.615,0 -0.315,0 -0.66,0.015 -0.33,0 -0.45,0 -0.27,0 -0.645,0 -0.36,0 -0.42,0.03 z m 2.955,0.84 q 0.3,0 0.63,0.195 0.18,0.105 0.285,0.345 0.105,0.225 0.135,0.495 0.06,0.27 -0.09,0.555 -0.15,0.285 -0.36,0.465 -0.195,0.18 -0.51,0.24 -0.3,0.045 -0.645,0.03 -0.15,0 -0.375,-0.045 -0.21,-0.045 -0.405,-0.075 -0.195,-0.03 -0.345,-0.06 -0.135,-0.03 -0.18,-0.03 -0.03,0 -0.27,0.105 -0.24,0.105 -0.3,0.015 -0.06,-0.06 0,-0.255 0.06,-0.195 0.105,-0.27 0.06,-0.09 0.03,-0.135 -0.015,-0.045 -0.03,-0.195 0,-0.075 -0.03,-0.225 -0.015,-0.165 -0.03,-0.33 -0.015,-0.18 -0.03,-0.315 -0.015,-0.135 -0.015,-0.15 0,-0.165 0.03,-0.24 0.075,-0.09 0.315,0 0.105,0.06 0.15,0.045 0.06,-0.03 0.21,-0.03 0.12,0 0.255,-0.015 0.15,-0.03 0.285,-0.03 0.12,0 0.435,0.03 0.33,0.015 0.435,-0.03 0.045,-0.06 0.105,-0.06 0.06,-0.015 0.21,-0.03 z m -2.085,0.57 q -0.06,0.06 0.015,0.18 0.09,0.105 0.09,0.18 0,0.06 0.09,0.15 l 0.03,0.03 q -0.06,-0.09 -0.09,-0.195 -0.105,-0.18 0,-0.255 0.09,-0.03 0.3,-0.03 l 0.21,0 -0.33,-0.06 q -0.12,-0.03 -0.225,-0.03 -0.09,0 -0.09,0.03 z m 0.105,0.81 q 0,0.09 -0.06,0.18 -0.015,0.06 -0.015,0.09 l 0.195,0.135 0.795,0.045 q -0.195,-0.015 -0.36,-0.075 -0.12,-0.045 -0.255,-0.09 -0.135,-0.045 -0.18,-0.105 -0.09,-0.135 -0.09,-0.135 l -0.03,-0.045 z m 2.46,-2.7 q 0.39,0.225 0.72,0.45 0.285,0.225 0.525,0.51 0.255,0.27 0.33,0.615 0.135,0.675 0.045,1.395 -0.09,0.705 -0.39,0.96 -0.285,0.225 -0.495,0.42 -0.195,0.195 -0.195,0.255 0,0.06 0.12,0.33 0.12,0.27 0.315,0.6 0.195,0.375 0.45,0.84 -0.195,-0.45 -0.315,-0.81 -0.135,-0.33 -0.21,-0.6 -0.075,-0.285 -0.06,-0.36 0.015,-0.045 0.18,-0.225 0.165,-0.195 0.345,-0.465 0.195,-0.27 0.315,-0.615 0.135,-0.36 0.12,-0.72 -0.045,-0.375 -0.075,-0.69 -0.015,-0.315 -0.18,-0.615 -0.15,-0.315 -0.51,-0.615 -0.36,-0.3 -1.035,-0.66 z m 1.305,8.01 q -0.03,0.075 0.12,0.03 0.15,-0.06 0.285,-0.3 0.105,-0.195 0.105,-0.39 0,-0.105 -0.015,-0.18 l -0.06,0.33 q -0.03,0.12 -0.075,0.225 -0.03,0.105 -0.105,0.165 -0.135,0.075 -0.18,0.075 -0.03,0 -0.075,0.045 z m -3.93,-2.88 q 0,0.045 0.015,0.3 0.03,0.255 0.045,0.585 0.03,0.315 0.06,0.6 0.03,0.285 0.03,0.39 0.015,0.225 0,0.33 0,0.105 -0.105,0.225 -0.12,0.135 -0.12,0.15 0,0.015 -0.09,0.015 -0.09,0 -0.24,-0.045 -0.12,-0.045 -0.165,-0.075 0.12,0.12 0.225,0.225 0.255,0.18 0.345,0.06 0.06,-0.09 0.12,-0.315 0.075,-0.225 0.12,-0.51 0.045,-0.285 0.09,-0.57 0.045,-0.285 0.045,-0.495 -0.03,-0.195 -0.015,-0.345 0.015,-0.165 0.015,-0.285 0,-0.135 0.045,-0.24 l 0.135,0.075 q 0.225,0.105 0.345,0.09 0.15,-0.015 0.03,-0.15 -0.105,-0.135 -0.225,-0.135 -0.165,0 -0.315,-0.075 -0.135,-0.09 -0.285,-0.15 -0.12,-0.045 -0.12,0.12 0.015,0.15 0.015,0.225 z" />
      <path
         id="path88"
         style=""
         d="m 252.0075,374.86 -9.495,0 0,-18.33 9.495,0 0,18.33 z m -3.585,-12.735 0.045,0.03 q 0.045,0.045 0.15,0 0.12,-0.03 0.12,-0.075 0,-0.06 -0.15,-0.105 -0.135,-0.045 -0.24,0.06 -0.09,0.09 -0.18,0.12 -0.09,0.06 -0.18,0.195 -0.09,0.12 -0.495,0.195 -0.39,0.045 -0.615,0.03 -0.225,-0.015 -0.435,-0.03 -0.09,0 -0.255,-0.015 -0.165,-0.03 -0.3,0 -0.135,0.015 -0.255,0.105 -0.12,0.09 -0.135,0.285 -0.045,0.195 0.075,0.27 0.135,0.075 0.315,0.09 0.195,0 0.36,0 0.165,0 0.225,0.045 0.255,0.33 0.255,1.125 0,0.195 0.015,0.81 0.015,0.615 0.03,1.32 0.03,0.705 0.03,1.29 0,0.585 0,0.66 -0.045,0.18 -0.105,0.345 -0.045,0.15 -0.21,0.21 -0.135,0.045 -0.24,0 -0.09,-0.06 -0.225,-0.045 -0.06,0 -0.15,0.12 -0.09,0.105 -0.165,0.225 -0.075,0.105 -0.135,0.225 -0.06,0.12 0,0.15 0.075,0.075 0.495,0.045 0.42,-0.045 0.69,-0.045 0.24,0 0.525,0.03 0.285,0.015 0.51,0.045 0.21,0.06 0.465,0.06 0.27,-0.015 0.39,-0.225 0.12,-0.18 0.165,-0.405 0.06,-0.225 -0.045,-0.33 -0.15,-0.15 -0.405,-0.09 -0.075,0.015 -0.21,-0.09 -0.135,-0.105 -0.21,-0.105 -0.105,0 -0.27,0.135 -0.15,0.135 -0.225,0.12 -0.06,0 -0.075,-0.165 0,-0.165 -0.015,-0.345 -0.015,-0.195 -0.015,-0.375 0,-0.195 0,-0.285 l 0,-3.84 q 0,-0.225 0,-0.33 0,-0.105 0.09,-0.165 0.195,-0.075 0.39,0 0.075,0.045 0.315,0.105 0.255,0.045 0.39,-0.105 0.12,-0.105 0.24,-0.24 0.135,-0.15 0.075,-0.3 -0.075,-0.3 -0.33,-0.39 -0.12,-0.045 -0.195,-0.09 -0.06,-0.06 0.015,-0.105 0.03,-0.06 0.3,-0.06 0.285,-0.015 0.345,0.21 0.015,0.135 0.015,0.24 0,0.105 0,0.195 l 0,0.18 q 0.045,-0.21 0.045,-0.375 0,-0.12 -0.03,-0.255 -0.03,-0.135 -0.09,-0.195 -0.045,-0.06 -0.135,-0.06 -0.09,0 -0.165,-0.015 -0.105,0 -0.195,-0.015 z m -2.01,-0.21 2.175,0.06 q -0.525,-0.045 -0.975,-0.06 -0.375,-0.045 -0.735,-0.045 -0.345,-0.015 -0.465,0.045 z m 1.47,2.22 0.06,4.17 0.12,-0.03 q -0.045,-0.045 -0.045,-0.075 0,-0.015 -0.015,-0.045 0,-0.03 0,-0.075 -0.03,-0.075 -0.045,-0.705 -0.015,-0.63 -0.045,-1.35 l -0.03,-1.89 z m 0.225,4.26 q 0,0.06 0.075,0.09 0.075,0.015 0.195,0.015 0.135,0 0.225,0.015 0.105,0.015 0.135,0.015 0.06,0.045 0.18,0.18 0.12,0.135 0.12,0.225 0,0.105 0.015,0.24 0.03,0.12 0,0.045 -0.015,-0.03 -0.015,-0.33 0.015,-0.315 -0.24,-0.435 -0.255,-0.15 -0.45,-0.195 -0.18,-0.06 -0.24,0.135 z" />
      <path
         id="path90"
         style=""
         d="m 261.10383,374.86 -9.51,0 0,-18.33 9.51,0 0,18.33 z m -2.85,-9.75 q 0.135,-0.045 0.285,-0.27 0.165,-0.225 0.135,-0.495 0,-0.135 -0.105,-0.33 -0.09,-0.195 -0.24,-0.405 -0.15,-0.21 -0.315,-0.39 -0.165,-0.195 -0.285,-0.315 -0.27,-0.27 -0.735,-0.42 -0.45,-0.165 -1.065,-0.09 -0.285,0.06 -0.705,0.27 -0.405,0.195 -0.795,0.675 -0.39,0.465 -0.675,1.185 -0.27,0.72 -0.27,1.8 0,1.08 0.33,1.8 0.33,0.705 0.765,1.11 0.45,0.405 0.945,0.585 0.495,0.165 0.81,0.165 0.315,0 0.66,-0.15 0.36,-0.165 0.675,-0.39 0.315,-0.225 0.525,-0.42 0.225,-0.195 0.285,-0.27 0.045,-0.09 0.06,-0.315 0.015,-0.225 0.015,-0.45 0,-0.24 -0.015,-0.465 -0.015,-0.225 -0.015,-0.33 0,-0.225 0.03,-0.375 0.045,-0.15 0.06,-0.33 0.045,-0.165 -0.09,-0.3 -0.135,-0.15 -0.225,-0.27 -0.06,-0.045 -0.075,-0.075 -0.015,-0.045 -0.045,-0.105 -0.03,-0.045 -0.03,-0.06 -0.105,0.18 -0.195,0.285 -0.105,0.09 -0.27,0.18 -0.165,0.075 -0.375,0.075 -0.435,0 -0.69,-0.015 -0.24,-0.015 -0.345,0.285 -0.105,0.285 0.075,0.51 0.195,0.225 0.33,0.255 0.135,0.075 0.27,0.03 0.15,-0.06 0.27,-0.12 0.12,-0.045 0.12,-0.105 0.015,-0.06 0.12,0.06 0.12,0.105 0.255,0.3 0.15,0.195 0.045,0.63 -0.135,0.495 -0.45,0.78 -0.315,0.285 -0.975,0.225 -0.315,-0.015 -0.66,-0.225 -0.33,-0.225 -0.63,-0.54 -0.3,-0.315 -0.495,-0.705 -0.18,-0.39 -0.21,-0.825 -0.03,-0.435 0,-0.885 0.03,-0.465 0.12,-0.885 0.09,-0.42 0.24,-0.735 0.15,-0.33 0.405,-0.495 0.495,-0.33 0.9,-0.345 0.42,-0.015 0.72,0.075 0.33,0.12 0.525,0.42 0.21,0.3 0.345,0.435 0.135,0.165 0.075,0.405 -0.045,0.225 0.24,0.39 0.135,0.09 0.24,0.03 l 0.105,-0.06 z m -1.89,-3.165 q 0,0.06 0.375,0.12 0.39,0.045 0.675,0.225 0.315,0.18 0.645,0.465 0.33,0.27 0.495,0.495 0.15,0.21 0.195,0.45 0.06,0.225 0.12,0.3 0,0.06 0,0.09 0.015,0.015 0.015,0.03 l 0,0.06 q -0.045,-0.345 -0.135,-0.645 -0.135,-0.285 -0.345,-0.585 -0.195,-0.315 -0.555,-0.555 -0.39,-0.24 -0.675,-0.33 -0.27,-0.105 -0.45,-0.12 -0.195,-0.015 -0.36,0 z m -1.635,4.425 q 0.015,0.69 0.195,1.11 0.195,0.42 0.405,0.69 0.21,0.255 0.375,0.345 0.18,0.09 0.225,0.09 0.06,0 0.24,-0.18 0.09,-0.105 0.195,-0.21 -0.105,-0.015 -0.21,-0.06 -0.105,-0.015 -0.225,-0.06 -0.12,-0.045 -0.225,-0.135 -0.24,-0.165 -0.465,-0.495 -0.225,-0.345 -0.27,-1.305 -0.03,-0.465 0.045,-0.855 0.09,-0.405 0.18,-0.69 0.105,-0.33 0.27,-0.615 -0.225,0.21 -0.39,0.54 -0.135,0.285 -0.27,0.72 -0.135,0.435 -0.075,1.11 z m 2.4,-0.84 0.9,0 q -0.18,0 -0.36,-0.015 -0.165,0 -0.33,-0.015 -0.165,-0.03 -0.21,0.03 z m 1.2,0.105 0.225,0.255 q 0.06,0.105 0.135,0.24 0.09,0.12 0.15,0.195 0.045,0.075 0.06,0.3 0.03,0.225 0.03,0.495 0,0.27 -0.03,0.51 -0.015,0.24 -0.015,0.405 0,0.285 -0.03,0.51 -0.015,0.225 -0.09,0.33 -0.06,0.06 -0.21,0.21 -0.135,0.135 -0.3,0.3 l -0.405,0.42 q 0.255,-0.18 0.48,-0.405 0.225,-0.18 0.405,-0.405 0.195,-0.24 0.27,-0.525 0.06,-0.27 0.06,-0.645 0,-0.375 -0.015,-0.705 -0.015,-0.345 -0.075,-0.6 -0.045,-0.255 -0.09,-0.3 -0.015,-0.06 -0.105,-0.18 -0.075,-0.12 -0.165,-0.225 -0.09,-0.12 -0.18,-0.195 -0.075,-0.075 -0.105,0.015 z" />
      <path
         id="path92"
         style=""
         d="m 270.12797,374.86 -9.495,0 0,-18.33 9.495,0 0,18.33 z m -1.905,-12.465 q -0.255,0.15 -0.51,0.255 -0.195,0.09 -0.375,0.195 -0.165,0.105 -0.195,0.18 -0.045,0.045 -0.075,0.255 -0.015,0.21 0,0.435 0.03,0.21 0.045,0.42 0.015,0.21 0.015,0.3 0,0.15 0,0.375 0,0.225 -0.015,0.45 -0.015,0.225 -0.045,0.42 -0.03,0.195 -0.06,0.225 -0.045,0.15 -0.105,0.21 -0.06,0.045 -0.165,-0.03 -0.12,-0.03 -0.225,-0.15 -0.105,-0.12 -0.21,-0.225 -0.105,-0.075 -0.525,0.015 -0.42,0.09 -0.75,0.09 -0.405,0 -0.585,-0.045 -0.165,-0.06 -0.225,-0.27 -0.06,-0.105 -0.075,-0.18 -0.015,-0.09 -0.045,-0.18 -0.015,-0.09 -0.015,-0.15 l -0.045,0.225 q -0.015,0.075 -0.06,0.165 -0.045,0.075 -0.105,0.105 -0.21,0.075 -0.255,-0.21 -0.03,-0.285 -0.03,-0.525 0,-0.225 -0.015,-0.42 0,-0.21 0.045,-0.405 0.105,-0.36 0.105,-0.525 0,-0.09 -0.06,-0.315 -0.03,-0.045 -0.045,-0.075 0.045,0 0.12,-0.015 0.18,-0.06 0.195,-0.06 0.015,0 0.045,0.285 0.045,0.27 0.06,0.555 0.015,0.435 0.015,0.87 l 0.03,-1.65 0,-0.135 q 0,-0.135 -0.06,-0.135 -0.075,0 -0.225,0 -0.135,0 -0.345,0.03 -0.195,0.03 -0.375,0.15 -0.165,0.105 -0.27,0.315 -0.09,0.195 -0.09,0.705 0,0.495 0,1.035 0.015,0.54 0.09,1.005 0.075,0.45 0.075,0.54 0,0.12 0,0.54 0,0.42 -0.045,0.945 -0.03,0.51 -0.03,0.93 0,0.42 0,0.45 0,0.03 0.03,0.135 0.045,0.105 0.09,0.195 0.045,0.09 0.105,0.18 0.06,0.075 0.195,0.06 0.21,-0.045 0.42,-0.195 0.225,-0.165 0.225,-0.3 0,-0.06 -0.045,-0.15 -0.045,-0.09 -0.105,-0.165 -0.06,-0.105 -0.105,-0.195 l 0.045,-0.945 q 0.03,-0.345 0.045,-0.645 0.015,-0.315 0.015,-0.375 0,-0.09 -0.15,-0.255 -0.135,-0.165 0.015,-0.285 0.135,-0.075 0.27,-0.045 0.135,0.03 0.195,0.03 0.045,0 0.27,0.015 0.225,0 0.48,0.03 0.27,0.03 0.585,0.045 0.315,0 0.51,0 0.39,0 0.48,0 0.09,-0.015 0.165,-0.075 0.075,-0.015 0.135,-0.12 0.075,-0.045 0.09,-0.075 l 0.165,0.075 q 0.045,0.045 0.12,0.09 0.075,0.045 0.09,0.09 0.015,0.06 0.015,0.345 0.015,0.285 0.075,0.66 0.06,0.36 0.06,0.69 0.015,0.33 0.015,0.465 0,0.06 -0.015,0.27 0,0.21 -0.06,0.42 -0.045,0.195 0,0.375 0.06,0.165 0.09,0.18 0.12,0.045 0.33,-0.06 0.225,-0.105 0.375,-0.225 0.015,-0.09 0,-0.225 0,-0.135 -0.075,-0.315 -0.075,-0.195 -0.105,-0.345 -0.015,-0.165 -0.015,-0.285 0,-0.105 0,-0.435 0.015,-0.33 0.015,-0.78 0.015,-0.45 0.015,-0.975 0,-0.54 0,-0.99 0,-0.45 0,-0.75 0,-0.315 0,-0.42 0,-0.195 0.09,-0.48 0.09,-0.285 0.09,-0.39 0,-0.15 -0.165,-0.27 l -0.06,-0.09 q 0.015,-0.03 0.045,-0.075 0.03,-0.03 0.09,-0.045 0.075,-0.015 0.105,-0.015 0.09,0 0.18,-0.09 0.09,-0.105 -0.015,-0.24 z m -2.28,2.49 -1.59,-0.03 q 0.075,0.12 0.315,0.135 0.24,0 0.54,-0.015 l 0.735,-0.09 z m -1.845,2.22 q -0.045,-0.015 -0.045,0.15 0,0.165 0,0.435 0,0.27 0.015,0.51 0.03,0.24 0.03,0.3 0.03,0.18 0.03,0.48 0,0.285 -0.045,0.45 -0.03,0.075 -0.045,0.12 0,0.03 0,0.075 l 0,0.075 q 0.015,-0.225 0.06,-0.495 0.06,-0.195 0.09,-0.465 0.03,-0.285 0.03,-0.585 0,-0.51 0,-0.75 0,-0.24 -0.12,-0.3 z m 4.23,-2.325 q 0,0.03 -0.015,0.315 -0.015,0.27 -0.015,0.54 0,0.27 0,0.54 0,0.255 0,0.27 0,0.06 0,0.24 0,0.165 0,0.36 0,0.18 0.015,0.375 0.015,0.195 0.03,0.24 0.015,0.12 0.015,0.33 0,0.21 0,0.51 l 0,0.645 q 0.015,-0.12 0.015,-0.255 0,-0.21 0.015,-0.255 l 0,-0.795 q 0,-0.24 -0.015,-0.645 0,-0.105 0.015,-0.225 0,-0.09 0.03,-0.195 0.03,-0.12 0.03,-0.195 0,-0.09 -0.03,-0.555 -0.03,-0.465 -0.045,-1.035 -0.015,-0.645 -0.015,-1.44 -0.015,0.285 -0.015,0.57 0,0.225 -0.015,0.42 0,0.18 0,0.24 z" />
      <path
         id="path94"
         style=""
         d="m 279,374.86 -9.495,0 0,-18.33 9.495,0 0,18.33 z m -4.575,-12.885 q -0.15,0 -0.555,0 -0.405,-0.015 -0.855,-0.03 -0.45,-0.03 -0.825,-0.045 -0.36,-0.03 -0.435,-0.03 -0.165,0 -0.21,0.09 -0.045,0.075 -0.06,0.24 0,0.18 0.225,0.405 0.225,0.225 0.3,0.27 0.045,0.045 0.195,0.06 0.15,0 0.315,0.015 0.18,0 0.33,0 0.15,0 0.18,-0.015 0.12,-0.06 0.165,-0.135 0.06,-0.075 0.33,-0.075 0.105,0 0.165,0.12 0.06,0.105 0.09,0.285 0.045,0.165 0.06,0.36 0.015,0.18 0.045,0.315 0.03,0.135 0.015,0.705 -0.015,0.57 -0.045,1.245 -0.03,0.66 -0.075,1.335 -0.03,0.675 -0.06,0.99 -0.075,0.66 0.06,0.945 0.15,0.285 0.27,0.33 0.12,0.03 0.3,-0.06 0.195,-0.105 0.27,-0.195 0.06,-0.06 0.03,-0.18 -0.03,-0.135 -0.09,-0.285 l -0.105,-0.435 0,-5.25 0.09,0 q 0.06,0 0.09,0 0.045,-0.015 0.105,-0.015 0.15,0.015 0.21,0.06 0.06,0.045 0.24,0.045 0.195,0 0.21,-0.015 0.015,-0.015 0.135,-0.075 0.15,-0.015 0.345,-0.045 0.195,-0.03 0.33,0.09 0.135,0.105 0.195,0.075 0.075,-0.03 0.315,-0.06 0.27,-0.06 0.36,-0.285 0.09,-0.225 -0.09,-0.75 -0.06,-0.225 -0.225,-0.285 -0.165,-0.075 -0.345,-0.045 -0.165,0.03 -0.315,0.12 -0.135,0.075 -0.21,0.09 -0.135,0.06 -0.375,0.06 -0.24,0 -0.39,0 -0.12,0.015 -0.225,0.045 -0.09,0.015 -0.225,0.015 -0.135,0 -0.255,0 z m 0.51,1.29 q 0,1.485 0.03,2.64 0,0.525 0.015,1.02 0.015,0.48 0.015,0.885 0.015,0.39 0.015,0.66 0,0.27 0,0.285 0,0.15 -0.045,0.285 -0.03,0.09 -0.06,0.12 0.09,0 0.15,-0.12 0.045,-0.06 0.075,-0.255 0.03,-0.195 0,-0.555 0,-0.375 -0.015,-1.14 -0.015,-0.78 -0.015,-1.56 0,-0.78 0,-1.38 0,-0.6 0,-0.645 0,-0.12 0.135,-0.12 0.045,0 0.27,0 0.225,0 0.48,-0.03 0.27,-0.03 0.495,-0.045 0.225,-0.015 0.3,-0.045 0.165,-0.12 0.27,-0.225 0.09,-0.09 0.12,-0.165 -0.06,0.12 -0.18,0.18 -0.225,0.21 -0.495,0.21 -0.15,0 -0.405,-0.015 -0.255,-0.03 -0.51,-0.03 -0.24,0 -0.435,0 -0.18,0 -0.21,0.045 z" />
    </g>
  </g>
</svg>
