<?xml version="1.0" encoding="UTF-8" standalone="no"?>
<svg
   xmlns:dc="http://purl.org/dc/elements/1.1/"
   xmlns:cc="http://creativecommons.org/ns#"
   xmlns:rdf="http://www.w3.org/1999/02/22-rdf-syntax-ns#"
   xmlns:svg="http://www.w3.org/2000/svg"
   xmlns="http://www.w3.org/2000/svg"
   version="1.1"
   id="svg3594"
   height="380px"
   width="45">
  <metadata
     id="metadata16">
    <rdf:RDF>
      <cc:Work
         rdf:about="">
        <dc:format>image/svg+xml</dc:format>
        <dc:type
           rdf:resource="http://purl.org/dc/dcmitype/StillImage" />
      </cc:Work>
    </rdf:RDF>
  </metadata>
  <defs
     id="defs14" />
  <g
     id="background">
    <path
       id="rect3597"
       d="m 0,0 45,0 0,380 -45,0 z"
       style="fill:#f0f0f0;fill-opacity:1;fill-rule:nonzero;stroke:none" />
  </g>
  <g
     style="font-size:15px;font-family:'Impact Label';fill:#000000;stroke:none"
     font-size="15"
     id="gridlayer">
    <g
       id="text6"
       style="text-anchor:middle;fill:#c02800">
      <path
         id="path20"
         style="text-anchor:middle;fill:#c02800"
         d="m 18.408516,34.86 -9.5100004,0 0,-18.33 9.5100004,0 0,18.33 z m -7.695,-13.11 q -0.105,-0.015 -0.285,0.21 -0.18,0.225 -0.24,0.435 -0.03,0.075 0.015,0.435 0.045,0.36 0.09,0.87 0.06,0.51 0.135,1.11 0.075,0.6 0.135,1.14 0.075,0.54 0.135,0.93 0.06,0.39 0.075,0.525 0.045,0.375 0.075,0.72 0.03,0.345 0.03,0.42 0,0.06 0,0.285 0,0.21 0.18,0.315 0.21,0.09 0.405,0.03 0.21,-0.075 0.39,-0.45 0.09,-0.18 0.18,-0.465 0.105,-0.285 0.225,-0.57 0.135,-0.285 0.24,-0.51 0.105,-0.24 0.255,-0.39 0.21,-0.225 0.315,-0.345 0.12,-0.135 0.12,-0.33 0.015,-0.15 -0.075,-0.195 -0.075,-0.06 -0.12,-0.21 -0.06,-0.105 -0.015,-0.285 0.045,-0.18 0.165,-0.195 0.105,-0.045 0.255,0.165 0.165,0.195 0.255,0.3 0.06,0.045 0.24,0.315 0.195,0.255 0.405,0.6 0.21,0.345 0.39,0.63 0.195,0.285 0.21,0.375 0.015,0.075 0.09,0.345 0.09,0.255 0.21,0.54 0.135,0.27 0.255,0.465 0.135,0.18 0.27,0.135 0.15,-0.06 0.195,-0.225 0.06,-0.18 0.06,-0.42 0,-0.24 0,-0.465 0,-0.24 0.03,-0.42 0.03,-0.18 0.075,-0.81 0.06,-0.645 0.105,-1.35 0.06,-0.72 0.12,-1.335 0.06,-0.63 0.135,-0.765 0.15,-0.285 0.255,-0.615 0.12,-0.33 0.075,-0.495 -0.06,-0.165 -0.195,-0.315 -0.135,-0.15 -0.225,-0.15 -0.105,0 -0.33,0.345 -0.21,0.33 -0.21,0.675 0,0.165 -0.045,0.75 -0.045,0.57 -0.12,1.245 -0.06,0.675 -0.15,1.26 -0.075,0.585 -0.09,0.75 -0.075,0.315 -0.075,0.495 0.015,0.165 -0.165,0.045 -0.21,-0.09 -0.36,-0.195 -0.15,-0.105 -0.18,-0.285 -0.06,-0.195 -0.105,-0.375 -0.045,-0.18 0.09,-0.18 0.12,0 0.165,0 0.06,-0.015 0.06,-0.15 0,-0.12 -0.135,-0.345 -0.135,-0.24 -0.255,-0.405 -0.105,-0.18 -0.27,-0.375 -0.15,-0.195 -0.18,-0.375 -0.015,-0.225 -0.075,-0.51 -0.06,-0.285 -0.105,-0.375 -0.015,-0.075 -0.06,-0.18 -0.045,-0.12 -0.105,-0.105 -0.03,0.045 -0.105,0.12 -0.06,0.075 -0.105,0.09 -0.06,0.06 -0.27,0.27 -0.21,0.195 -0.21,0.405 -0.03,0.135 -0.075,0.36 -0.03,0.21 -0.09,0.375 -0.045,0.165 -0.03,0.24 0.03,0.06 -0.015,0.21 -0.075,0.12 -0.27,0.24 -0.18,0.105 -0.24,0.24 -0.015,0.09 -0.105,0.27 -0.075,0.165 -0.165,0.345 -0.09,0.165 -0.195,0.315 -0.09,0.15 -0.12,0.24 -0.135,0.135 -0.105,0.18 0.03,0.045 -0.045,-0.015 -0.06,-0.03 -0.09,-0.21 -0.03,-0.18 -0.09,-0.42 -0.06,-0.255 -0.09,-0.48 -0.015,-0.24 -0.015,-0.36 0,-0.15 -0.045,-0.495 -0.03,-0.36 -0.075,-0.765 -0.045,-0.42 -0.075,-0.765 -0.03,-0.345 -0.03,-0.45 0.045,-0.195 0.06,-0.585 0.015,-0.39 0.015,-0.54 0,-0.15 -0.15,-0.315 -0.15,-0.165 -0.21,-0.195 z m 0.81,0.435 q 0.06,0.495 0.135,0.945 0.03,0.36 0.06,0.72 0.03,0.36 0,0.495 -0.03,0.12 -0.03,0.285 0,0.15 0,0.27 l 0,0.27 q 0.03,-0.195 0.09,-0.36 0.06,-0.12 0.075,-0.24 0.03,-0.12 0.03,-0.18 0,-0.045 -0.075,-0.39 -0.06,-0.36 -0.12,-0.75 l -0.165,-1.065 z m 2.4,1.29 q 0.165,0.285 0.285,0.525 0.135,0.21 0.225,0.39 0.105,0.18 0.135,0.24 0.045,0.06 0.105,0.195 0.06,0.135 0.135,0.285 0.075,0.135 0.105,0.24 0.045,0.105 0.045,0.075 0,-0.015 -0.135,-0.315 -0.12,-0.3 -0.3,-0.645 -0.18,-0.36 -0.36,-0.66 -0.165,-0.315 -0.24,-0.33 z m 3.165,-0.885 q -0.045,0.72 -0.135,1.305 -0.06,0.495 -0.105,0.945 -0.045,0.45 -0.045,0.57 0,0.105 -0.06,0.57 -0.045,0.465 -0.105,1.035 -0.045,0.555 -0.105,1.005 -0.045,0.45 -0.045,0.525 0,0.12 -0.045,0.345 -0.03,0.225 -0.135,0.315 -0.165,0.165 -0.345,0.105 -0.06,-0.03 -0.105,-0.09 -0.045,-0.015 -0.045,-0.045 l 0.105,0.15 q 0.12,0.165 0.24,0.135 0.36,-0.06 0.39,-0.705 0,-0.165 0.06,-0.645 0.06,-0.495 0.105,-1.05 0.06,-0.555 0.105,-1.035 0.06,-0.48 0.075,-0.6 0,-0.135 0.03,-0.585 0.03,-0.45 0.075,-0.945 0.06,-0.585 0.09,-1.305 z m -5.115,6.615 q -0.195,0.255 -0.255,0.255 -0.06,-0.015 -0.135,0.045 -0.015,0.09 0.09,0.075 0.105,-0.015 0.345,-0.255 0.105,-0.12 0.27,-0.435 0.18,-0.315 0.33,-0.66 0.15,-0.36 0.285,-0.63 0.135,-0.27 0.15,-0.33 0.06,-0.045 0.09,-0.165 0.045,-0.12 0.075,-0.255 0.06,-0.15 0.105,-0.345 -0.285,0.66 -0.57,1.2 -0.24,0.495 -0.465,0.93 -0.225,0.42 -0.315,0.57 z" />
      <path
         id="path22"
         style="text-anchor:middle;fill:#c02800"
         d="m 27.164062,34.86 -9.495,0 0,-18.33 9.495,0 0,18.33 z m -4.575,-12.885 q -0.15,0 -0.555,0 -0.405,-0.015 -0.855,-0.03 -0.449999,-0.03 -0.824999,-0.045 -0.360001,-0.03 -0.435001,-0.03 -0.165,0 -0.209999,0.09 -0.045,0.075 -0.06,0.24 0,0.18 0.225,0.405 0.225,0.225 0.300001,0.27 0.045,0.045 0.194999,0.06 0.15,0 0.315,0.015 0.18,0 0.330001,0 0.149999,0 0.179999,-0.015 0.12,-0.06 0.165,-0.135 0.06,-0.075 0.33,-0.075 0.105,0 0.165001,0.12 0.06,0.105 0.09,0.285 0.045,0.165 0.06,0.36 0.015,0.18 0.045,0.315 0.03,0.135 0.015,0.705 -0.015,0.57 -0.045,1.245 -0.03,0.66 -0.075,1.335 -0.03,0.675 -0.06,0.99 -0.075,0.66 0.06,0.945 0.15,0.285 0.27,0.33 0.120001,0.03 0.300001,-0.06 0.195,-0.105 0.269999,-0.195 0.06,-0.06 0.03,-0.18 -0.03,-0.135 -0.09,-0.285 l -0.105,-0.435 0,-5.25 0.09,0 q 0.06,0 0.09,0 0.045,-0.015 0.105001,-0.015 0.149999,0.015 0.209999,0.06 0.06,0.045 0.240001,0.045 0.194999,0 0.209999,-0.015 0.015,-0.015 0.135,-0.075 0.150001,-0.015 0.345,-0.045 0.195,-0.03 0.33,0.09 0.135,0.105 0.195,0.075 0.075,-0.03 0.315,-0.06 0.270001,-0.06 0.36,-0.285 0.09,-0.225 -0.09,-0.75 -0.06,-0.225 -0.225001,-0.285 -0.164999,-0.075 -0.344999,-0.045 -0.165001,0.03 -0.315001,0.12 -0.135,0.075 -0.21,0.09 -0.135,0.06 -0.375,0.06 -0.24,0 -0.389999,0 -0.12,0.015 -0.225001,0.045 -0.09,0.015 -0.225,0.015 -0.134999,0 -0.255,0 z m 0.510001,1.29 q 0,1.485 0.03,2.64 0,0.525 0.015,1.02 0.015,0.48 0.015,0.885 0.015,0.39 0.015,0.66 0,0.27 0,0.285 0,0.15 -0.045,0.285 -0.03,0.09 -0.06,0.12 0.09,0 0.15,-0.12 0.045,-0.06 0.075,-0.255 0.03,-0.195 0,-0.555 0,-0.375 -0.015,-1.14 -0.015,-0.78 -0.015,-1.56 0,-0.78 0,-1.38 0,-0.6 0,-0.645 0,-0.12 0.134999,-0.12 0.045,0 0.27,0 0.225,0 0.48,-0.03 0.27,-0.03 0.495,-0.045 0.225,-0.015 0.3,-0.045 0.165,-0.12 0.27,-0.225 0.09,-0.09 0.120001,-0.165 -0.06,0.12 -0.18,0.18 -0.225001,0.21 -0.495001,0.21 -0.15,0 -0.405,-0.015 -0.255,-0.03 -0.51,-0.03 -0.24,0 -0.435,0 -0.18,0 -0.209999,0.045 z" />
      <path
         id="path24"
         style="text-anchor:middle;fill:#c02800"
         d="m 35.984531,34.86 -9.51,0 0,-18.33 9.51,0 0,18.33 z m -2.94,-10.14 q 0.12,0.195 0.285,0.21 0.165,0 0.195,-0.045 0.06,-0.06 0.165,-0.36 0.105,-0.315 -0.015,-0.615 -0.09,-0.165 -0.33,-0.42 -0.225,-0.27 -0.51,-0.525 -0.285,-0.27 -0.51,-0.465 -0.225,-0.195 -0.27,-0.24 -0.135,-0.045 -0.15,-0.09 0,-0.06 -0.105,-0.015 -0.105,0.06 -0.33,0.105 -0.225,0.045 -0.345,0.045 -0.09,0 -0.33,0.045 -0.24,0.045 -0.555,0.21 -0.315,0.15 -0.66,0.465 -0.33,0.3 -0.525,0.81 -0.36,0.99 -0.39,2.085 -0.03,1.095 0.54,2.085 0.555,1.005 1.38,1.41 0.84,0.39 1.83,0.105 0.465,-0.165 0.75,-0.51 0.3,-0.345 0.45,-0.735 0.165,-0.405 0.21,-0.735 0.045,-0.33 0.09,-0.45 0.015,-0.225 -0.075,-0.45 -0.09,-0.225 -0.195,-0.225 -0.135,0 -0.27,0.06 -0.135,0.045 -0.165,0.195 -0.045,0.03 -0.075,0.195 -0.015,0.165 -0.06,0.36 -0.03,0.18 -0.075,0.36 -0.045,0.165 -0.06,0.24 -0.06,0.09 -0.21,0.285 -0.135,0.18 -0.36,0.36 -0.225,0.165 -0.54,0.3 -0.3,0.12 -0.615,0.06 -0.66,-0.105 -1.305,-0.9 -0.645,-0.795 -0.69,-2.04 -0.015,-0.615 0.165,-1.065 0.18,-0.45 0.42,-0.765 0.255,-0.315 0.51,-0.495 0.255,-0.18 0.375,-0.24 0.12,-0.045 0.39,-0.03 0.27,0 0.57,0.06 0.315,0.045 0.555,0.135 0.24,0.075 0.3,0.09 0.105,0.105 0.195,0.255 0.09,0.15 0.12,0.285 0.06,0.09 0.09,0.315 0.045,0.21 0.135,0.285 z m 0.63,0.345 q 0.075,0.03 0.18,0.03 0.18,0 0.21,-0.12 0.06,-0.15 0.06,-0.6 0,-0.465 -0.285,-0.99 -0.315,-0.54 -0.72,-0.9 -0.405,-0.375 -0.675,-0.51 -0.12,-0.06 -0.255,-0.105 -0.135,-0.06 -0.225,-0.105 -0.12,-0.06 -0.255,-0.06 0.39,0.165 0.78,0.375 0.3,0.18 0.615,0.465 0.315,0.285 0.51,0.615 0.36,0.705 0.42,1.095 0.06,0.375 -0.015,0.51 -0.165,0.21 -0.225,0.24 -0.06,0.06 -0.12,0.06 z m -3.84,-0.06 q -0.165,0.48 -0.12,0.93 0.045,0.45 0.135,0.78 0.105,0.315 0.21,0.54 0.105,0.225 0.105,0.24 0,0.06 -0.195,-0.465 -0.18,-0.525 -0.12,-1.575 0.03,-0.525 0.225,-0.885 0.21,-0.36 0.435,-0.555 0.3,-0.27 0.615,-0.405 -0.03,-0.03 -0.18,0 -0.135,0.03 -0.345,0.195 -0.21,0.15 -0.435,0.45 -0.21,0.285 -0.33,0.75 z m 4.35,1.74 q 0,0.405 -0.09,0.84 -0.06,0.36 -0.21,0.78 -0.15,0.42 -0.465,0.705 -0.285,0.3 -0.585,0.495 -0.285,0.18 -0.51,0.315 -0.285,0.12 -0.525,0.18 0.42,-0.12 0.81,-0.315 0.345,-0.15 0.66,-0.405 0.315,-0.27 0.525,-0.705 0.225,-0.375 0.285,-0.72 0.06,-0.36 0.105,-0.615 0.015,-0.285 0,-0.555 z" />
    </g>
    <g
       id="text8"
       style="text-anchor:middle">
      <path
         id="path27"
         style="text-anchor:middle"
         d="m 22.700859,122.86 -9.495,0 0,-18.33 9.495,0 0,18.33 z m -3.585,-12.735 0.045,0.03 q 0.045,0.045 0.15,0 0.12,-0.03 0.12,-0.075 0,-0.06 -0.15,-0.105 -0.135,-0.045 -0.24,0.06 -0.09,0.09 -0.18,0.12 -0.09,0.06 -0.18,0.195 -0.09,0.12 -0.495,0.195 -0.39,0.045 -0.615,0.03 -0.225,-0.015 -0.435,-0.03 -0.09,0 -0.255,-0.015 -0.165,-0.03 -0.3,0 -0.135,0.015 -0.255,0.105 -0.12,0.09 -0.135,0.285 -0.045,0.195 0.075,0.27 0.135,0.075 0.315,0.09 0.195,0 0.36,0 0.165,0 0.225,0.045 0.255,0.33 0.255,1.125 0,0.195 0.015,0.81 0.015,0.615 0.03,1.32 0.03,0.705 0.03,1.29 0,0.585 0,0.66 -0.045,0.18 -0.105,0.345 -0.045,0.15 -0.21,0.21 -0.135,0.045 -0.24,0 -0.09,-0.06 -0.225,-0.045 -0.06,0 -0.15,0.12 -0.09,0.105 -0.165,0.225 -0.075,0.105 -0.135,0.225 -0.06,0.12 0,0.15 0.075,0.075 0.495,0.045 0.42,-0.045 0.69,-0.045 0.24,0 0.525,0.03 0.285,0.015 0.51,0.045 0.21,0.06 0.465,0.06 0.27,-0.015 0.39,-0.225 0.12,-0.18 0.165,-0.405 0.06,-0.225 -0.045,-0.33 -0.15,-0.15 -0.405,-0.09 -0.075,0.015 -0.21,-0.09 -0.135,-0.105 -0.21,-0.105 -0.105,0 -0.27,0.135 -0.15,0.135 -0.225,0.12 -0.06,0 -0.075,-0.165 0,-0.165 -0.015,-0.345 -0.015,-0.195 -0.015,-0.375 0,-0.195 0,-0.285 l 0,-3.84 q 0,-0.225 0,-0.33 0,-0.105 0.09,-0.165 0.195,-0.075 0.39,0 0.075,0.045 0.315,0.105 0.255,0.045 0.39,-0.105 0.12,-0.105 0.24,-0.24 0.135,-0.15 0.075,-0.3 -0.075,-0.3 -0.33,-0.39 -0.12,-0.045 -0.195,-0.09 -0.06,-0.06 0.015,-0.105 0.03,-0.06 0.3,-0.06 0.285,-0.015 0.345,0.21 0.015,0.135 0.015,0.24 0,0.105 0,0.195 l 0,0.18 q 0.045,-0.21 0.045,-0.375 0,-0.12 -0.03,-0.255 -0.03,-0.135 -0.09,-0.195 -0.045,-0.06 -0.135,-0.06 -0.09,0 -0.165,-0.015 -0.105,0 -0.195,-0.015 z m -2.01,-0.21 2.175,0.06 q -0.525,-0.045 -0.975,-0.06 -0.375,-0.045 -0.735,-0.045 -0.345,-0.015 -0.465,0.045 z m 1.47,2.22 0.06,4.17 0.12,-0.03 q -0.045,-0.045 -0.045,-0.075 0,-0.015 -0.015,-0.045 0,-0.03 0,-0.075 -0.03,-0.075 -0.045,-0.705 -0.015,-0.63 -0.045,-1.35 l -0.03,-1.89 z m 0.225,4.26 q 0,0.06 0.075,0.09 0.075,0.015 0.195,0.015 0.135,0 0.225,0.015 0.105,0.015 0.135,0.015 0.06,0.045 0.18,0.18 0.12,0.135 0.12,0.225 0,0.105 0.015,0.24 0.03,0.12 0,0.045 -0.015,-0.03 -0.015,-0.33 0.015,-0.315 -0.24,-0.435 -0.255,-0.15 -0.45,-0.195 -0.18,-0.06 -0.24,0.135 z" />
      <path
         id="path29"
         style="text-anchor:middle"
         d="m 31.767187,122.86 -9.51,0 0,-18.33 9.51,0 0,18.33 z m -6.479999,-5.805 q 0.03,-0.12 -0.09,-0.3 -0.12,-0.18 -0.15,-0.3 0,-0.075 -0.015,-0.42 0,-0.345 -0.015,-0.78 -0.015,-0.45 -0.015,-0.855 0,-0.42 0,-0.675 0.03,-0.435 0.06,-0.69 0.045,-0.255 0.015,-0.375 -0.03,-0.045 -0.135,0.15 -0.06,0.105 -0.134999,0.195 -0.015,-0.225 -0.045,-0.45 -0.015,-0.18 -0.015,-0.345 0.015,-0.18 0.06,-0.225 0.134999,-0.09 0.209999,-0.165 0.09,-0.09 0.195,-0.015 0.015,0.015 0.195,0.33 0.195,0.3 0.45,0.735 0.270001,0.42 0.57,0.93 0.3,0.495 0.555,0.945 0.255,0.45 0.435,0.75 0.195,0.285 0.225,0.36 l 0.525,0.705 q 0.015,0.015 0.045,0.165 0.045,0.135 0.075,0.3 0.045,0.165 0.09,0.33 0.06,0.15 0.135,0.18 0.06,0.045 0.21,0.075 0.165,0.015 0.315001,0 0.149999,-0.03 0.284999,-0.09 0.135,-0.06 0.15,-0.21 0.06,-0.285 -0.06,-0.69 -0.120001,-0.42 -0.120001,-1.41 0,-0.465 0.015,-1.065 0.03,-0.6 0.03,-1.185 0,-0.585 0,-1.035 0.015,-0.465 0.03,-0.645 0.045,-0.375 0.105,-0.585 0.075,-0.21 0.045,-0.315 -0.045,-0.06 -0.06,-0.15 0,-0.09 -0.045,-0.195 -0.06,-0.105 -0.075,-0.21 -0.09,0.12 -0.165,0.225 -0.165,0.255 -0.255,0.315 -0.09,0.03 -0.225,0.105 -0.12,0.075 -0.134999,0.195 0,0.15 0.105,0.525 0.119999,0.375 0.075,0.705 0,0.135 -0.015,0.63 0,0.48 -0.03,1.035 -0.03,0.555 -0.045,1.035 -0.015,0.48 -0.015,0.6 -0.06,0.21 -0.09,0.48 -0.03,0.27 -0.165,0.36 -0.105,0.105 -0.255,0.09 -0.135,-0.03 -0.24,-0.24 -0.12,-0.195 -0.195,-0.33 -0.075,-0.15 -0.105,-0.315 -0.045,-0.165 -0.075,-0.3 -0.015,-0.135 0.075,-0.165 0.06,-0.03 0.075,-0.03 0.015,0 0.09,-0.045 0.06,0 0.075,-0.015 -0.21,-0.24 -0.389999,-0.465 -0.390001,-0.45 -0.510001,-0.675 -0.075,-0.105 -0.255,-0.465 -0.164999,-0.36 -0.359999,-0.765 -0.18,-0.405 -0.360001,-0.765 -0.165,-0.36 -0.21,-0.435 -0.135,-0.165 -0.285,-0.525 -0.135,-0.36 -0.225,-0.435 -0.075,-0.06 -0.075,-0.165 0,-0.12 0,-0.165 0,-0.06 -0.03,0.03 -0.015,0.075 -0.09,0.165 -0.09,0.075 -0.36,0.21 -0.27,0.135 -0.315,0.27 0,0.09 0.03,0.24 0.045,0.135 0.105,0.285 0.075,0.15 0.12,0.285 0.045,0.135 0.045,0.165 0.03,0.15 -0.06,0.465 -0.075,0.315 -0.075,0.495 0,0.21 -0.06,0.45 -0.06,0.225 -0.06,0.39 0,0.075 -0.03,0.615 -0.015,0.525 -0.015,1.17 0,0.645 0,1.215 0,0.57 0.045,0.72 0.18,0.57 0.45,0.54 0.12,-0.06 0.255001,-0.225 0.149999,-0.18 0.18,-0.255 z m -0.150001,0.57 q -0.03,0.03 -0.015,0.135 0.015,0.09 0.03,0.045 0,-0.045 0.06,-0.105 0.075,-0.075 0.12,-0.165 0.09,-0.09 0.18,-0.225 l -0.135,0.135 q -0.165,0.09 -0.24,0.18 z m 0.435,-0.54 0,-1.23 q 0,-0.48 0,-0.885 0,-0.405 0.03,-0.465 0,-0.06 -0.045,-0.255 -0.045,-0.195 -0.075,-0.405 -0.09,-0.225 -0.150001,-0.495 0.06,0.99 0.12,1.8 0.03,0.345 0.03,0.705 0.015,0.345 0.045,0.615 0.03,0.255 0.03,0.42 0.015,0.165 0.015,0.195 z m 2.25,-3.18 q -0.18,-0.36 -0.36,-0.735 -0.165,-0.33 -0.345,-0.66 -0.165,-0.33 -0.3,-0.555 -0.134999,-0.225 -0.3,-0.525 -0.15,-0.315 -0.315,-0.6 -0.15,-0.285 -0.285,-0.51 -0.135,-0.225 -0.24,-0.285 -0.105,-0.06 -0.18,-0.105 -0.075,-0.06 -0.165,-0.105 -0.105,-0.06 -0.18,-0.075 0.3,0.345 0.585,0.75 0.27,0.375 0.585,0.885 0.315,0.51 0.63,1.08 0.315,0.6 0.480001,0.885 0.179999,0.285 0.239999,0.42 0.135001,0.135 0.15,0.135 z m 1.95,2.955 0,0.33 q 0.03,-0.015 0.03,-0.105 0,-0.06 0,-0.105 0,-0.045 -0.03,-0.12 z m -0.99,1.155 0.105,0 q 0.03,0 0.195,-0.06 0.06,0 0.12,-0.03 0.06,-0.045 0.15,-0.105 0.105,-0.06 0.18,-0.135 l -0.75,0.33 z m -3,-3.03 0.150001,-0.12 -0.03,-0.12 -0.12,0.24 z m 3.93,1.575 0,-0.06 q 0,-0.015 0.015,-0.06 0.015,-0.045 0.015,-0.105 0,-0.045 0.06,-0.12 0.06,-0.075 0.06,-0.165 l 0,-2.79 q 0,-1.23 0.015,-2.76 -0.06,0.09 -0.09,0.39 -0.015,0.285 -0.045,0.72 -0.03,0.42 -0.03,0.96 0,0.54 0,1.11 l 0,2.88 z" />
    </g>
    <g
       id="text10"
       style="text-anchor:middle;fill:#0000a0">
      <path
         id="path32"
         style="text-anchor:middle;fill:#0000a0"
         d="m 18.422812,222.86 -9.4799995,0 0,-18.33 9.4799995,0 0,18.33 z m -4.754999,-11.85 q 0.42,0.045 0.735,0.33 0.33,0.27 0.554999,0.675 0.225001,0.39 0.345001,0.87 0.12,0.48 0.12,0.945 0,0.465 -0.135,0.99 -0.12,0.51 -0.36,0.93 -0.24,0.405 -0.555,0.675 -0.315,0.27 -0.66,0.27 -0.36,0 -0.795,-0.15 -0.42,-0.165 -0.795,-0.525 -0.36,-0.375 -0.6,-0.96 -0.24,-0.6 -0.18,-1.47 0.03,-0.87 0.36,-1.38 0.344999,-0.525 0.735,-0.795 0.405,-0.285 0.765,-0.36 0.375,-0.075 0.465,-0.045 z m 1.08,-0.465 q -0.36,-0.345 -0.615,-0.48 -0.255,-0.15 -0.135,0.09 0,0.045 -0.33,0.045 -0.315,0 -0.795,0.09 -0.465,0.09 -0.945,0.33 -0.48,0.225 -0.735,0.735 -0.3,0.51 -0.48,1.275 -0.165001,0.75 -0.15,1.545 0.03,0.795 0.285,1.515 0.255,0.72 0.824999,1.2 0.600001,0.465 1.185001,0.63 0.585,0.165 1.08,0.09 0.495,-0.09 0.87,-0.39 0.375,-0.3 0.585,-0.675 0.18,-0.39 0.345,-0.885 0.165,-0.51 0.254999,-1.02 0.09,-0.525 0.075,-1.005 -0.015,-0.495 -0.105,-0.885 -0.450001,-1.47 -1.215,-2.205 z m 2.384999,4.47 q -0.06,0.06 -0.06,0.09 0,0.075 0.015,0.12 0.015,0.045 0.09,0.075 l -0.045,-0.285 z m -1.995,-4.905 q -0.344999,-0.195 -0.614999,-0.33 -0.255,-0.135 -0.465,-0.195 -0.240001,-0.075 -0.45,-0.075 l 0.555,0.18 q 0.045,0.015 0.3,0.18 0.27,0.15 0.57,0.375 0.315,0.225 0.584999,0.51 0.285001,0.285 0.405,0.6 0.120001,0.315 0.210001,0.735 0.104999,0.405 0.164999,0.855 0.075,0.45 0.105,0.885 0.03,0.42 -0.03,0.75 -0.105,0.69 -0.3,1.245 -0.18,0.555 -0.779999,1.17 -0.315,0.3 -0.645,0.51 -0.315,0.195 -0.585,0.315 -0.330001,0.15 -0.615,0.225 0.51,-0.135 0.975,-0.345 0.39,-0.18 0.795,-0.48 0.42,-0.315 0.674999,-0.765 0.255001,-0.45 0.375,-0.99 0.135,-0.555 0.195,-1.065 0.06,-0.51 0.045,-0.915 0,-0.405 -0.015,-0.615 -0.045,-0.15 -0.149999,-0.51 -0.105001,-0.375 -0.285001,-0.795 -0.18,-0.435 -0.45,-0.825 -0.254999,-0.405 -0.57,-0.63 z m -2.204999,1.455 q -0.225001,0.12 -0.435,0.3 -0.195,0.165 -0.375,0.42 -0.18,0.255 -0.285,0.585 -0.21,0.69 -0.105,1.47 0.105,0.765 0.314999,1.215 0.120001,0.225 0.300001,0.39 0.18,0.165 0.359999,0.255 0.195001,0.09 0.345001,0.135 0.15,0.045 0.195,0.015 0.045,-0.075 -0.12,-0.21 -0.150001,-0.15 -0.330001,-0.315 -0.09,-0.075 -0.224999,-0.18 -0.12,-0.105 -0.255,-0.3 -0.12,-0.195 -0.225,-0.525 -0.09,-0.345 -0.105,-0.915 -0.075,-0.54 0.06,-0.99 0.150001,-0.45 0.360001,-0.735 0.24,-0.345 0.525,-0.615 z" />
      <path
         id="path34"
         style="text-anchor:middle;fill:#0000a0"
         d="m 27.251953,222.86 -9.495,0 0,-18.33 9.495,0 0,18.33 z m -2.4,-13.215 q -0.105,0 -0.285,0.12 -0.165,0.12 -0.285,0.33 -0.06,0.105 -0.075,0.615 -0.015,0.495 0,1.125 0.03,0.63 0.045,1.245 0.03,0.615 -0.015,0.9 0,0.33 -0.015,0.72 0,0.39 -0.09,0.735 -0.09,0.345 -0.33,0.615 -0.24,0.255 -0.72,0.345 -0.48,0.075 -0.72,0.09 -0.24,0.015 -0.36,-0.03 -0.12,-0.045 -0.15,-0.105 -0.015,-0.06 -0.09,-0.12 -0.135,-0.105 -0.135,-0.135 0,-0.045 -0.075,-0.03 -0.09,0.045 -0.225,-0.09 -0.12,-0.135 -0.27,-0.27 -0.12,-0.135 -0.135,-0.225 0,-0.09 0,-0.15 0.015,-0.045 0.06,-0.105 0.045,-0.06 -0.03,-0.255 -0.03,-0.195 -0.09,-0.45 -0.06,-0.255 -0.06,-0.57 0,-0.165 -0.015,-0.645 -0.015,-0.495 -0.015,-1.02 0,-0.54 0,-0.96 0,-0.42 0.03,-0.48 0.03,-0.075 0.12,-0.33 0.105,-0.255 0.015,-0.42 -0.18,-0.435 -0.45,-0.39 -0.12,0.03 -0.33,0.165 -0.195,0.12 -0.285,0.285 -0.075,0.15 0.03,0.525 0.12,0.36 0.12,0.765 0,0.12 0,0.51 0,0.39 0,0.87 0,0.48 0,1.02 0.015,0.54 0.06,1.05 0.045,0.495 0.12,0.87 0.09,0.36 0.18,0.465 0.165,0.165 0.45,0.39 0.285,0.225 0.66,0.39 0.39,0.165 0.825,0.21 0.45,0.03 0.93,-0.15 0.945,-0.375 1.38,-0.69 0.435,-0.33 0.465,-0.615 0,-0.285 -0.06,-0.555 -0.06,-0.27 -0.075,-0.345 0,-0.03 0,-0.495 0,-0.465 0,-1.02 0,-0.555 0,-1.05 0,-0.51 0,-0.63 0.06,-0.225 0.12,-0.63 0.06,-0.42 0.12,-0.57 0.015,-0.165 -0.12,-0.48 -0.12,-0.33 -0.225,-0.345 z m -3.6,4.62 q -0.075,0.57 0.03,0.795 0.045,0.15 0.105,0.195 0,-0.495 0.015,-0.945 0,-0.36 0.015,-0.75 0.015,-0.39 0.015,-0.585 0,-0.225 -0.015,-0.69 -0.015,-0.48 -0.045,-1.005 -0.06,-0.615 -0.12,-1.29 0,0.03 0.015,0.6 0.015,0.57 0.03,1.305 0.015,0.735 0,1.41 -0.015,0.675 -0.045,0.96 z m 4.26,-3.735 0,2.295 q 0,0.45 0,0.885 0,0.42 -0.015,0.765 -0.015,0.33 -0.03,0.57 0,0.24 0,0.27 -0.045,0.105 -0.075,0.345 -0.03,0.225 -0.15,0.51 -0.105,0.27 -0.315,0.54 -0.195,0.27 -0.54,0.465 -0.375,0.21 -0.72,0.33 -0.33,0.105 -0.585,0.195 -0.285,0.105 -0.57,0.165 0.63,-0.06 1.17,-0.27 0.48,-0.18 0.96,-0.51 0.48,-0.33 0.735,-0.945 0.135,-0.465 0.165,-1.395 0.03,-0.945 0.03,-1.86 0,-1.095 -0.06,-2.355 z" />
      <path
         id="path36"
         style="text-anchor:middle;fill:#0000a0"
         d="m 36.011719,222.86 -9.495,0 0,-18.33 9.495,0 0,18.33 z m -4.575,-12.885 q -0.15,0 -0.555,0 -0.405,-0.015 -0.855,-0.03 -0.45,-0.03 -0.825,-0.045 -0.36,-0.03 -0.435,-0.03 -0.165,0 -0.21,0.09 -0.045,0.075 -0.06,0.24 0,0.18 0.225,0.405 0.225,0.225 0.3,0.27 0.045,0.045 0.195,0.06 0.15,0 0.315,0.015 0.18,0 0.33,0 0.15,0 0.18,-0.015 0.12,-0.06 0.165,-0.135 0.06,-0.075 0.33,-0.075 0.105,0 0.165,0.12 0.06,0.105 0.09,0.285 0.045,0.165 0.06,0.36 0.015,0.18 0.045,0.315 0.03,0.135 0.015,0.705 -0.015,0.57 -0.045,1.245 -0.03,0.66 -0.075,1.335 -0.03,0.675 -0.06,0.99 -0.075,0.66 0.06,0.945 0.15,0.285 0.27,0.33 0.12,0.03 0.3,-0.06 0.195,-0.105 0.27,-0.195 0.06,-0.06 0.03,-0.18 -0.03,-0.135 -0.09,-0.285 l -0.105,-0.435 0,-5.25 0.09,0 q 0.06,0 0.09,0 0.045,-0.015 0.105,-0.015 0.15,0.015 0.21,0.06 0.06,0.045 0.24,0.045 0.195,0 0.21,-0.015 0.015,-0.015 0.135,-0.075 0.15,-0.015 0.345,-0.045 0.195,-0.03 0.33,0.09 0.135,0.105 0.195,0.075 0.075,-0.03 0.315,-0.06 0.27,-0.06 0.36,-0.285 0.09,-0.225 -0.09,-0.75 -0.06,-0.225 -0.225,-0.285 -0.165,-0.075 -0.345,-0.045 -0.165,0.03 -0.315,0.12 -0.135,0.075 -0.21,0.09 -0.135,0.06 -0.375,0.06 -0.24,0 -0.39,0 -0.12,0.015 -0.225,0.045 -0.09,0.015 -0.225,0.015 -0.135,0 -0.255,0 z m 0.51,1.29 q 0,1.485 0.03,2.64 0,0.525 0.015,1.02 0.015,0.48 0.015,0.885 0.015,0.39 0.015,0.66 0,0.27 0,0.285 0,0.15 -0.045,0.285 -0.03,0.09 -0.06,0.12 0.09,0 0.15,-0.12 0.045,-0.06 0.075,-0.255 0.03,-0.195 0,-0.555 0,-0.375 -0.015,-1.14 -0.015,-0.78 -0.015,-1.56 0,-0.78 0,-1.38 0,-0.6 0,-0.645 0,-0.12 0.135,-0.12 0.045,0 0.27,0 0.225,0 0.48,-0.03 0.27,-0.03 0.495,-0.045 0.225,-0.015 0.3,-0.045 0.165,-0.12 0.27,-0.225 0.09,-0.09 0.12,-0.165 -0.06,0.12 -0.18,0.18 -0.225,0.21 -0.495,0.21 -0.15,0 -0.405,-0.015 -0.255,-0.03 -0.51,-0.03 -0.24,0 -0.435,0 -0.18,0 -0.21,0.045 z" />
    </g>
  </g>
</svg>
